<svg xmlns="http://www.w3.org/2000/svg" width="60" height="60" viewBox="0 0 60 60">
    <g fill="#FFF" fill-rule="nonzero" stroke="#FFF" stroke-width="1.5" opacity=".3">
        <path d="M31.401 23.783c-3.947 0-7.158 3.211-7.158 7.158 0 3.947 3.211 7.158 7.158 7.158 3.947 0 7.158-3.21 7.158-7.158 0-3.947-3.21-7.158-7.158-7.158zm0 11.608a4.454 4.454 0 0 1-4.45-4.45 4.454 4.454 0 0 1 4.45-4.45 4.455 4.455 0 0 1 4.45 4.45 4.455 4.455 0 0 1-4.45 4.45z"/>
        <path d="M57.564 18.565c.527-3.874-.078-7.169-1.75-9.603a4.784 4.784 0 0 0 .427-1.979 4.82 4.82 0 0 0-4.815-4.814c-1.794 0-3.36.987-4.189 2.446-4.535-.227-10.088 1.44-15.836 4.76-9.814-5.671-18.699-6.353-23.308-1.742-2.003 2.003-3.04 4.87-3.036 8.332a4.821 4.821 0 0 0-2.914 4.423 4.82 4.82 0 0 0 4.814 4.814l.083-.002a42.936 42.936 0 0 0 2.795 5.741c-5.672 9.814-6.353 18.7-1.742 23.308 2.034 2.035 4.9 3.04 8.31 3.04 4.32 0 9.515-1.613 14.998-4.782 5.484 3.17 10.677 4.781 14.997 4.781 3.412 0 6.278-1.004 8.313-3.038 4.61-4.61 3.927-13.496-1.746-23.31 2.496-4.32 4.083-8.584 4.599-12.375zM46.624 7.303a4.82 4.82 0 0 0 4.802 4.495c.923 0 1.785-.261 2.518-.713 1.002 1.82 1.326 4.247.936 7.115-.419 3.078-1.638 6.537-3.547 10.103-2.176-3.3-4.791-6.486-7.799-9.495-3.008-3.007-6.195-5.623-9.497-7.801 4.624-2.48 8.99-3.765 12.587-3.704zM9.634 24.388a4.813 4.813 0 0 0 2.138-4 4.821 4.821 0 0 0-4.006-4.745c.055-2.58.82-4.672 2.242-6.095 3.463-3.464 10.688-2.855 18.755 1.46-3.302 2.178-6.488 4.793-9.495 7.8-3.008 3.008-5.623 6.195-7.8 9.496a38.911 38.911 0 0 1-1.834-3.916zm.374 27.946c-3.464-3.463-2.855-10.688 1.46-18.754 2.177 3.301 4.793 6.487 7.8 9.494 3.007 3.008 6.193 5.623 9.495 7.8-8.067 4.315-15.292 4.924-18.755 1.46zM21.183 41.16c-3.226-3.226-5.979-6.66-8.19-10.218 2.211-3.557 4.964-6.99 8.19-10.217 3.227-3.227 6.66-5.98 10.218-8.192 3.557 2.213 6.991 4.965 10.218 8.192 3.227 3.227 5.98 6.661 8.19 10.217-2.21 3.556-4.963 6.99-8.19 10.218-3.227 3.227-6.66 5.98-10.218 8.191-3.557-2.212-6.991-4.964-10.218-8.191zm31.612 11.175c-3.464 3.464-10.69 2.855-18.756-1.46 3.301-2.177 6.488-4.792 9.495-7.8 3.008-3.008 5.623-6.194 7.799-9.494 4.316 8.066 4.926 15.291 1.462 18.754z"/>
    </g>
</svg>
