<?xml version="1.0" encoding="UTF-8"?>
<svg width="30px" height="46px" viewBox="0 0 30 46" version="1.1" xmlns="http://www.w3.org/2000/svg" xmlns:xlink="http://www.w3.org/1999/xlink">
    <!-- Generator: Sketch 50.2 (55047) - http://www.bohemiancoding.com/sketch -->
    <title>Path 15</title>
    <desc>Created with Sketch.</desc>
    <defs></defs>
    <g id="stage-3" stroke="none" stroke-width="1" fill="none" fill-rule="evenodd">
        <g id="wallet_768px" transform="translate(-332.000000, -210.000000)" fill="#8da1ad">
            <g id="Group-2" transform="translate(100.000000, 137.000000)">
                <path d="M232,119 L235.441914,119 L235.441914,76.1203153 C243.125357,76.1203153 248.407251,76.1203153 251.287594,76.1203153 C255.608109,76.1203153 256.846072,78.7781773 257.063803,81.4740616 C257.464379,86.4338903 253.789266,88.610469 246.038466,88.0037975 L246.038466,91.1557579 C254.379191,90.7841648 258.549554,93.25795 258.549554,98.5771134 C258.549554,103.896277 253.084114,105.991232 242.153234,104.861978 L242.153234,79.5993606 L238.633455,79.5993606 L238.633455,107.94514 C247.855816,108.130608 253.388225,107.862957 255.230684,107.142185 C257.994372,106.061027 262,104.861978 262,98.5771134 C262,93.1777498 259.446592,90.1102762 254.339775,89.3746924 C258.802148,87.7396057 260.934099,84.943669 260.735626,80.9868824 C260.437918,75.0517024 255.270259,73 251.108606,73 C248.922332,73 242.552796,73 232,73 L232,119 Z" id="Path-15"></path>
            </g>
        </g>
    </g>
</svg>