<?xml version="1.0" encoding="UTF-8"?>
<svg width="30px" height="46px" viewBox="0 0 30 46" version="1.1" xmlns="http://www.w3.org/2000/svg" xmlns:xlink="http://www.w3.org/1999/xlink">
    <!-- Generator: Sketch 55.2 (78181) - https://sketchapp.com -->
    <title>b-grey</title>
    <desc>Created with Sketch.</desc>
    <g id="Page-1" stroke="none" stroke-width="1" fill="none" fill-rule="evenodd">
        <g id="b-grey" fill="#FF625C" fill-rule="nonzero">
            <path d="M0,46 L3.441914,46 L3.441914,3.1203153 C11.125357,3.1203153 16.407251,3.1203153 19.287594,3.1203153 C23.608109,3.1203153 24.846072,5.7781773 25.063803,8.4740616 C25.464379,13.4338903 21.789266,15.610469 14.038466,15.0037975 L14.038466,18.1557579 C22.379191,17.7841648 26.549554,20.25795 26.549554,25.5771134 C26.549554,30.896277 21.084114,32.991232 10.153234,31.861978 L10.153234,6.5993606 L6.633455,6.5993606 L6.633455,34.94514 C15.855816,35.130608 21.388225,34.862957 23.230684,34.142185 C25.994372,33.061027 30,31.861978 30,25.5771134 C30,20.1777498 27.446592,17.1102762 22.339775,16.3746924 C26.802148,14.7396057 28.934099,11.943669 28.735626,7.9868824 C28.437918,2.0517024 23.270259,0 19.108606,0 C16.922332,0 10.552796,0 0,0 L0,46 Z" id="Path-15"></path>
        </g>
    </g>
</svg>