<svg xmlns="http://www.w3.org/2000/svg" width="42" height="15" viewBox="0 0 42 15">
    <path fill="#00F6D2" fill-rule="evenodd" d="M7.5 0h27a7.5 7.5 0 0 1 0 15h-27a7.5 7.5 0 0 1 0-15zm5.844 11c1.5 0 2.446-.79 2.446-2.018 0-.931-.747-1.635-1.694-1.678v-.04c.777-.106 1.369-.732 1.369-1.518 0-1.081-.83-1.746-2.208-1.746H10v7h3.344zm-1.563-5.739h1.005c.597 0 .946.291.946.781 0 .505-.388.81-1.034.81h-.917v-1.59zm0 4.478V7.934h1.049c.732 0 1.15.32 1.15.893 0 .592-.408.912-1.14.912H11.78zm9.561-.175h-3.018V8.138h2.839v-1.31h-2.84V5.436h3.02V4h-4.8v7h4.8V9.564zM25.75 11V5.436h1.932V4h-5.64v1.436h1.932V11h1.776zm6.358 0H34l-2.354-7h-2.18l-2.353 7h1.815l.447-1.538h2.29L32.108 11zm-1.606-5.516h.039l.776 2.698H29.72l.782-2.698z" opacity=".5"/>
</svg>
