<svg xmlns="http://www.w3.org/2000/svg" xmlns:xlink="http://www.w3.org/1999/xlink" width="2048" height="1232" viewBox="0 0 1024 616">
    <defs>
        <path id="a" d="M0 0h1024v616H0z"/>
        <radialGradient id="c" cx="48.617%" cy="55.883%" r="48.803%" fx="48.617%" fy="55.883%">
            <stop offset="0%" stop-color="#00E1FF"/>
            <stop offset="100%" stop-color="#00E5FF" stop-opacity="0"/>
        </radialGradient>
        <linearGradient id="d" x1="3.463%" y1="53.239%" y2="53.239%">
            <stop offset="0%" stop-color="#2CC2FE" stop-opacity="0"/>
            <stop offset="49.904%" stop-color="#24C1FF"/>
            <stop offset="100%" stop-color="#3AC6FE" stop-opacity="0"/>
        </linearGradient>
        <path id="e" d="M1.17 1.053h166.674v373.406H1.171z"/>
        <path id="g" d="M.427 1.344h233.886v114.738H.427z"/>
        <path id="i" d="M.72 1.044h204.694v293.633H.72z"/>
        <path id="k" d="M.667.088h207.637v96.173H.667z"/>
        <path id="m" d="M.225.056h242.84v374.392H.225z"/>
        <path id="o" d="M.225.348h241.479v115.04H.224z"/>
        <path id="q" d="M.225.047h279.599v294.408H.224z"/>
        <path id="s" d="M.225.089H258.12v96.426H.225z"/>
        <linearGradient id="u" x1="82.014%" x2="-23.654%" y1="12.509%" y2="87.491%">
            <stop offset="0%" stop-color="#24C1FF" stop-opacity=".643"/>
            <stop offset="100%" stop-color="#24C1FF" stop-opacity=".093"/>
        </linearGradient>
        <circle id="w" cx="833" cy="252" r="1"/>
        <filter id="v" width="1150%" height="1150%" x="-525%" y="-525%" filterUnits="objectBoundingBox">
            <feOffset in="SourceAlpha" result="shadowOffsetOuter1"/>
            <feGaussianBlur in="shadowOffsetOuter1" result="shadowBlurOuter1" stdDeviation="3.5"/>
            <feColorMatrix in="shadowBlurOuter1" values="0 0 0 0 1 0 0 0 0 1 0 0 0 0 1 0 0 0 0.750283062 0"/>
        </filter>
        <circle id="y" cx="842" cy="563" r="1"/>
        <filter id="x" width="1150%" height="1150%" x="-525%" y="-525%" filterUnits="objectBoundingBox">
            <feOffset in="SourceAlpha" result="shadowOffsetOuter1"/>
            <feGaussianBlur in="shadowOffsetOuter1" result="shadowBlurOuter1" stdDeviation="3.5"/>
            <feColorMatrix in="shadowBlurOuter1" values="0 0 0 0 1 0 0 0 0 1 0 0 0 0 1 0 0 0 0.750283062 0"/>
        </filter>
        <circle id="A" cx="913" cy="285" r="1"/>
        <filter id="z" width="1150%" height="1150%" x="-525%" y="-525%" filterUnits="objectBoundingBox">
            <feOffset in="SourceAlpha" result="shadowOffsetOuter1"/>
            <feGaussianBlur in="shadowOffsetOuter1" result="shadowBlurOuter1" stdDeviation="3.5"/>
            <feColorMatrix in="shadowBlurOuter1" values="0 0 0 0 1 0 0 0 0 1 0 0 0 0 1 0 0 0 0.750283062 0"/>
        </filter>
        <circle id="C" cx="275" cy="268" r="2"/>
        <filter id="B" width="625%" height="625%" x="-262.5%" y="-262.5%" filterUnits="objectBoundingBox">
            <feOffset in="SourceAlpha" result="shadowOffsetOuter1"/>
            <feGaussianBlur in="shadowOffsetOuter1" result="shadowBlurOuter1" stdDeviation="3.5"/>
            <feColorMatrix in="shadowBlurOuter1" values="0 0 0 0 1 0 0 0 0 1 0 0 0 0 1 0 0 0 0.750283062 0"/>
        </filter>
        <circle id="E" cx="711" cy="167" r="2"/>
        <filter id="D" width="625%" height="625%" x="-262.5%" y="-262.5%" filterUnits="objectBoundingBox">
            <feOffset in="SourceAlpha" result="shadowOffsetOuter1"/>
            <feGaussianBlur in="shadowOffsetOuter1" result="shadowBlurOuter1" stdDeviation="3.5"/>
            <feColorMatrix in="shadowBlurOuter1" values="0 0 0 0 1 0 0 0 0 1 0 0 0 0 1 0 0 0 0.750283062 0"/>
        </filter>
        <circle id="G" cx="987" cy="190" r="2"/>
        <filter id="F" width="625%" height="625%" x="-262.5%" y="-262.5%" filterUnits="objectBoundingBox">
            <feOffset in="SourceAlpha" result="shadowOffsetOuter1"/>
            <feGaussianBlur in="shadowOffsetOuter1" result="shadowBlurOuter1" stdDeviation="3.5"/>
            <feColorMatrix in="shadowBlurOuter1" values="0 0 0 0 1 0 0 0 0 1 0 0 0 0 1 0 0 0 0.750283062 0"/>
        </filter>
        <circle id="I" cx="112" cy="360" r="1"/>
        <filter id="H" width="1150%" height="1150%" x="-525%" y="-525%" filterUnits="objectBoundingBox">
            <feOffset in="SourceAlpha" result="shadowOffsetOuter1"/>
            <feGaussianBlur in="shadowOffsetOuter1" result="shadowBlurOuter1" stdDeviation="3.5"/>
            <feColorMatrix in="shadowBlurOuter1" values="0 0 0 0 1 0 0 0 0 1 0 0 0 0 1 0 0 0 0.750283062 0"/>
        </filter>
        <circle id="K" cx="212" cy="336" r="1"/>
        <filter id="J" width="1150%" height="1150%" x="-525%" y="-525%" filterUnits="objectBoundingBox">
            <feOffset in="SourceAlpha" result="shadowOffsetOuter1"/>
            <feGaussianBlur in="shadowOffsetOuter1" result="shadowBlurOuter1" stdDeviation="3.5"/>
            <feColorMatrix in="shadowBlurOuter1" values="0 0 0 0 1 0 0 0 0 1 0 0 0 0 1 0 0 0 0.750283062 0"/>
        </filter>
        <circle id="M" cx="308" cy="348" r="1"/>
        <filter id="L" width="1150%" height="1150%" x="-525%" y="-525%" filterUnits="objectBoundingBox">
            <feOffset in="SourceAlpha" result="shadowOffsetOuter1"/>
            <feGaussianBlur in="shadowOffsetOuter1" result="shadowBlurOuter1" stdDeviation="3.5"/>
            <feColorMatrix in="shadowBlurOuter1" values="0 0 0 0 1 0 0 0 0 1 0 0 0 0 1 0 0 0 0.750283062 0"/>
        </filter>
        <circle id="O" cx="850.5" cy="464.5" r="2.5"/>
        <filter id="N" width="520%" height="520%" x="-210%" y="-210%" filterUnits="objectBoundingBox">
            <feOffset in="SourceAlpha" result="shadowOffsetOuter1"/>
            <feGaussianBlur in="shadowOffsetOuter1" result="shadowBlurOuter1" stdDeviation="3.5"/>
            <feColorMatrix in="shadowBlurOuter1" values="0 0 0 0 1 0 0 0 0 1 0 0 0 0 1 0 0 0 0.750283062 0"/>
        </filter>
        <circle id="Q" cx="215.5" cy="146.5" r="2.5"/>
        <filter id="P" width="520%" height="520%" x="-210%" y="-210%" filterUnits="objectBoundingBox">
            <feOffset in="SourceAlpha" result="shadowOffsetOuter1"/>
            <feGaussianBlur in="shadowOffsetOuter1" result="shadowBlurOuter1" stdDeviation="3.5"/>
            <feColorMatrix in="shadowBlurOuter1" values="0 0 0 0 1 0 0 0 0 1 0 0 0 0 1 0 0 0 0.750283062 0"/>
        </filter>
        <circle id="S" cx="679.5" cy="171.5" r="2.5"/>
        <filter id="R" width="520%" height="520%" x="-210%" y="-210%" filterUnits="objectBoundingBox">
            <feOffset in="SourceAlpha" result="shadowOffsetOuter1"/>
            <feGaussianBlur in="shadowOffsetOuter1" result="shadowBlurOuter1" stdDeviation="3.5"/>
            <feColorMatrix in="shadowBlurOuter1" values="0 0 0 0 1 0 0 0 0 1 0 0 0 0 1 0 0 0 0.750283062 0"/>
        </filter>
        <circle id="U" cx="795" cy="287" r="2"/>
        <filter id="T" width="625%" height="625%" x="-262.5%" y="-262.5%" filterUnits="objectBoundingBox">
            <feOffset in="SourceAlpha" result="shadowOffsetOuter1"/>
            <feGaussianBlur in="shadowOffsetOuter1" result="shadowBlurOuter1" stdDeviation="3.5"/>
            <feColorMatrix in="shadowBlurOuter1" values="0 0 0 0 1 0 0 0 0 1 0 0 0 0 1 0 0 0 0.750283062 0"/>
        </filter>
        <circle id="W" cx="152" cy="50" r="2"/>
        <filter id="V" width="625%" height="625%" x="-262.5%" y="-262.5%" filterUnits="objectBoundingBox">
            <feOffset in="SourceAlpha" result="shadowOffsetOuter1"/>
            <feGaussianBlur in="shadowOffsetOuter1" result="shadowBlurOuter1" stdDeviation="3.5"/>
            <feColorMatrix in="shadowBlurOuter1" values="0 0 0 0 1 0 0 0 0 1 0 0 0 0 1 0 0 0 0.750283062 0"/>
        </filter>
        <circle id="Y" cx="91" cy="333" r="2"/>
        <filter id="X" width="625%" height="625%" x="-262.5%" y="-262.5%" filterUnits="objectBoundingBox">
            <feOffset in="SourceAlpha" result="shadowOffsetOuter1"/>
            <feGaussianBlur in="shadowOffsetOuter1" result="shadowBlurOuter1" stdDeviation="3.5"/>
            <feColorMatrix in="shadowBlurOuter1" values="0 0 0 0 1 0 0 0 0 1 0 0 0 0 1 0 0 0 0.750283062 0"/>
        </filter>
        <circle id="aa" cx="179" cy="446" r="2"/>
        <filter id="Z" width="625%" height="625%" x="-262.5%" y="-262.5%" filterUnits="objectBoundingBox">
            <feOffset in="SourceAlpha" result="shadowOffsetOuter1"/>
            <feGaussianBlur in="shadowOffsetOuter1" result="shadowBlurOuter1" stdDeviation="3.5"/>
            <feColorMatrix in="shadowBlurOuter1" values="0 0 0 0 1 0 0 0 0 1 0 0 0 0 1 0 0 0 0.750283062 0"/>
        </filter>
        <circle id="ac" cx="49.5" cy="399.5" r="1.5"/>
        <filter id="ab" width="800%" height="800%" x="-350%" y="-350%" filterUnits="objectBoundingBox">
            <feOffset in="SourceAlpha" result="shadowOffsetOuter1"/>
            <feGaussianBlur in="shadowOffsetOuter1" result="shadowBlurOuter1" stdDeviation="3.5"/>
            <feColorMatrix in="shadowBlurOuter1" values="0 0 0 0 1 0 0 0 0 1 0 0 0 0 1 0 0 0 0.750283062 0"/>
        </filter>
    </defs>
    <g fill="none" fill-rule="evenodd">
        <mask id="b" fill="#fff">
            <use xlink:href="#a"/>
        </mask>
        <g mask="url(#b)">
            <g transform="translate(-290 -17)">
                <circle cx="289.5" cy="289.5" r="289.5" fill="url(#c)" opacity=".138"/>
                <circle cx="1314.5" cy="289.5" r="289.5" fill="url(#c)" opacity=".138"/>
                <g stroke="url(#d)" stroke-width=".271" opacity=".1" transform="translate(152 111)">
                    <path d="M.41 278.717s105.102 50.38 272.573 50.38c167.47 0 212.515-66.434 423.875-66.434S952.106 407.14 1236.23 407.14"/>
                    <path d="M.41 276.5s110.3 55.724 277.77 55.724c167.471 0 207.318-75.963 418.678-75.963 211.36 0 255.248 144.806 539.372 144.806"/>
                    <path d="M.41 274.283s115.497 61.067 282.968 61.067c167.47 0 202.12-85.492 413.48-85.492s255.248 145.138 539.372 145.138"/>
                    <path d="M.41 272.067s120.694 66.41 288.165 66.41c167.47 0 196.923-95.022 408.283-95.022s255.248 145.469 539.372 145.469"/>
                    <path d="M.41 269.85s125.891 71.753 293.363 71.753c167.47 0 191.725-104.552 403.085-104.552 211.36 0 255.248 145.8 539.372 145.8"/>
                    <path d="M.41 267.633s131.089 77.095 298.56 77.095c167.47 0 186.528-114.08 397.888-114.08 211.36 0 255.248 146.133 539.372 146.133"/>
                    <path d="M.41 265.417s136.286 82.438 303.758 82.438c167.47 0 181.33-123.61 392.69-123.61 211.36 0 255.248 146.463 539.372 146.463"/>
                    <path d="M.41 263.2s141.483 87.782 308.955 87.782c167.47 0 176.133-133.139 387.493-133.139 211.36 0 255.248 146.794 539.372 146.794"/>
                    <path d="M.41 260.983s146.68 93.124 314.152 93.124c167.47 0 170.936-142.668 382.296-142.668 211.36 0 255.248 147.126 539.372 147.126"/>
                    <path d="M.41 258.767s151.878 98.467 319.35 98.467c167.47 0 165.738-152.198 377.098-152.198s255.248 147.458 539.372 147.458"/>
                    <path d="M.41 256.55s157.075 103.81 324.547 103.81c167.47 0 160.54-161.726 371.9-161.726 211.36 0 255.249 147.787 539.373 147.787"/>
                    <path d="M.41 254.333s162.273 109.153 329.744 109.153c167.47 0 155.344-171.256 366.704-171.256s255.248 148.12 539.372 148.12"/>
                    <path d="M.41 252.117s167.47 114.496 334.942 114.496c167.47 0 150.146-180.786 361.506-180.786 211.36 0 255.248 148.451 539.372 148.451"/>
                    <path d="M.41 249.9s172.668 119.84 340.14 119.84c167.47 0 144.948-190.316 356.308-190.316 211.36 0 255.248 148.783 539.372 148.783"/>
                    <path d="M.41 247.683s177.865 125.182 345.336 125.182c167.47 0 139.752-199.843 351.112-199.843s255.248 149.113 539.372 149.113"/>
                    <path d="M.41 245.467s183.062 130.525 350.534 130.525c167.47 0 134.554-209.374 345.914-209.374 211.36 0 255.248 149.444 539.372 149.444"/>
                    <path d="M.41 243.25s188.26 135.867 355.731 135.867c167.47 0 129.357-218.902 340.717-218.902 211.36 0 255.248 149.776 539.372 149.776"/>
                    <path d="M.41 241.033s193.457 141.21 360.929 141.21c167.47 0 124.159-228.43 335.519-228.43s255.248 150.106 539.372 150.106"/>
                    <path d="M.41 238.817S199.064 385.37 366.536 385.37c167.47 0 118.962-237.96 330.322-237.96s255.248 150.438 539.372 150.438"/>
                    <path d="M.41 236.6s203.852 151.896 371.323 151.896c167.47 0 113.765-247.49 325.125-247.49s255.248 150.77 539.372 150.77"/>
                    <path d="M.41 234.383s209.05 157.24 376.52 157.24c167.47 0 108.568-257.02 319.928-257.02s255.248 151.101 539.372 151.101"/>
                    <path d="M.41 232.167s214.246 162.582 381.718 162.582c167.47 0 103.37-266.549 314.73-266.549s255.248 151.432 539.372 151.432"/>
                    <path d="M.41 229.95s219.444 167.925 386.915 167.925c167.47 0 98.173-276.079 309.533-276.079s255.248 151.765 539.372 151.765"/>
                    <path d="M.41 227.733s224.641 173.268 392.113 173.268c167.47 0 92.975-285.607 304.335-285.607 211.36 0 255.248 152.095 539.372 152.095"/>
                    <path d="M.41 225.517s229.838 178.611 397.31 178.611c167.47 0 87.778-295.137 299.138-295.137 211.36 0 255.248 152.427 539.372 152.427"/>
                    <path d="M.41 223.3s235.036 183.953 402.507 183.953c167.47 0 82.58-304.665 293.94-304.665s255.249 152.757 539.373 152.757"/>
                    <path d="M.41 221.083S240.643 410.38 408.115 410.38c167.47 0 77.383-314.196 288.743-314.196s255.248 153.089 539.372 153.089"/>
                    <path d="M.41 218.867s245.43 194.639 412.902 194.639c167.47 0 72.186-323.724 283.546-323.724 211.36 0 255.248 153.42 539.372 153.42"/>
                    <path d="M.41 216.65s250.63 199.982 418.1 199.982c167.47 0 66.988-333.253 278.348-333.253s255.248 153.75 539.372 153.75"/>
                    <path d="M.41 214.433S256.235 419.76 423.707 419.76c167.47 0 61.79-342.784 273.15-342.784 211.36 0 255.249 154.083 539.373 154.083"/>
                    <path d="M.41 212.217s261.024 210.667 428.494 210.667c167.47 0 56.594-352.312 267.954-352.312s255.248 154.414 539.372 154.414"/>
                    <path d="M.41 210S266.631 426.01 434.102 426.01c167.47 0 51.396-361.842 262.756-361.842 211.36 0 255.248 154.746 539.372 154.746"/>
                    <path d="M.41 207.783s271.419 221.355 438.889 221.355c167.47 0 46.199-371.371 257.559-371.371s255.248 155.076 539.372 155.076"/>
                    <path d="M.41 205.567s276.616 226.696 444.086 226.696c167.47 0 41.002-380.9 252.362-380.9 211.36 0 255.248 155.409 539.372 155.409"/>
                    <path d="M.41 203.35s281.813 232.04 449.284 232.04c167.47 0 35.804-390.43 247.164-390.43 211.36 0 255.248 155.74 539.372 155.74"/>
                    <path d="M.41 201.133s287.01 237.382 454.481 237.382c167.47 0 30.607-399.958 241.967-399.958s255.248 156.071 539.372 156.071"/>
                    <path d="M.41 198.917s292.208 242.725 459.678 242.725c167.47 0 25.41-409.489 236.77-409.489s255.248 156.403 539.372 156.403"/>
                    <path d="M.41 196.7s297.406 248.069 464.876 248.069c167.47 0 20.212-419.018 231.572-419.018s255.248 156.733 539.372 156.733"/>
                    <path d="M.41 194.483s302.603 253.411 470.073 253.411c167.47 0 15.015-428.546 226.375-428.546s255.248 157.064 539.372 157.064"/>
                    <path d="M.41 192.266s307.8 258.755 475.27 258.755c167.47 0 9.818-438.076 221.178-438.076 211.36 0 255.248 157.395 539.372 157.395"/>
                    <path d="M.41 190.05s312.998 264.097 480.468 264.097c167.471 0 4.62-447.606 215.98-447.606 211.36 0 255.248 157.728 539.372 157.728"/>
                    <path d="M.41 187.833s318.195 269.44 485.665 269.44c167.47 0-.577-457.134 210.783-457.134 211.36 0 255.248 158.058 539.372 158.058"/>
                </g>
                <g stroke="url(#d)" stroke-width=".271" opacity=".1" transform="translate(274 85)">
                    <path d="M1056.921 178.437s-89.808-50.331-232.907-50.331c-143.1 0-181.59 66.37-362.192 66.37S243.718 50.14.942 50.14"/>
                    <path d="M1056.921 180.652s-94.249-55.67-237.348-55.67c-143.1 0-177.148 75.89-357.751 75.89-180.602 0-218.104-144.665-460.88-144.665"/>
                    <path d="M1056.921 182.866s-98.69-61.007-241.79-61.007c-143.099 0-172.706 85.409-353.31 85.409-180.601 0-218.103-144.995-460.88-144.995"/>
                    <path d="M1056.921 185.08s-103.13-66.344-246.23-66.344c-143.101 0-168.266 94.928-348.87 94.928-180.601 0-218.103-145.326-460.88-145.326"/>
                    <path d="M1056.921 187.295S949.35 115.613 806.25 115.613c-143.101 0-163.825 104.45-344.428 104.45-180.602 0-218.104-145.658-460.88-145.658"/>
                    <path d="M1056.921 189.51s-112.013-77.02-255.112-77.02c-143.101 0-159.384 113.968-339.987 113.968C281.22 226.458 243.718 80.47.942 80.47"/>
                    <path d="M1056.921 191.724s-116.454-82.357-259.553-82.357c-143.101 0-154.943 123.488-335.546 123.488-180.602 0-218.104-146.319-460.88-146.319"/>
                    <path d="M1056.921 193.939s-120.895-87.696-263.994-87.696c-143.101 0-150.502 133.008-331.105 133.008-180.602 0-218.104-146.65-460.88-146.65"/>
                    <path d="M1056.921 196.153s-125.336-93.032-268.435-93.032c-143.101 0-146.061 142.528-326.664 142.528-180.602 0-218.104-146.981-460.88-146.981"/>
                    <path d="M1056.921 198.368s-129.777-98.37-272.876-98.37c-143.101 0-141.62 152.047-322.223 152.047-180.602 0-218.104-147.312-460.88-147.312"/>
                    <path d="M1056.921 200.582S922.703 96.873 779.604 96.873c-143.101 0-137.18 161.569-317.782 161.569-180.602 0-218.104-147.643-460.88-147.643"/>
                    <path d="M1056.921 202.797S918.262 93.751 775.161 93.751c-143.099 0-132.736 171.089-313.34 171.089-180.601 0-218.103-147.976-460.88-147.976"/>
                    <path d="M1056.921 205.011s-143.1-114.384-286.2-114.384-128.296 180.609-308.9 180.609C281.22 271.236 243.719 122.93.942 122.93"/>
                    <path d="M1056.921 207.226S909.381 87.504 766.28 87.504c-143.1 0-123.855 190.128-304.458 190.128-180.602 0-218.104-148.636-460.88-148.636"/>
                    <path d="M1056.921 209.44S904.938 84.382 761.84 84.382c-143.1 0-119.414 199.647-300.017 199.647-180.602 0-218.104-148.967-460.88-148.967"/>
                    <path d="M1056.921 211.655S900.497 81.258 757.398 81.258c-143.1 0-114.973 209.169-295.576 209.169-180.602 0-218.104-149.299-460.88-149.299"/>
                    <path d="M1056.921 213.87S896.056 78.135 752.957 78.135c-143.1 0-110.532 218.687-291.135 218.687-180.602 0-218.104-149.63-460.88-149.63"/>
                    <path d="M1056.921 216.084S891.615 75.012 748.516 75.012c-143.1 0-106.091 228.207-286.694 228.207-180.602 0-218.104-149.96-460.88-149.96"/>
                    <path d="M1056.921 218.298S887.174 71.888 744.075 71.888c-143.1 0-101.65 237.728-282.253 237.728-180.602 0-218.104-150.291-460.88-150.291"/>
                    <path d="M1056.921 220.513S882.733 68.766 739.634 68.766c-143.1 0-97.21 247.247-277.812 247.247-180.602 0-218.104-150.622-460.88-150.622"/>
                    <path d="M1056.921 222.728S878.292 65.642 735.193 65.642c-143.1 0-92.768 256.768-273.371 256.768-180.602 0-218.104-150.953-460.88-150.953"/>
                    <path d="M1056.921 224.942S873.851 62.519 730.751 62.519c-143.099 0-88.326 266.287-268.93 266.287-180.601 0-218.103-151.283-460.88-151.283"/>
                    <path d="M1056.921 227.156s-187.51-167.76-330.61-167.76c-143.1 0-83.886 275.808-264.49 275.808-180.601 0-218.103-151.616-460.88-151.616"/>
                    <path d="M1056.921 229.371S864.97 56.273 721.87 56.273c-143.101 0-79.445 285.328-260.048 285.328-180.602 0-218.104-151.947-460.88-151.947"/>
                    <path d="M1056.921 231.585S860.53 53.15 717.43 53.15c-143.101 0-75.004 294.848-255.607 294.848-180.602 0-218.104-152.277-460.88-152.277"/>
                    <path d="M1056.921 233.8S856.088 50.027 712.988 50.027s-70.563 304.366-251.166 304.366c-180.602 0-218.104-152.607-460.88-152.607"/>
                    <path d="M1056.921 236.014S851.647 46.903 708.547 46.903c-143.1 0-66.122 313.888-246.725 313.888-180.602 0-218.104-152.939-460.88-152.939"/>
                    <path d="M1056.921 238.229S847.206 43.78 704.106 43.78s-61.681 323.406-242.284 323.406c-180.602 0-218.104-153.27-460.88-153.27"/>
                    <path d="M1056.921 240.444S842.765 40.657 699.665 40.657c-143.1 0-57.24 332.927-237.843 332.927-180.602 0-218.104-153.6-460.88-153.6"/>
                    <path d="M1056.921 242.658S838.324 37.533 695.224 37.533s-52.8 342.447-233.402 342.447C281.22 379.98 243.718 226.05.942 226.05"/>
                    <path d="M1056.921 244.872S833.883 34.411 690.783 34.411c-143.1 0-48.358 351.967-228.961 351.967-180.602 0-218.104-154.263-460.88-154.263"/>
                    <path d="M1056.921 247.087s-227.48-215.8-370.58-215.8-43.916 361.487-224.52 361.487C281.22 392.774 243.719 238.18.942 238.18"/>
                    <path d="M1056.921 249.301S825.001 28.164 681.9 28.164c-143.1 0-39.475 371.007-220.078 371.007-180.602 0-218.104-154.924-460.88-154.924"/>
                    <path d="M1056.921 251.516S820.56 25.042 677.46 25.042c-143.1 0-35.034 380.527-215.637 380.527-180.602 0-218.104-155.257-460.88-155.257"/>
                    <path d="M1056.921 253.73S816.12 21.918 673.018 21.918c-143.1 0-30.593 390.047-211.196 390.047-180.602 0-218.104-155.587-460.88-155.587"/>
                    <path d="M1056.921 255.945S811.676 18.795 668.577 18.795c-143.1 0-26.152 399.567-206.755 399.567-180.602 0-218.104-155.918-460.88-155.918"/>
                    <path d="M1056.921 258.16S807.236 15.671 664.136 15.671c-143.1 0-21.711 409.086-202.314 409.086-180.602 0-218.104-156.248-460.88-156.248"/>
                    <path d="M1056.921 260.374S802.795 12.548 659.695 12.548s-17.27 418.608-197.873 418.608c-180.602 0-218.104-156.581-460.88-156.581"/>
                    <path d="M1056.921 262.589S798.354 9.426 655.254 9.426c-143.1 0-12.83 428.126-193.432 428.126-180.602 0-218.104-156.91-460.88-156.91"/>
                    <path d="M1056.921 264.803S793.913 6.303 650.813 6.303c-143.1 0-8.388 437.645-188.991 437.645-180.602 0-218.104-157.24-460.88-157.24"/>
                    <path d="M1056.921 267.017S789.471 3.18 646.372 3.18c-143.1 0-3.947 447.166-184.55 447.166-180.602 0-218.104-157.572-460.88-157.572"/>
                    <path d="M1056.921 269.232S785.031.056 641.931.056c-143.1 0 .494 456.687-180.11 456.687-180.601 0-218.103-157.904-460.88-157.904"/>
                </g>
                <g stroke="url(#d)" opacity=".1" transform="translate(253 99)">
                    <path stroke-width=".543" d="M.33 179.248s90.168-50.533 233.842-50.533c143.673 0 182.317 131.784 363.644 131.784 181.326 0 218.979-210.061 462.73-210.061"/>
                    <path stroke-width=".536" d="M.33 181.471s90.168-55.892 233.842-55.892c143.673 0 182.317 139.752 363.644 139.752 181.326 0 218.979-208.804 462.73-208.804"/>
                    <path stroke-width=".53" d="M.33 183.695s90.168-61.251 233.842-61.251c143.673 0 182.317 147.721 363.644 147.721 181.326 0 218.979-207.547 462.73-207.547"/>
                    <path stroke-width=".523" d="M.33 185.918s90.168-66.61 233.842-66.61c143.673 0 182.317 155.69 363.644 155.69 181.326 0 218.979-206.29 462.73-206.29"/>
                    <path stroke-width=".516" d="M.33 188.142s90.168-71.97 233.842-71.97c143.673 0 182.317 163.66 363.644 163.66 181.326 0 218.979-205.034 462.73-205.034"/>
                    <path stroke-width=".51" d="M.33 190.365s90.168-77.328 233.842-77.328c143.673 0 182.317 171.629 363.644 171.629 181.326 0 218.979-203.779 462.73-203.779"/>
                    <path stroke-width=".503" d="M.33 192.588S90.498 109.9 234.172 109.9c143.673 0 182.317 179.599 363.644 179.599 181.326 0 218.979-202.52 462.73-202.52"/>
                    <path stroke-width=".497" d="M.33 194.812s90.168-88.048 233.842-88.048c143.673 0 182.317 187.569 363.644 187.569 181.326 0 218.979-201.265 462.73-201.265"/>
                    <path stroke-width=".49" d="M.33 197.035s90.168-93.406 233.842-93.406c143.673 0 182.317 195.536 363.644 195.536 181.326 0 218.979-200.007 462.73-200.007"/>
                    <path stroke-width=".483" d="M.33 199.259s90.168-98.766 233.842-98.766C377.845 100.493 416.489 304 597.816 304c181.326 0 218.979-198.751 462.73-198.751"/>
                    <path stroke-width=".477" d="M.33 201.482S90.498 97.357 234.172 97.357c143.673 0 182.317 211.475 363.644 211.475 181.326 0 218.979-197.494 462.73-197.494"/>
                    <path stroke-width=".47" d="M.33 203.705S90.498 94.222 234.172 94.222c143.673 0 182.317 219.444 363.644 219.444 181.326 0 218.979-196.238 462.73-196.238"/>
                    <path stroke-width=".463" d="M.33 205.929S90.498 91.086 234.172 91.086c143.673 0 182.317 227.413 363.644 227.413 181.326 0 218.979-194.98 462.73-194.98"/>
                    <path stroke-width=".457" d="M.33 208.152s90.168-120.2 233.842-120.2c143.673 0 182.317 235.381 363.644 235.381 181.326 0 218.979-193.724 462.73-193.724"/>
                    <path stroke-width=".45" d="M.33 210.375s90.168-125.56 233.842-125.56c143.673 0 182.317 243.352 363.644 243.352 181.326 0 218.979-192.468 462.73-192.468"/>
                    <path stroke-width=".444" d="M.33 212.599s90.168-130.92 233.842-130.92c143.673 0 182.317 251.32 363.644 251.32 181.326 0 218.979-191.21 462.73-191.21"/>
                    <path stroke-width=".437" d="M.33 214.822S90.498 78.544 234.172 78.544c143.673 0 182.317 259.29 363.644 259.29 181.326 0 218.979-189.955 462.73-189.955"/>
                    <path stroke-width=".43" d="M.33 217.046S90.498 75.408 234.172 75.408c143.673 0 182.317 267.258 363.644 267.258 181.326 0 218.979-188.696 462.73-188.696"/>
                    <path stroke-width=".424" d="M.33 219.269S90.498 72.272 234.172 72.272c143.673 0 182.317 275.228 363.644 275.228 181.326 0 218.979-187.441 462.73-187.441"/>
                    <path stroke-width=".417" d="M.33 221.492S90.498 69.137 234.172 69.137c143.673 0 182.317 283.196 363.644 283.196 181.326 0 218.979-186.183 462.73-186.183"/>
                    <path stroke-width=".41" d="M.33 223.716S90.498 66 234.172 66c143.673 0 182.317 291.166 363.644 291.166 181.326 0 218.979-184.928 462.73-184.928"/>
                    <path stroke-width=".404" d="M.33 225.94S90.498 62.863 234.172 62.863c143.673 0 182.317 299.137 363.644 299.137 181.326 0 218.979-183.671 462.73-183.671"/>
                    <path stroke-width=".397" d="M.33 228.162S90.498 59.73 234.172 59.73c143.673 0 182.317 307.105 363.644 307.105 181.326 0 218.979-182.415 462.73-182.415"/>
                    <path stroke-width=".391" d="M.33 230.386S90.498 56.593 234.172 56.593c143.673 0 182.317 315.075 363.644 315.075 181.326 0 218.979-181.158 462.73-181.158"/>
                    <path stroke-width=".384" d="M.33 232.61S90.498 53.457 234.172 53.457c143.673 0 182.317 323.042 363.644 323.042 181.326 0 218.979-179.9 462.73-179.9"/>
                    <path stroke-width=".377" d="M.33 234.833s90.168-184.51 233.842-184.51c143.673 0 182.317 331.011 363.644 331.011 181.326 0 218.979-178.644 462.73-178.644"/>
                    <path stroke-width=".371" d="M.33 237.056s90.168-189.87 233.842-189.87c143.673 0 182.317 338.981 363.644 338.981 181.326 0 218.979-177.386 462.73-177.386"/>
                    <path stroke-width=".364" d="M.33 239.28S90.498 44.05 234.172 44.05c143.673 0 182.317 346.95 363.644 346.95 181.326 0 218.979-176.13 462.73-176.13"/>
                    <path stroke-width=".357" d="M.33 241.503S90.498 40.915 234.172 40.915c143.673 0 182.317 354.92 363.644 354.92 181.326 0 218.979-174.874 462.73-174.874"/>
                    <path stroke-width=".351" d="M.33 243.726S90.498 37.78 234.172 37.78c143.673 0 182.317 362.889 363.644 362.889 181.326 0 218.979-173.617 462.73-173.617"/>
                    <path stroke-width=".344" d="M.33 245.95S90.498 34.644 234.172 34.644c143.673 0 182.317 370.858 363.644 370.858 181.326 0 218.979-172.36 462.73-172.36"/>
                    <path stroke-width=".338" d="M.33 248.173S90.498 31.508 234.172 31.508c143.673 0 182.317 378.827 363.644 378.827 181.326 0 218.979-171.104 462.73-171.104"/>
                    <path stroke-width=".331" d="M.33 250.396S90.498 28.372 234.172 28.372c143.673 0 182.317 386.797 363.644 386.797 181.326 0 218.979-169.848 462.73-169.848"/>
                    <path stroke-width=".324" d="M.33 252.62S90.498 25.237 234.172 25.237C377.845 25.237 416.489 420 597.816 420c181.326 0 218.979-168.59 462.73-168.59"/>
                    <path stroke-width=".318" d="M.33 254.843S90.498 22.101 234.172 22.101c143.673 0 182.317 402.734 363.644 402.734 181.326 0 218.979-167.333 462.73-167.333"/>
                    <path stroke-width=".311" d="M.33 257.066s90.168-238.1 233.842-238.1c143.673 0 182.317 410.703 363.644 410.703 181.326 0 218.979-166.078 462.73-166.078"/>
                    <path stroke-width=".305" d="M.33 259.29S90.498 15.83 234.172 15.83c143.673 0 182.317 418.672 363.644 418.672 181.326 0 218.979-164.82 462.73-164.82"/>
                    <path stroke-width=".298" d="M.33 261.513s90.168-248.82 233.842-248.82c143.673 0 182.317 426.643 363.644 426.643 181.326 0 218.979-163.563 462.73-163.563"/>
                    <path stroke-width=".291" d="M.33 263.737S90.498 9.559 234.172 9.559c143.673 0 182.317 434.61 363.644 434.61 181.326 0 218.979-162.307 462.73-162.307"/>
                    <path stroke-width=".285" d="M.33 265.96S90.498 6.422 234.172 6.422c143.673 0 182.317 442.58 363.644 442.58 181.326 0 218.979-161.05 462.73-161.05"/>
                    <path stroke-width=".278" d="M.33 268.183S90.498 3.286 234.172 3.286c143.673 0 182.317 450.55 363.644 450.55 181.326 0 218.979-159.794 462.73-159.794"/>
                    <path stroke-width=".271" d="M.33 270.407S90.498.15 234.172.15c143.673 0 182.317 458.518 363.644 458.518 181.326 0 218.979-158.536 462.73-158.536"/>
                </g>
                <g fill="#FFF" opacity=".03">
                    <path d="M543.456 158.973a6.171 6.171 0 1 1-12.342-.004 6.171 6.171 0 0 1 12.342.004"/>
                    <path d="M541.116 158.973a3.83 3.83 0 0 1-3.83 3.829 3.83 3.83 0 1 1 3.83-3.829M474.308 54.364a6.17 6.17 0 1 1-12.34 0 6.17 6.17 0 0 1 12.34 0"/>
                    <path d="M471.968 54.364a3.83 3.83 0 1 1-7.661-.001 3.83 3.83 0 0 1 7.66 0M509.166 482.726c0 6.756-5.478 12.233-12.235 12.233-6.755 0-12.233-5.477-12.233-12.233 0-6.757 5.478-12.235 12.233-12.235 6.757 0 12.235 5.478 12.235 12.235"/>
                    <path d="M504.524 482.726a7.593 7.593 0 1 1-15.186 0 7.593 7.593 0 0 1 15.186 0M1012.171 167.767c0 6.757-5.478 12.233-12.235 12.233-6.755 0-12.233-5.476-12.233-12.233 0-6.757 5.478-12.234 12.233-12.234 6.757 0 12.235 5.477 12.235 12.234"/>
                    <path d="M1007.53 167.767a7.592 7.592 0 0 1-7.594 7.592 7.592 7.592 0 0 1-7.592-7.592 7.592 7.592 0 0 1 7.592-7.593 7.592 7.592 0 0 1 7.593 7.593M1138.977 292.233c0 6.756-5.478 12.233-12.233 12.233-6.757 0-12.235-5.477-12.235-12.233 0-6.757 5.478-12.235 12.235-12.235 6.755 0 12.233 5.478 12.233 12.235"/>
                    <path d="M1134.336 292.233a7.593 7.593 0 0 1-15.185 0 7.593 7.593 0 1 1 15.185 0M1198.444 483.505c0 6.757-5.478 12.235-12.233 12.235-6.758 0-12.235-5.478-12.235-12.235s5.477-12.233 12.235-12.233c6.755 0 12.233 5.476 12.233 12.233"/>
                    <path d="M1193.803 483.505a7.593 7.593 0 1 1-15.186 0 7.593 7.593 0 0 1 15.186 0M577.32 267.622c0 6.757-5.476 12.235-12.233 12.235-6.757 0-12.235-5.478-12.235-12.235 0-6.755 5.478-12.233 12.235-12.233s12.233 5.478 12.233 12.233"/>
                    <path d="M572.68 267.622a7.592 7.592 0 0 1-7.593 7.593 7.593 7.593 0 1 1 7.593-7.593M409.38 359.962a6.983 6.983 0 0 1-6.985 6.985 6.985 6.985 0 1 1 0-13.97 6.985 6.985 0 0 1 6.984 6.985"/>
                    <path d="M406.73 359.962a4.335 4.335 0 0 1-8.671 0 4.336 4.336 0 1 1 8.67 0M753.132 237.553a5.673 5.673 0 1 1-11.347 0 5.673 5.673 0 1 1 11.347 0"/>
                    <path d="M750.98 237.553a3.521 3.521 0 1 1-7.042 0 3.521 3.521 0 0 1 7.042 0M677.425 38.407a5.673 5.673 0 1 1-11.347 0 5.674 5.674 0 0 1 11.347 0"/>
                    <path d="M675.272 38.407a3.521 3.521 0 1 1-7.042 0 3.521 3.521 0 0 1 7.042 0M990.611 433.294a3.972 3.972 0 1 1-7.944-.002 3.972 3.972 0 0 1 7.944.002"/>
                    <path d="M989.105 433.294a2.465 2.465 0 1 1-4.93-.001 2.465 2.465 0 0 1 4.93.001M1170.465 628.467a3.971 3.971 0 1 1-7.943 0 3.972 3.972 0 0 1 7.943 0"/>
                    <path d="M1168.959 628.467a2.465 2.465 0 1 1-4.93-.001 2.465 2.465 0 0 1 4.93.001M1208.48 286.062a3.971 3.971 0 1 1-7.945 0 3.972 3.972 0 0 1 7.944 0"/>
                    <path d="M1206.972 286.062a2.465 2.465 0 1 1-4.93 0 2.465 2.465 0 0 1 4.93 0M1127.747 252.02a5.674 5.674 0 1 1-11.348 0 5.674 5.674 0 0 1 11.348 0"/>
                    <path d="M1125.594 252.02a3.521 3.521 0 1 1-7.042 0 3.521 3.521 0 0 1 7.042 0M440.1 307.339a5.674 5.674 0 1 1-11.349-.001 5.674 5.674 0 0 1 11.349 0"/>
                    <path d="M437.947 307.339a3.522 3.522 0 1 1-7.044-.002 3.522 3.522 0 0 1 7.044.002M955.197 236.063a2.696 2.696 0 1 1-5.391-.001 2.696 2.696 0 0 1 5.391.001"/>
                    <path d="M954.175 236.063a1.673 1.673 0 1 1-3.347 0 1.673 1.673 0 0 1 3.347 0M601.255 349.353a2.694 2.694 0 1 1-5.389.001 2.694 2.694 0 0 1 5.39 0"/>
                    <path d="M600.235 349.353a1.673 1.673 0 1 1-3.347-.001 1.673 1.673 0 0 1 3.347.001M505.087 336.303a2.695 2.695 0 1 1-2.694-2.695 2.694 2.694 0 0 1 2.694 2.695"/>
                    <path d="M504.065 336.303a1.671 1.671 0 1 1-3.344 0 1.671 1.671 0 1 1 3.344 0M1054.013 396.728a2.695 2.695 0 1 1-5.39 0 2.695 2.695 0 0 1 5.39 0"/>
                    <path d="M1052.991 396.728a1.673 1.673 0 1 1-3.347-.001 1.673 1.673 0 0 1 3.347 0M688.66 484.357a2.696 2.696 0 1 1-5.392-.002 2.696 2.696 0 0 1 5.392.002"/>
                    <path d="M687.637 484.357a1.673 1.673 0 1 1-3.346-.002 1.673 1.673 0 0 1 3.346.002M921.28 174.575a2.696 2.696 0 1 1-5.391-.001 2.696 2.696 0 0 1 5.391.001"/>
                    <path d="M920.258 174.575a1.673 1.673 0 1 1-3.347 0 1.673 1.673 0 0 1 3.347 0M825.933 393.294a2.696 2.696 0 1 1-5.391-.001 2.696 2.696 0 0 1 5.391.001"/>
                    <path d="M824.911 393.294a1.673 1.673 0 1 1-3.347 0 1.673 1.673 0 0 1 3.347 0M568.066 498.794a2.695 2.695 0 1 1-5.39 0 2.695 2.695 0 0 1 5.39 0"/>
                    <path d="M567.043 498.794a1.672 1.672 0 1 1-3.344.001 1.672 1.672 0 0 1 3.344 0M495.158 617.717a2.695 2.695 0 1 1-5.39 0 2.695 2.695 0 0 1 5.39 0"/>
                    <path d="M494.136 617.717a1.672 1.672 0 1 1-3.345 0 1.672 1.672 0 0 1 3.345 0M445.827 20.25a2.695 2.695 0 1 1-5.39 0 2.695 2.695 0 0 1 5.39 0"/>
                    <path d="M444.805 20.25a1.671 1.671 0 1 1-3.344 0 1.672 1.672 0 1 1 3.344 0M574.053 123.512a2.695 2.695 0 1 1-5.39 0 2.695 2.695 0 0 1 5.39 0"/>
                    <path d="M573.03 123.512a1.672 1.672 0 1 1-3.346 0 1.672 1.672 0 0 1 3.345 0M1177.132 39.004a2.695 2.695 0 1 1-5.39 0 2.695 2.695 0 0 1 5.39 0"/>
                    <path d="M1176.11 39.004a1.672 1.672 0 1 1-3.345.001 1.672 1.672 0 0 1 3.344 0M1135.147 564.385a2.696 2.696 0 1 1-5.392-.002 2.696 2.696 0 0 1 5.392.002"/>
                </g>
                <g opacity=".1">
                    <g transform="translate(1206.313 49.335)">
                        <mask id="f" fill="#fff">
                            <use xlink:href="#e"/>
                        </mask>
                        <path stroke="#FFF" stroke-width=".744" d="M69.062 141.93L1.171 1.052l177.537 5.771L69.062 141.93l138.5 33.606-176.519 40.057 135.105 53.635-67.893 105.232 170.409-74.002-87.58-74.681 202.318-58.388-175.84 8.147-26.479 50.241" mask="url(#f)"/>
                    </g>
                    <path stroke="#FFF" stroke-width=".744" d="M1128.728 358.618l108.627-93.692 67.214 158.868z"/>
                    <g transform="translate(1139.844 348.447)">
                        <mask id="h" fill="#fff">
                            <use xlink:href="#g"/>
                        </mask>
                        <path stroke="#FFF" stroke-width=".744" d="M335.134 1.344l113.38 41.414-95.728 63.82-188.061-31.231 31.23 38.698L.428 116.082" mask="url(#h)"/>
                    </g>
                    <path stroke="#FFF" stroke-width=".744" d="M1359.56 518.843l-50.238 16.973-65.856-41.414 92.332-31.91zM1169.463 231.66l-90.975-30.551M1237.355 264.927l38.02-73.663"/>
                    <g transform="translate(1168.743 55.115)">
                        <mask id="j" fill="#fff">
                            <use xlink:href="#i"/>
                        </mask>
                        <path stroke="#FFF" stroke-width=".744" d="M216.277 1.044l12.56 100.82-122.206 34.285L.72 176.545l67.892 33.267 150.042 10.184-14.937 43.45 102.516 31.231 151.4-85.544-238.979 10.863" mask="url(#j)"/>
                    </g>
                    <path stroke="#FFF" stroke-width=".744" d="M1140.27 464.53l-11.541-105.913-58.388 26.478"/>
                    <g transform="translate(1165.853 539.186)">
                        <mask id="l" fill="#fff">
                            <use xlink:href="#k"/>
                        </mask>
                        <path stroke="#FFF" stroke-width=".744" d="M.667.088l92.827 54.36 120.424-13.381 224.96 55.194" mask="url(#l)"/>
                    </g>
                    <path stroke="#FFF" stroke-width=".744" d="M1017.662 340.24l67.738-52.686 151.955-22.627M969.158 171.31l90.317-77.773 148.008-43.148"/>
                    <path fill="#FFF" d="M972.503 171.102a3.345 3.345 0 1 1-6.69 0 3.345 3.345 0 0 1 6.69 0M1081.846 200.999a3.344 3.344 0 1 1-6.69 0 3.344 3.344 0 1 1 6.69 0M1021.007 339.821a3.344 3.344 0 1 1-6.69 0 3.344 3.344 0 1 1 6.69 0M1074.53 385.399a3.344 3.344 0 1 1-6.691 0 3.344 3.344 0 1 1 6.69 0M1132.232 359.474a3.344 3.344 0 1 1-6.69 0 3.345 3.345 0 0 1 6.69 0M1308.27 423.45a3.344 3.344 0 1 1-6.691 0 3.344 3.344 0 1 1 6.69 0M1143.731 464.218a3.344 3.344 0 1 1-6.69 0 3.344 3.344 0 1 1 6.69 0M1247.848 494.638a3.345 3.345 0 1 1-6.69 0 3.345 3.345 0 0 1 6.69 0M1170.179 539.379a3.344 3.344 0 1 1-6.69 0 3.344 3.344 0 1 1 6.69 0M1263.11 593.632a3.344 3.344 0 1 1-6.69 0 3.344 3.344 0 1 1 6.69 0M1279.104 190.964a3.344 3.344 0 1 1-6.69 0 3.344 3.344 0 1 1 6.69 0M1173.733 231.941a3.344 3.344 0 1 1-6.69 0 3.344 3.344 0 1 1 6.69 0M1240.844 264.974a3.344 3.344 0 1 1-6.69 0 3.344 3.344 0 1 1 6.69 0M1088.746 287.136a3.344 3.344 0 1 1-6.69 0 3.344 3.344 0 1 1 6.69 0M1210.686 49.684a3.345 3.345 0 1 1-6.69 0 3.345 3.345 0 0 1 6.69 0M1063.24 93.119a3.345 3.345 0 1 1-6.691 0 3.345 3.345 0 0 1 6.69 0"/>
                </g>
                <g opacity=".1">
                    <path stroke="#FFF" stroke-width=".744" d="M319.76 207.999l184.133-61.945-200.469-6.125 138.524-90.877-151.117-10.21"/>
                    <g transform="translate(253 33)">
                        <mask id="n" fill="#fff">
                            <use xlink:href="#m"/>
                        </mask>
                        <path stroke="#FFF" stroke-width=".744" d="M-72.104 141.304L-140.174.056 37.83 5.842-72.104 141.304 66.76 174.999l-176.985 40.162 135.462 53.776-68.072 105.51 170.859-74.197-87.812-74.878 202.852-58.542L66.761 175l-26.548 50.373" mask="url(#n)"/>
                    </g>
                    <g transform="translate(253 332.902)">
                        <mask id="p" fill="#fff">
                            <use xlink:href="#o"/>
                        </mask>
                        <path stroke="#FFF" stroke-width=".744" d="M128.025.348l113.679 41.523-95.98 63.987-188.558-31.313 31.313 38.8-196.045 2.044" mask="url(#p)"/>
                    </g>
                    <g transform="translate(253 38.795)">
                        <mask id="r" fill="#fff">
                            <use xlink:href="#q"/>
                        </mask>
                        <path stroke="#FFF" stroke-width=".744" d="M37.83.047l12.594 101.086-122.529 34.376-106.19 40.502 68.071 33.355 150.436 10.21-14.974 43.566 102.786 31.313 151.8-85.77-239.612 10.892" mask="url(#r)"/>
                    </g>
                    <path stroke="#FFF" stroke-width=".744" d="M441.948 49.053l61.945 97.001"/>
                    <g transform="translate(253 523.144)">
                        <mask id="t" fill="#fff">
                            <use xlink:href="#s"/>
                        </mask>
                        <path stroke="#FFF" stroke-width=".744" d="M-181.247.089l93.073 54.502L32.567 41.175l225.553 55.34" mask="url(#t)"/>
                    </g>
                    <path stroke="#FFF" stroke-width=".744" d="M401.279 514.847l-135.975-12.1 204.213-57.18"/>
                    <path fill="#FFF" d="M384.404 333a3.353 3.353 0 1 1-6.708 0 3.354 3.354 0 0 1 6.708 0M535.018 247.79a3.353 3.353 0 1 1-6.708 0 3.353 3.353 0 1 1 6.708 0M501.373 199.367a3.353 3.353 0 1 1-6.708 0 3.354 3.354 0 0 1 6.708 0M472.131 446.092a3.353 3.353 0 1 1-6.708 0 3.353 3.353 0 1 1 6.708 0M402.641 438.23a3.353 3.353 0 1 1-6.708 0 3.353 3.353 0 1 1 6.708 0M497.914 375.659a3.354 3.354 0 1 1-6.708 0 3.354 3.354 0 0 1 6.708 0M404.528 514.952a3.353 3.353 0 1 1-6.708 0 3.353 3.353 0 1 1 6.708 0M514.894 620.497a3.353 3.353 0 1 1-6.708 0 3.353 3.353 0 1 1 6.708 0M508.5 146.751a3.353 3.353 0 1 1-6.708 0 3.354 3.354 0 0 1 6.708 0M445.195 50.325a3.353 3.353 0 1 1-6.708 0 3.355 3.355 0 0 1 6.708 0M322.042 208.38a3.353 3.353 0 1 1-6.708 0 3.353 3.353 0 1 1 6.708 0M297.306 258.69a3.353 3.353 0 1 1-6.708 0 3.353 3.353 0 1 1 6.708 0M307.787 139.624a3.353 3.353 0 1 1-6.707 0 3.353 3.353 0 1 1 6.707 0M295.577 38.325a3.353 3.353 0 1 1-6.708 0 3.354 3.354 0 0 1 6.708 0"/>
                    <path stroke="#FFF" stroke-width=".744" d="M468.777 446.092l-70.054-7.331-17.698-105.51M303.424 139.928l15.264 68.453"/>
                </g>
                <g fill="url(#u)" opacity=".05" transform="translate(290 70)">
                    <path d="M872.383 270.669l150.466-3.165v-33.387l-21.868-131.722zM872.383 270.669l-122.58 65.545 35.028 42.348z"/>
                    <path d="M895.56 256.55l97.05 30.582-186.69 148.683zM662.693 132.626l63.162-96.715 140.07 21.681zM232.808 321.336l7.6 89.187-95.897-28.96z"/>
                    <path d="M748.65 334.593l33.134-268.555 40.308 138.89zM.211 322.43v148.302l228.775-204.826zM879.883 158.295L865.925 57.592l81.18 29.614z"/>
                    <path d="M1019.181.964L783.56 66.316l37.174 137.438zM172.205 133.12l92.388 112.91 68.091-94.073zM53.68 390.454l7.018-173.515 56.253 116.232z"/>
                    <path d="M25.078 274.01l63.39-96.253 80.679 70.583z"/>
                    <path d="M184.955 188.149L86.156 42.265l57.66 300.315z"/>
                </g>
            </g>
        </g>
        <g mask="url(#b)" opacity=".8">
            <g transform="translate(0 -17)">
                <use fill="#000" filter="url(#v)" xlink:href="#w"/>
                <use fill="#FFF" xlink:href="#w"/>
            </g>
            <g transform="translate(0 -17)">
                <use fill="#000" filter="url(#x)" xlink:href="#y"/>
                <use fill="#FFF" xlink:href="#y"/>
            </g>
            <g transform="translate(0 -17)">
                <use fill="#000" filter="url(#z)" xlink:href="#A"/>
                <use fill="#FFF" xlink:href="#A"/>
            </g>
            <g transform="translate(0 -17)">
                <use fill="#000" filter="url(#B)" xlink:href="#C"/>
                <use fill="#FFF" xlink:href="#C"/>
            </g>
            <g transform="translate(0 -17)">
                <use fill="#000" filter="url(#D)" xlink:href="#E"/>
                <use fill="#FFF" xlink:href="#E"/>
            </g>
            <g transform="translate(0 -17)">
                <use fill="#000" filter="url(#F)" xlink:href="#G"/>
                <use fill="#FFF" xlink:href="#G"/>
            </g>
            <g transform="translate(0 -17)">
                <use fill="#000" filter="url(#H)" xlink:href="#I"/>
                <use fill="#FFF" xlink:href="#I"/>
            </g>
            <g transform="translate(0 -17)">
                <use fill="#000" filter="url(#J)" xlink:href="#K"/>
                <use fill="#FFF" xlink:href="#K"/>
            </g>
            <g transform="translate(0 -17)">
                <use fill="#000" filter="url(#L)" xlink:href="#M"/>
                <use fill="#FFF" xlink:href="#M"/>
            </g>
            <g transform="translate(0 -17)">
                <use fill="#000" filter="url(#N)" xlink:href="#O"/>
                <use fill="#FFF" xlink:href="#O"/>
            </g>
            <g transform="translate(0 -17)">
                <use fill="#000" filter="url(#P)" xlink:href="#Q"/>
                <use fill="#FFF" xlink:href="#Q"/>
            </g>
            <g transform="translate(0 -17)">
                <use fill="#000" filter="url(#R)" xlink:href="#S"/>
                <use fill="#FFF" xlink:href="#S"/>
            </g>
            <g transform="translate(0 -17)">
                <use fill="#000" filter="url(#T)" xlink:href="#U"/>
                <use fill="#FFF" xlink:href="#U"/>
            </g>
            <g transform="translate(0 -17)">
                <use fill="#000" filter="url(#V)" xlink:href="#W"/>
                <use fill="#FFF" xlink:href="#W"/>
            </g>
            <g transform="translate(0 -17)">
                <use fill="#000" filter="url(#X)" xlink:href="#Y"/>
                <use fill="#FFF" xlink:href="#Y"/>
            </g>
            <g transform="translate(0 -17)">
                <use fill="#000" filter="url(#Z)" xlink:href="#aa"/>
                <use fill="#FFF" xlink:href="#aa"/>
            </g>
            <g transform="translate(0 -17)">
                <use fill="#000" filter="url(#ab)" xlink:href="#ac"/>
                <use fill="#FFF" xlink:href="#ac"/>
            </g>
            <path stroke="#FFF" stroke-width=".5" d="M215.659 129.085l60.299 122.737-97.552 177.088M112.108 343.454l-21.87-28.17-39.99 66.749M986.482 174.094l-73.22 94.78-118.084 1.572" opacity=".2"/>
        </g>
    </g>
</svg>
