<svg xmlns="http://www.w3.org/2000/svg" width="28" height="28" viewBox="0 0 28 28">
    <g fill="none" fill-rule="evenodd" transform="translate(2 2)">
        <circle cx="12" cy="12" r="13" fill="#1C435B" stroke="#FCAF38" stroke-width="2"/>
        <path fill="#FFF" fill-rule="nonzero" d="M17.969 10.432c.25-1.68-1.021-2.585-2.76-3.188l.565-2.277-1.377-.346-.548 2.218a57.22 57.22 0 0 0-1.103-.262l.553-2.232L11.923 4l-.564 2.277a45.76 45.76 0 0 1-.879-.208l.002-.008-1.898-.477-.366 1.48s1.02.236 1 .251c.557.14.657.512.64.806l-.641 2.595c.038.01.088.024.143.046l-.146-.036-.9 3.634c-.068.17-.24.427-.63.33.013.02-1-.252-1-.252L6 16.025l1.79.45c.334.084.66.172.982.255l-.57 2.303 1.375.346.564-2.28c.376.103.74.198 1.097.287l-.562 2.269 1.376.345.57-2.3c2.346.448 4.111.268 4.854-1.87.598-1.722-.03-2.715-1.265-3.362.9-.21 1.577-.805 1.758-2.036zm-3.01 4.698c-.398 1.47-3.087.676-3.959.477L11.706 13c.872.2 3.668.597 3.252 2.13zm.004-5.037c-.323 1.494-2.316.735-2.963.549L12.57 8c.647.186 2.73.534 2.393 2.093z"/>
    </g>
</svg>
