<?xml version="1.0" encoding="UTF-8"?>
<svg width="28px" height="28px" viewBox="0 0 28 28" version="1.1" xmlns="http://www.w3.org/2000/svg" xmlns:xlink="http://www.w3.org/1999/xlink">
    <!-- Generator: sketchtool 50.2 (55047) - http://www.bohemiancoding.com/sketch -->
    <title>977B98AC-7A9A-4A4E-B3A1-5E0B86BF584C</title>
    <desc>Created with sketchtool.</desc>
    <defs></defs>
    <g id="Page-2" stroke="none" stroke-width="1" fill="none" fill-rule="evenodd">
        <g id="settings" transform="translate(-21.000000, -278.000000)" fill="#80929D" stroke="#80929D">
            <g id="menu">
                <g id="icon-notification" transform="translate(21.000000, 278.000000)">
                    <path d="M13.8719818,1.99299007 C13.0895779,1.99299007 12.4528729,2.66127044 12.4528729,3.48247516 C12.4528729,3.54700982 12.4633129,3.61057476 12.4718128,3.67215178 C12.5058585,3.91739318 12.3668117,4.17359237 12.1397635,4.24409079 C9.53898773,5.0444466 7.72250986,7.5894685 7.72250986,10.4334056 C7.72250986,13.7370855 5.79442499,16.9802066 4.1776017,19.1180929 C3.95715939,19.4110443 3.88902184,19.7983008 3.99596315,20.1507928 C4.09907028,20.4923756 4.34598229,20.7465869 4.67239582,20.8469041 C6.15488419,21.3056771 8.95429823,21.8527914 13.8719818,21.8527914 C18.7906354,21.8527914 21.5891255,21.3056771 23.0706438,20.8469041 C23.3980274,20.7456172 23.6439693,20.4923756 23.7480466,20.1498231 C23.8549417,19.7983008 23.7868503,19.412014 23.566408,19.1180929 C21.9495847,16.9802066 20.0214537,13.7380552 20.0214537,10.4334056 C20.0214537,7.5904867 18.205022,5.0444466 15.6042462,4.24409079 C15.3781681,4.17461057 15.2352872,3.94124821 15.2693328,3.69595833 C15.2806968,3.6145506 15.2910907,3.55001594 15.2910907,3.48247516 C15.2901668,2.66127044 14.6543856,1.99299007 13.8719818,1.99299007 Z M13.8719818,22.8457815 C9.88997697,22.8457815 6.61655653,22.4843195 4.40464988,21.799166 C3.78212672,21.6075015 3.29209068,21.1031033 3.09433009,20.451696 C2.89190381,19.7834156 3.01958666,19.0555461 3.43589556,18.5014499 C4.68468367,16.852107 6.77648345,13.6100041 6.77648345,10.4334056 C6.77648345,7.28759564 8.70359823,4.45757395 11.5077704,3.41595259 C11.541816,2.07740392 12.589148,1 13.8719818,1 C15.1548617,1 16.2012236,2.07740392 16.2362394,3.41595259 C19.0404115,4.45757395 20.9675263,7.28759564 20.9675263,10.4334056 C20.9675263,13.6109738 23.0602499,16.852107 24.3071903,18.5014499 C24.3071903,18.5014499 24.3071903,18.5014499 24.3081142,18.5014499 C24.723453,19.0545279 24.8521059,19.7834156 24.6496796,20.451696 C24.451919,21.1031033 23.961883,21.6075015 23.3374658,21.799166 C21.7963099,22.2768001 18.9032125,22.8457815 13.8719818,22.8457815 Z" id="Fill-1"></path>
                    <path d="M11.5975891,23.6498613 C11.8219988,24.95447 12.7937509,25.8990735 13.9552542,25.8990735 C15.1331228,25.8990735 16.1155028,24.9280757 16.3225598,23.6498613 C15.6358813,23.6817925 14.8547739,23.6972205 13.9552542,23.6972205 C13.0595907,23.6972205 12.2823395,23.6817925 11.5975891,23.6498613 Z M13.9552542,27 C12.0964914,27 10.5844068,25.2715239 10.5844068,23.1467572 C10.5844068,22.9948423 10.6392865,22.8120713 10.7346559,22.7096658 C10.8309658,22.60511 10.9600061,22.4994254 11.0929025,22.5214116 C11.8893875,22.57205 12.8264812,22.596294 13.9552542,22.596294 C15.0840273,22.596294 16.0220615,22.57205 16.817606,22.5214116 C16.9591552,22.4994254 17.0786021,22.5665668 17.1758526,22.6711764 C17.2721625,22.7757321 17.3261017,22.9199599 17.3261017,23.0707998 L17.3261017,23.1467572 C17.3261017,25.2715239 15.814017,27 13.9552542,27 Z" id="Fill-4"></path>
                </g>
            </g>
        </g>
    </g>
</svg>