<svg xmlns="http://www.w3.org/2000/svg" width="16" height="16" viewBox="0 0 16 16">
    <g fill="#FFF" fill-rule="nonzero" stroke="#FFF" stroke-width=".5" opacity=".2">
        <path d="M12.11 8.258a.557.557 0 0 0-.556.557v4.221c0 .47-.382.85-.851.85h-7.74a.852.852 0 0 1-.85-.85V5.297c0-.469.382-.85.85-.85h4.222a.557.557 0 0 0 0-1.114H2.964C1.88 3.333 1 4.214 1 5.297v7.74C1 14.118 1.88 15 2.964 15h7.739c1.083 0 1.964-.88 1.964-1.964V8.815a.557.557 0 0 0-.557-.557zM14.416 1H9.984a.584.584 0 1 0 0 1.168h3.848v3.848a.584.584 0 1 0 1.168 0V1.584A.584.584 0 0 0 14.416 1z"/>
        <path d="M14.837 1.163a.557.557 0 0 0-.789 0L6.297 8.915a.557.557 0 1 0 .788.788l7.752-7.751a.557.557 0 0 0 0-.789z"/>
    </g>
</svg>
