<svg xmlns="http://www.w3.org/2000/svg" width="40" height="40" viewBox="0 0 40 40">
    <g fill="none" fill-rule="evenodd" opacity=".6">
        <path fill="#FFF" fill-rule="nonzero" d="M20.023 26c1.11 0 2.024.904 1.975 2.048.049 1.04-.914 1.952-1.975 1.952-1.1 0-2.023-.912-2.023-2s.923-2 2.023-2zm-.494-15.938c.942-.246 1.885.255 2.289 1.24.134.353.182.705.182 1.1-.048 1.1-.135 2.2-.182 3.3-.087 1.699-.182 3.397-.27 5.095-.047.554-.047 1.056-.047 1.602-.04.906-.673 1.601-1.481 1.601s-1.434-.651-1.481-1.549c-.135-2.648-.27-5.244-.404-7.893L18 12.464c0-1.152.586-2.103 1.529-2.402z"/>
        <circle cx="20" cy="20" r="18.5" stroke="#FFF" stroke-width="3"/>
    </g>
</svg>
