<svg xmlns="http://www.w3.org/2000/svg" width="16" height="16" viewBox="0 0 16 16">
    <g fill="#032E49" fill-rule="nonzero">
        <path d="M6.09 8.462c-.296.503-.61.992-.984 1.432-.881 1.036-2.032 1.312-3.272 1.241-1.115-.063-1.11 1.868 0 1.931 2.331.133 3.979-.993 5.291-2.91a17.809 17.809 0 0 1-.598-.937c-.15-.252-.296-.508-.437-.757zM8.674 6.965c.125.194.249.386.374.573.229-.312.473-.613.747-.893.694-.707 1.484-.998 2.351-1.08l-.163.197c-.317.372-.37.897 0 1.263.325.322.96.373 1.278 0 .489-.574.956-1.166 1.445-1.74.318-.316.44-.842.046-1.263L13.125 2.28c-.792-.847-2.067.418-1.278 1.263l.211.226c-.887.063-1.742.286-2.53.792-.59.379-1.086.865-1.528 1.398.089.123.178.248.265.379.14.209.276.421.409.627z"/>
        <path d="M12.962 8.775a.773.773 0 0 0-.61-.271c-.247 0-.5.098-.668.271-.37.38-.317.926 0 1.313l.164.205c-.867-.085-1.657-.387-2.35-1.122a9.625 9.625 0 0 1-1.04-1.36c-.302-.463-.585-.94-.886-1.409-.057-.089-.116-.175-.175-.261-1.348-1.987-3.034-3.218-5.442-3.218-.125 0-.253.003-.383.01-1.141.06-1.165 1.858-.056 1.858l.056-.001c.125-.007.249-.01.372-.01 1.155 0 2.217.303 3.05 1.203.512.554.916 1.188 1.312 1.829.187.304.373.609.568.908.167.258.341.513.523.763.517.71 1.104 1.367 1.833 1.854.788.527 1.642.758 2.53.824l-.212.235c-.605.673.004 1.604.678 1.604.204 0 .415-.086.6-.292l1.626-1.81c.394-.438.272-.985-.046-1.314-.489-.597-.955-1.212-1.444-1.809z"/>
    </g>
</svg>
