<svg xmlns="http://www.w3.org/2000/svg" width="16" height="16" viewBox="0 0 16 16">
    <g fill="#FFF">
        <path d="M14.325 11.896c-.277-.206-.668-.148-.874.129-.114.152-.235.301-.36.444-.23.258-.205.653.054.882.119.105.266.157.413.157.173 0 .345-.072.469-.211.149-.169.292-.346.427-.526.206-.277.148-.669-.129-.875zM15.37 8.965c-.337-.073-.67.14-.743.478-.04.185-.09.371-.145.552-.102.33.082.68.412.782.062.02.124.028.185.028.267 0 .514-.172.597-.44.066-.216.124-.436.172-.656.074-.337-.14-.67-.478-.744zM11.317 13.898c-.166.093-.338.18-.51.257-.315.142-.455.512-.313.827.104.231.332.368.57.368.086 0 .173-.018.257-.056.205-.092.408-.195.605-.305.302-.168.41-.549.241-.85-.168-.301-.549-.41-.85-.241zM7.375 3v4.741l-2.292 2.292c-.244.244-.244.64 0 .884.122.122.282.183.442.183.16 0 .32-.061.442-.183l2.475-2.475c.117-.117.183-.276.183-.442V3c0-.345-.28-.625-.625-.625s-.625.28-.625.625z"/>
        <path d="M15.375 1.344c-.345 0-.625.28-.625.625v1.735C13.295 1.423 10.755 0 8 0 5.863 0 3.854.832 2.343 2.343.833 3.854 0 5.863 0 8s.832 4.146 2.343 5.657C3.854 15.167 5.863 16 8 16h.031c.226 0 .453-.01.676-.028.344-.029.6-.331.571-.675-.029-.344-.33-.6-.675-.57-.189.015-.381.023-.572.023H8c-3.722 0-6.75-3.028-6.75-6.75S4.278 1.25 8 1.25c2.399 0 4.605 1.279 5.81 3.313h-1.718c-.345 0-.625.28-.625.625s.28.625.625.625H14c.38 0 .737-.107 1.04-.293.02-.01.038-.023.056-.036.544-.358.904-.973.904-1.671V1.968c0-.345-.28-.625-.625-.625z"/>
    </g>
</svg>
