<svg xmlns="http://www.w3.org/2000/svg" xmlns:xlink="http://www.w3.org/1999/xlink" width="22" height="22" viewBox="0 0 22 22">
    <defs>
        <radialGradient id="a" fx="50%" fy="50%">
            <stop offset="0%" stop-color="#A36F1E"/>
            <stop offset="100%" stop-color="#0B2B4D"/>
        </radialGradient>
        <path id="b" d="M0 0h9v12H0z"/>
    </defs>
    <g fill="none" fill-rule="evenodd">
        <circle cx="11" cy="11" r="9.8" fill="url(#a)" stroke="#FCAF38" stroke-width="2"/>
        <g transform="translate(6 5)">
            <mask id="c" fill="#fff">
                <use xlink:href="#b"/>
            </mask>
            <path fill="#FFF" d="M6.937 4.806c-.29 1.174-2.087.577-2.67.431l.514-2.076c.583.146 2.46.42 2.156 1.645m-.319 3.35c-.319 1.29-2.477.593-3.177.417l.567-2.289c.7.176 2.944.525 2.61 1.871m2.358-3.33c.188-1.262-.765-1.94-2.069-2.392L7.33.725 6.298.466 5.886 2.13c-.27-.068-.55-.132-.826-.196L5.474.26 4.443 0 4.02 1.707a34.32 34.32 0 0 1-.66-.156l.002-.005-1.424-.358-.274 1.11s.765.177.749.188c.418.105.494.384.481.605l-.482 1.946c.03.007.067.018.108.034l-.109-.027-.675 2.726c-.051.128-.181.32-.473.247.01.015-.75-.189-.75-.189L0 9.018l1.344.338c.25.064.494.13.735.191l-.427 1.728 1.03.26.424-1.71c.282.077.555.148.822.215l-.421 1.7 1.032.26.427-1.724c1.76.335 3.084.2 3.64-1.403.45-1.291-.021-2.036-.947-2.522.674-.157 1.182-.604 1.317-1.527" mask="url(#c)"/>
        </g>
    </g>
</svg>
