<svg xmlns="http://www.w3.org/2000/svg" width="22" height="22" viewBox="0 0 22 22">
    <defs>
        <radialGradient id="a" fx="50%" fy="50%">
            <stop offset="0%" stop-color="#2E9AD0"/>
            <stop offset="100%" stop-color="#0B2B4D"/>
        </radialGradient>
    </defs>
    <g fill="none" fill-rule="evenodd">
        <circle cx="9" cy="9" r="10" fill="url(#a)" stroke="#2E9AD0" stroke-width="2" transform="translate(2 2)"/>
        <path fill="#FFF" fill-rule="nonzero" d="M16.423 14.73a.543.543 0 0 0-.373.144l-1.02-.921.784-2.535h.028c.102 0 .195-.04.276-.119a.41.41 0 0 0 .118-.301.418.418 0 0 0-.118-.297.388.388 0 0 0-.276-.12h-.028l-.686-2.216a.39.39 0 0 0 .134-.144.448.448 0 0 0 .053-.204.418.418 0 0 0-.118-.297.381.381 0 0 0-.54-.02l-1.81-1.372.025-.073c.002-.023.003-.053.003-.085a.418.418 0 0 0-.118-.297.38.38 0 0 0-.276-.123.455.455 0 0 0-.252.09.359.359 0 0 0-.138.229H9.895a.438.438 0 0 0-.138-.226.372.372 0 0 0-.243-.093.37.37 0 0 0-.284.123.414.414 0 0 0-.118.297c0 .032.002.061.008.085.006.027.011.05.02.073L7.33 7.699a.493.493 0 0 0-.114-.076.6.6 0 0 0-.142-.026.37.37 0 0 0-.284.123.414.414 0 0 0-.118.297c0 .08.017.148.053.204a.34.34 0 0 0 .134.144h.007L6.18 10.57h-.028a.37.37 0 0 0-.284.123.413.413 0 0 0-.118.297c0 .12.039.22.118.298.075.082.17.123.284.123h.02l.694 2.225a.392.392 0 0 0-.195.348c0 .119.039.219.118.297.075.083.17.123.284.123a.409.409 0 0 0 .142-.026.412.412 0 0 0 .114-.068l1.81 1.363-.02.077a.406.406 0 0 0 .11.378.385.385 0 0 0 .528.034.362.362 0 0 0 .138-.23h2.196a.327.327 0 0 0 .138.23.383.383 0 0 0 .528-.034.408.408 0 0 0 .117-.297l-.002-.081a1.504 1.504 0 0 1-.025-.077l2.066-1.558 1.01.913a.474.474 0 0 0-.06.144.51.51 0 0 0-.02.166.562.562 0 0 0 .17.425c.111.118.248.178.41.178.157 0 .293-.06.406-.178a.61.61 0 0 0 .171-.425.64.64 0 0 0-.17-.433.551.551 0 0 0-.407-.174zm-1.44-6.178l.645 2.097a.34.34 0 0 0-.11.107.384.384 0 0 0-.065.14h-.333a.41.41 0 0 0-.093-.187.622.622 0 0 0-.171-.119l.126-2.038zm-.188-.136l-.138 2.165h-.01a.042.042 0 0 0-.017.01l-.824-1.64a.363.363 0 0 0 .101-.136.511.511 0 0 0 .037-.174l-.003-.03a.052.052 0 0 1-.002-.042l.665-.297c.023.031.05.06.09.085a.13.13 0 0 0 .097.05l.004.009zm-2.244 2.174a.402.402 0 0 0-.07-.005l-.056.002a.2.2 0 0 1-.061.012l-1.096-1.996a.226.226 0 0 0 .053-.068l.044-.076 1.774.233c.002.06.02.11.049.15a.31.31 0 0 0 .097.118l-.734 1.63zm.913-1.537l.04.002c.01.007.02.01.037.003a.096.096 0 0 0 .045-.003c.014-.001.03-.008.053-.017l.824 1.643a.308.308 0 0 0-.078.098.224.224 0 0 0-.04.115h-1.478l-.048-.115a.705.705 0 0 0-.082-.098l.727-1.628zM12.198 10.7a.303.303 0 0 0-.061.09.714.714 0 0 0-.045.106H9.896a.26.26 0 0 0-.04-.107L9.79 10.7l1.104-1.995.044.002a.085.085 0 0 0 .057.003.13.13 0 0 0 .053-.003.417.417 0 0 1 .053-.002l1.096 1.995zm-2.574-.102a.185.185 0 0 1-.057-.011.502.502 0 0 0-.053-.003c-.016 0-.03.002-.04.003-.017.006-.03.009-.037.002l-.734-1.63a.418.418 0 0 0 .146-.268l1.774-.246c.014.04.028.07.044.09.011.028.029.051.053.067l-1.096 1.996zm-.365.085a.283.283 0 0 0-.081.09.236.236 0 0 0-.045.123h-1.47c-.016-.036-.033-.073-.048-.11a.532.532 0 0 0-.081-.094l.824-1.64c.014 0 .028.003.044.004.014.006.03.008.053.002a.082.082 0 0 0 .04-.002.267.267 0 0 1 .041-.003l.723 1.63zm-1.595.42H9.12a.29.29 0 0 0 .057.124c.02.037.045.067.08.09l-.734 1.63h-.122c-.016.002-.031.009-.044.011l-.824-1.652a.322.322 0 0 0 .081-.093 2.34 2.34 0 0 0 .049-.11zm1.773.307l.037.002a.034.034 0 0 0 .04.003c.02.006.038.003.057-.003a.232.232 0 0 0 .053-.011l1.096 1.987a.214.214 0 0 0-.053.072 1.793 1.793 0 0 1-.044.08l-1.774-.233a.844.844 0 0 0-.049-.148.763.763 0 0 0-.097-.12l.734-1.63zm.354-.11c.022-.024.042-.056.064-.09a.236.236 0 0 0 .041-.106h2.196c.002.04.017.075.04.106.02.034.041.065.066.09l-1.096 1.986a.112.112 0 0 1-.05-.002.185.185 0 0 0-.113 0 .153.153 0 0 1-.053.011v-.008l-1.095-1.988zm2.573.101c.022.006.04.012.057.012.014.009.03.011.053.002.014.007.032.003.048-.002a.267.267 0 0 1 .041-.003h-.011l.735 1.63a.526.526 0 0 0-.094.12.355.355 0 0 0-.04.148l-1.786.233a.214.214 0 0 1-.037-.08l-.049-.073 1.083-1.987zm.365-.085a.377.377 0 0 0 .082-.089.5.5 0 0 0 .056-.123h1.478c.014.04.03.077.049.11a.158.158 0 0 0 .081.085l-.844 1.66c-.017-.006-.032-.008-.045-.011h-.121l-.736-1.632zm.009-4.828l1.802 1.376a.312.312 0 0 0-.017.072.31.31 0 0 0-.01.08c-.003.018-.002.03.002.035a.08.08 0 0 1 .008.038v-.012l-.67.31a.667.667 0 0 0-.133-.118.37.37 0 0 0-.179-.047h-.036c-.02.003-.034.009-.041.012h.008L12.73 6.5V6.5c0-.007.001-.01.008-.01zm-.41.072c.022.012.046.02.073.02a.267.267 0 0 0 .073.01c.011.006.025.002.041-.003a.181.181 0 0 1 .036-.003l.747 1.733a.185.185 0 0 0-.077.076.491.491 0 0 0-.053.098l-1.782-.246a.393.393 0 0 0-.077-.204l1.019-1.48zm-2.431-.284h2.195c.002.029.012.056.029.08.014.032.03.059.049.081l-1.04 1.465a.4.4 0 0 1-.06-.011 1.153 1.153 0 0 0-.074-.003c-.03 0-.058.002-.081.003a.29.29 0 0 0-.07.026v-.012L9.82 6.44c.014-.023.033-.048.049-.076a.21.21 0 0 0 .028-.086v-.002zm-.382.314a.326.326 0 0 0 .077-.009.187.187 0 0 0 .07-.02l1.03 1.478a.24.24 0 0 0-.06.093.345.345 0 0 0-.03.11l-1.781.247-.049-.098a.818.818 0 0 0-.069-.076l.743-1.733.028.003a.034.034 0 0 0 .04.002l.001.003zm-.256-.102v.01c0 .005.003.008.011.002l-.747 1.732-.032-.011h-.037a.328.328 0 0 0-.178.046.437.437 0 0 0-.134.119l-.678-.31c.005-.002.01-.012.012-.03v-.038a5.686 5.686 0 0 0-.012-.08.3.3 0 0 1-.016-.064l1.811-1.376zM7.388 8.272l.678.297a.098.098 0 0 0-.011.042v.043a.296.296 0 0 0 .036.161c.022.06.055.105.102.136l-.824 1.64H7.348l-.146-2.183a.33.33 0 0 0 .11-.06.323.323 0 0 0 .077-.076h-.001zm-.373 5.176L6.36 11.35a.438.438 0 0 0 .175-.246h.353a.42.42 0 0 0 .097.178.37.37 0 0 0 .158.119h.008l-.137 2.047zm-.126-2.552h-.353a.351.351 0 0 0-.057-.149 1.255 1.255 0 0 0-.11-.106l.646-2.09.138 2.048a.447.447 0 0 0-.264.297zm.312 2.696l.146-2.182h.02l.824 1.639a.372.372 0 0 0-.101.136.352.352 0 0 0-.037.174v.034c0 .011.003.023.011.038l-.678.297a.765.765 0 0 0-.08-.085c-.031-.015-.067-.034-.106-.05H7.2zm2.058 1.92l-1.81-1.364a.75.75 0 0 0 .028-.157v-.038a4.765 4.765 0 0 1-.012-.043v.012l.67-.31a.398.398 0 0 0 .312.165h.041a.08.08 0 0 0 .036-.011l.747 1.732-.01.012-.002.001zm.402-.073a.194.194 0 0 1-.069-.02c-.03-.002-.056-.006-.077-.01-.017 0-.03.003-.04.004-.017.006-.03.008-.037.002h.008l-.743-1.732a.573.573 0 0 0 .07-.077c.013-.026.032-.06.048-.097h.009l1.774.233a.27.27 0 0 0 .028.115.316.316 0 0 0 .06.102l-.178.246-.853 1.234zm2.431.285H9.896a.53.53 0 0 0-.028-.085.55.55 0 0 0-.049-.077l1.027-1.486a.11.11 0 0 0 .07.026c.022.006.05.009.08.003a.29.29 0 0 0 .078-.003.161.161 0 0 0 .077-.026h-.009l1.027 1.486a1.96 1.96 0 0 0-.048.08.241.241 0 0 0-.029.081zm.46-.306c-.018.003-.03.002-.037-.003a.402.402 0 0 0-.041-.002c-.028.002-.052.006-.073.008a.202.202 0 0 1-.073.02l-1.032-1.477a.812.812 0 0 0 .065-.102.357.357 0 0 0 .025-.114l1.782-.234a.28.28 0 0 0 .053.093c.02.032.04.059.065.081l-.714 1.669-.02.06zm.186.093h-.009V15.5l.02-.051.722-1.682c.002.01.014.012.033.012h.036a.402.402 0 0 0 .179-.043.335.335 0 0 0 .134-.114v-.01l.864.391-1.98 1.508zm1.197-2.08a.071.071 0 0 1 .003-.038.465.465 0 0 0-.034-.204.717.717 0 0 0-.102-.14l.836-1.648h.014l.15 2.429-.867-.4zm.922-2.043a.445.445 0 0 0 .166-.11.388.388 0 0 0 .085-.174h.345a.336.336 0 0 0 .065.14.261.261 0 0 0 .11.106l-.646 2.098-.125-2.06z"/>
    </g>
</svg>
