<svg xmlns="http://www.w3.org/2000/svg" width="40" height="40" viewBox="0 0 40 40">
    <g fill="none" fill-rule="evenodd" opacity=".6">
        <g fill="#39FDF2">
            <path d="M7.896.59l5.726 5.091c.413.367.45 1 .083 1.412-.026.03-.054.057-.083.083l-.195.173c-.379.337-.949.337-1.328.001L8.437 4.103v10.273c.005.032.007.066.007.1l.02 4.435c0 .557-.447 1.004-1 1.004H7.06c-.553 0-1-.447-1-1v-.994l-.033.014V4.104L2.364 7.35c-.38.336-.95.336-1.328 0l-.195-.174C.428 6.81.391 6.177.758 5.764c.026-.029.054-.057.083-.083L6.567.591c.379-.337.95-.337 1.329 0z" transform="translate(8.07 9.5)"/>
            <path d="M17.441 20.091l5.726-5.09c.413-.367.45-1 .083-1.412-.026-.03-.053-.057-.083-.083l-.195-.173c-.378-.337-.948-.337-1.327-.001l-3.663 3.247V6.306c.005-.033.008-.066.008-.1l.02-4.435c0-.557-.448-1.004-1-1.004h-.406c-.552 0-1 .447-1 1v2.877l-.032-.001v11.935l-3.663-3.246c-.379-.336-.95-.336-1.328 0l-.195.174c-.412.367-.45.999-.083 1.412.026.029.054.057.083.083l5.726 5.09c.38.337.95.337 1.33 0z" transform="translate(8.07 9.5)"/>
        </g>
        <circle cx="20" cy="20" r="18.5" stroke="#39FDF2" stroke-width="3"/>
    </g>
</svg>
