<svg xmlns="http://www.w3.org/2000/svg" width="22" height="22" viewBox="0 0 22 22">
    <g fill="#FFF" fill-rule="nonzero" stroke="#FFF">
        <path stroke-width=".2" d="M11 12.5c-.827 0-1.5.676-1.5 1.507 0 .413.17.811.468 1.095v1.361c0 .572.463 1.037 1.032 1.037s1.032-.465 1.032-1.037v-1.361c.297-.284.468-.682.468-1.095 0-.83-.673-1.507-1.5-1.507zm.53 2.073a.72.72 0 0 0-.225.52v1.37c0 .17-.137.307-.305.307a.306.306 0 0 1-.305-.307v-1.37a.72.72 0 0 0-.226-.52.776.776 0 0 1 .53-1.343.776.776 0 0 1 .532 1.343z"/>
        <path stroke-width=".6" d="M16.21 9.469h-1.291V6.22C14.919 4.17 13.16 2.5 11 2.5c-2.16 0-3.919 1.67-3.919 3.721V9.47h-1.29c-.712 0-1.291.55-1.291 1.225v7.58c0 .676.579 1.226 1.29 1.226h10.42c.711 0 1.29-.55 1.29-1.226v-7.58c0-.676-.579-1.225-1.29-1.225zM7.941 6.22c0-1.601 1.372-2.904 3.058-2.904 1.686 0 3.058 1.303 3.058 2.904V9.47H7.942V6.22zm8.698 12.053a.42.42 0 0 1-.43.409H5.79a.42.42 0 0 1-.43-.409v-7.58a.42.42 0 0 1 .43-.408h10.42a.42.42 0 0 1 .43.408v7.58z"/>
    </g>
</svg>
