<svg xmlns="http://www.w3.org/2000/svg" width="26" height="26" viewBox="0 0 26 26">
    <g fill="#FFF" fill-rule="evenodd" transform="translate(-.125 -.125)">
        <circle cx="13.25" cy="13.25" r="12.25" fill-opacity=".1"/>
        <g fill-rule="nonzero">
            <path d="M6.708 11.208h11.425l-1.045 1.046a.583.583 0 1 0 .824.825l2.042-2.042a.583.583 0 0 0 0-.824L17.912 8.17a.583.583 0 1 0-.824.825l1.046 1.046H6.708a.584.584 0 0 0 0 1.166zM19.542 15.692H8.116l1.046-1.046a.583.583 0 1 0-.824-.825l-2.042 2.042a.583.583 0 0 0 0 .824l2.042 2.042a.58.58 0 0 0 .824 0 .583.583 0 0 0 0-.825l-1.046-1.046h11.426a.584.584 0 0 0 0-1.166z"/>
        </g>
    </g>
</svg>
