<svg xmlns="http://www.w3.org/2000/svg" width="40" height="40" viewBox="0 0 40 40">
    <g fill="#00F6D2" fill-rule="nonzero" opacity=".6">
        <path d="M26.157 18.221l-8.837-4.785a1.624 1.624 0 0 0-1.607.027 1.59 1.59 0 0 0-.795 1.382v9.489c0 .57.295 1.086.79 1.378a1.632 1.632 0 0 0 1.602.036l8.837-4.703c.524-.28.852-.819.854-1.409a1.603 1.603 0 0 0-.844-1.415zm-8.895 4.919v-7.092l6.604 3.577-6.604 3.515z"/>
        <path d="M39.706 12.077l-.002-.018c-.034-.319-.371-3.153-1.763-4.595-1.61-1.695-3.434-1.901-4.311-2l-.199-.024-.07-.007c-5.288-.38-13.274-.432-13.354-.433h-.014c-.08 0-8.066.053-13.402.433l-.07.007c-.057.008-.12.015-.188.023-.867.099-2.672.305-4.286 2.062C.721 8.951.338 11.725.3 12.036l-.005.04C.282 12.21 0 15.367 0 18.536v2.962a81.4 81.4 0 0 0 .294 6.458l.002.02c.034.314.371 3.096 1.757 4.538 1.513 1.64 3.426 1.856 4.455 1.973.163.018.303.034.398.05L7 34.55c3.053.288 12.626.43 13.032.435h.025c.08 0 8.065-.052 13.353-.433l.07-.007c.067-.009.142-.017.225-.025.862-.09 2.657-.279 4.249-2.012 1.326-1.426 1.71-4.2 1.748-4.511l.005-.04c.012-.134.294-3.29.294-6.459v-2.962a81.31 81.31 0 0 0-.294-6.458zm-2.05 9.42c0 2.933-.259 5.954-.283 6.231-.1.764-.504 2.519-1.15 3.214-.996 1.084-2.02 1.192-2.767 1.27-.09.01-.174.018-.25.028-5.114.366-12.799.422-13.153.424-.397-.006-9.83-.148-12.79-.42a10.391 10.391 0 0 0-.488-.063c-.876-.1-2.076-.235-2.998-1.24l-.022-.022c-.634-.655-1.027-2.296-1.127-3.182-.018-.21-.284-3.266-.284-6.24v-2.962c0-2.93.258-5.947.283-6.23.119-.9.531-2.548 1.15-3.215 1.027-1.117 2.11-1.241 2.825-1.323l.191-.022c5.19-.368 12.93-.423 13.207-.425.278.002 8.015.057 13.158.425l.206.024c.737.083 1.85.208 2.871 1.287l.01.01c.634.654 1.027 2.324 1.127 3.228.018.198.284 3.26.284 6.24v2.963z"/>
    </g>
</svg>
