<?xml version="1.0" encoding="UTF-8"?>
<svg width="28px" height="28px" viewBox="0 0 28 28" version="1.1" xmlns="http://www.w3.org/2000/svg" xmlns:xlink="http://www.w3.org/1999/xlink">
    <!-- Generator: sketchtool 50.2 (55047) - http://www.bohemiancoding.com/sketch -->
    <title>EDC9A20E-B691-4678-AD53-4B64EF84F94C</title>
    <desc>Created with sketchtool.</desc>
    <defs></defs>
    <g id="Page-2" stroke="none" stroke-width="1" fill="none" fill-rule="evenodd">
        <g id="settings" transform="translate(-21.000000, -212.000000)" fill="#80929D" fill-rule="nonzero" stroke="#80929D">
            <g id="menu">
                <g id="wallet" transform="translate(21.000000, 212.000000)">
                    <path d="M27,13.1118683 L25.7399002,13.1118683 L25.7399002,7.37352333 C25.7399002,5.99780814 24.6093631,4.87861776 23.2197005,4.87861776 L21.5130326,4.87861776 L19.7665234,1.76996261 C19.5003394,1.2948793 18.993774,1 18.4443871,1 C18.1883203,1 17.9342926,1.06537345 17.709989,1.18858921 L11.0072335,4.87854012 L3.52019969,4.87854012 C2.13053708,4.87854012 1,5.9977305 1,7.37344569 L1,24.5050944 C1,25.8808096 2.13053708,27 3.52019969,27 L23.2197005,27 C24.6093631,27 25.7399002,25.8808096 25.7399002,24.5050944 L25.7399002,19.4738231 L27,19.4738231 L27,13.1118683 Z M23.2197005,5.8765334 C23.9959006,5.8765334 24.6299896,6.46031367 24.7151622,7.20729464 L22.8209734,7.20729464 L22.0739484,5.8765334 L23.2197005,5.8765334 Z M18.2003982,2.0608046 C18.4367796,1.92959185 18.7548829,2.02136313 18.8853868,2.25444045 L21.6676923,7.2068288 L8.85195843,7.2068288 L18.2003982,2.0608046 Z M24.7317889,24.5050944 C24.7317889,25.3304148 24.0533098,26.0020844 23.219622,26.0020844 L3.52019969,26.0020844 C2.68651192,26.0020844 2.00803282,25.3304148 2.00803282,24.5050944 L2.00803282,7.37352333 C2.00803282,6.54820292 2.68651192,5.8765334 3.52019969,5.8765334 L9.19468802,5.8765334 L6.77730721,7.20737228 L3.83524426,7.20737228 C3.55651177,7.20737228 3.33118863,7.4308998 3.33118863,7.70636892 C3.33118863,7.98183805 3.55651177,8.20536557 3.83524426,8.20536557 L4.96429121,8.20536557 L23.3814971,8.20536557 L24.7317889,8.20536557 L24.7317889,13.1123341 L21.0457596,13.1123341 C19.3339939,13.1123341 17.9408805,14.4915431 17.9408805,16.186051 L17.9408805,16.4006498 C17.9408805,18.0952353 19.3340724,19.4743666 21.0457596,19.4743666 L24.7317889,19.4743666 L24.7317889,24.5050944 Z M25.9918888,18.4759075 L25.7399002,18.4759075 L21.0457596,18.4759075 C19.8894982,18.4759075 18.9489133,17.5448405 18.9489133,16.4001063 L18.9489133,16.1855075 C18.9489133,15.0408509 19.8894198,14.1097063 21.0457596,14.1097063 L25.7399002,14.1097063 L25.9918888,14.1097063 L25.9918888,18.4759075 Z M22.5896113,16.3338012 C22.5896113,16.9425817 22.0915946,17.4355224 21.4767205,17.4355224 C20.8617679,17.4355224 20.3638297,16.9425041 20.3638297,16.3338012 C20.3638297,15.7250982 20.8618464,15.2320799 21.4767205,15.2320799 C22.0916731,15.2320023 22.5896113,15.7254864 22.5896113,16.3338012 Z" id="Shape"></path>
                </g>
            </g>
        </g>
    </g>
</svg>