<svg xmlns="http://www.w3.org/2000/svg" width="16" height="16" viewBox="0 0 16 16">
    <g fill="#FFF" fill-rule="nonzero">
        <path d="M13.49 5.152a2.117 2.117 0 0 0-.437-.692l-2.841-2.84c-.17-.17-.4-.316-.692-.438A2.102 2.102 0 0 0 8.719 1H2.89a.843.843 0 0 0-.619.255.843.843 0 0 0-.255.619v12.237c0 .243.085.45.255.62.17.17.377.254.62.254h9.906a.843.843 0 0 0 .619-.255.843.843 0 0 0 .255-.619V5.953a2.1 2.1 0 0 0-.182-.801zM9.01 2.238c.176.06.3.128.373.2l2.85 2.85c.073.073.14.198.2.374H9.01V2.238zm3.496 11.582H3.183V2.165h4.662v3.788c0 .243.084.45.254.62.17.17.377.254.62.254h3.787v6.993z"/>
        <path d="M11.05 10.323H4.64a.284.284 0 0 0-.21.082.284.284 0 0 0-.082.21v.582c0 .085.028.155.082.21a.284.284 0 0 0 .21.082h6.41a.284.284 0 0 0 .209-.082.284.284 0 0 0 .082-.21v-.582a.283.283 0 0 0-.082-.21.284.284 0 0 0-.21-.082zM4.43 8.074a.284.284 0 0 0-.082.21v.583c0 .085.028.154.082.209a.284.284 0 0 0 .21.082h6.41a.283.283 0 0 0 .209-.082.284.284 0 0 0 .082-.21v-.582a.284.284 0 0 0-.082-.21.284.284 0 0 0-.21-.081H4.64a.284.284 0 0 0-.209.081z"/>
    </g>
</svg>
