<svg xmlns="http://www.w3.org/2000/svg" width="40" height="40" viewBox="0 0 40 40">
    <g fill="#9D6EFF" fill-rule="nonzero" opacity=".6">
        <path d="M40 15.864v-.003c0-.034-.002-.067-.005-.1l-.002-.027a1.182 1.182 0 0 0-.039-.196l-.002-.01-.031-.09-.014-.034a1.111 1.111 0 0 0-.028-.06c-.005-.011-.01-.023-.017-.034a1.2 1.2 0 0 0-.046-.08l-.02-.03a1.154 1.154 0 0 0-.128-.157l-.006-.005a1.166 1.166 0 0 0-.076-.07l-.01-.01-1.998-1.658V8.204a2.737 2.737 0 0 0-2.734-2.734h-6.702L22.744.99a4.3 4.3 0 0 0-5.488 0l-5.399 4.48h-6.7a2.737 2.737 0 0 0-2.735 2.734V13.3L.424 14.96l-.01.008a1.166 1.166 0 0 0-.076.07l-.006.006a1.18 1.18 0 0 0-.128.158l-.02.029a1.163 1.163 0 0 0-.046.08c-.007.011-.012.023-.017.034-.01.02-.02.04-.028.06l-.014.034c-.011.03-.022.06-.031.09l-.003.01a1.166 1.166 0 0 0-.038.197l-.002.026a1.225 1.225 0 0 0-.005.1v19.842a4.284 4.284 0 0 0 1.42 3.188A4.28 4.28 0 0 0 4.297 40h31.406a4.28 4.28 0 0 0 2.95-1.177A4.284 4.284 0 0 0 40 35.703V15.865zM5.156 7.814h29.688c.215 0 .39.175.39.39v9.116l-.663.55-13.324 11.058c-.722.6-1.772.6-2.494 0L5.429 17.87l-.663-.55V8.204c0-.215.175-.39.39-.39zM2.344 35.703V18.356l.504.418v.001l11.444 9.496-11.828 8.106a1.943 1.943 0 0 1-.12-.674zm13.823-5.876l1.089.904a4.3 4.3 0 0 0 5.488 0l1.089-.904 11.423 7.829H4.743l11.424-7.829zm9.541-1.556l11.443-9.496h.001l.504-.42v17.348c0 .237-.042.464-.12.674L25.708 28.27zM18.753 2.794c.722-.6 1.772-.6 2.494 0l3.225 2.676h-8.944l3.225-2.676z"/>
        <path d="M10.273 12.89c0 .647.525 1.172 1.172 1.172H22.54a1.172 1.172 0 0 0 0-2.344H11.445c-.647 0-1.172.525-1.172 1.172zM11.445 18.75h17.11a1.171 1.171 0 0 0 0-2.344h-17.11a1.172 1.172 0 0 0 0 2.344z"/>
    </g>
</svg>
