<svg xmlns="http://www.w3.org/2000/svg" width="16" height="16" viewBox="0 0 16 16">
    <g fill="#032E49" fill-rule="nonzero">
        <path d="M15.405 7.401C15.27 7.221 12.078 3 8 3S.729 7.222.595 7.401a.478.478 0 0 0 0 .573c.134.18 3.327 4.401 7.405 4.401s7.27-4.222 7.405-4.401a.477.477 0 0 0 0-.573zM8 10.901c-2.524 0-4.71-2.422-5.357-3.214C3.289 6.895 5.47 4.473 8 4.473c2.524 0 4.71 2.422 5.357 3.215-.646.792-2.828 3.214-5.357 3.214z"/>
        <path d="M8 5.54a2.145 2.145 0 0 0-2.143 2.142c0 1.182.961 2.143 2.143 2.143a2.145 2.145 0 0 0 2.143-2.143A2.145 2.145 0 0 0 8 5.54zM8 8.7a1.021 1.021 0 0 1 0-2.04A1.021 1.021 0 0 1 8 8.7z"/>
    </g>
</svg>
