<svg xmlns="http://www.w3.org/2000/svg" width="40" height="40" viewBox="0 0 40 40">
    <path fill="#00F6D2" fill-rule="nonzero" d="M28.336 11.859c-2.835-2.536-5.283-4.725-5.283-8.453 0-.513-.285-.985-.745-1.232a1.468 1.468 0 0 0-1.464.045l-.229.14c-1.43.879-5.228 3.213-8.736 6.742-4.54 4.568-6.843 9.352-6.843 14.218 0 7.922 6.43 14.398 14.437 14.67.127.007.255.011.383.011l.072-.001L20 38c3.702 0 7.258-1.334 10.013-3.757.59-.52.639-1.408.107-1.986a1.463 1.463 0 0 0-2.032-.105c-.465.41-.958.78-1.475 1.11.237-.69.365-1.427.365-2.192 0-2.68-1.632-4.194-3.073-5.53-1.356-1.256-2.426-2.248-2.426-4.134 0-.548-.326-1.046-.835-1.276a1.466 1.466 0 0 0-1.535.204c-.26.216-6.375 5.351-6.375 10.736 0 .67.098 1.317.281 1.93-3.085-2.153-5.101-5.69-5.101-9.681 0-5.939 4.435-12.103 12.539-17.496.315 1.323.901 2.576 1.766 3.788 1.165 1.631 2.695 3 4.174 4.322 2.914 2.606 5.666 5.068 5.693 9.394a11.502 11.502 0 0 1-.454 3.285 1.402 1.402 0 0 0 .991 1.737c.765.212 1.56-.222 1.777-.969.383-1.318.572-2.688.564-4.07-.036-5.555-3.538-8.688-6.628-11.451zM19.19 24.205c.664 1.457 1.775 2.487 2.735 3.376 1.39 1.289 2.176 2.086 2.176 3.489 0 2.254-1.878 4.09-4.197 4.116-.065 0-.13 0-.195-.002l-.04-.001-.042-.002c-2.234-.115-4.015-1.915-4.015-4.111 0-2.387 1.921-5.06 3.578-6.865z" opacity=".6"/>
</svg>
