<svg xmlns="http://www.w3.org/2000/svg" width="16" height="16" viewBox="0 0 16 16">
    <g fill="#FFF" fill-rule="nonzero">
        <path d="M14.327 5.233l-.382-2.116a1.537 1.537 0 0 0-1.295-1.255l-2.116-.302L8.778.336a1.52 1.52 0 0 0-.89-.27 1.526 1.526 0 0 0-.953.308L5.227 1.665l-2.102.385A1.555 1.555 0 0 0 1.88 3.354l-.3 2.13L.363 7.251A1.55 1.55 0 0 0 .397 9.06l1.284 1.719.382 2.116a1.539 1.539 0 0 0 1.081 1.207H3.2c.066.018.134.036.205.046l2.115.302 1.288.898-.05-.002.474.33c.274.191.602.283.928.272.322 0 .643-.104.914-.308l1.708-1.292 2.102-.384a1.53 1.53 0 0 0 1.156-.959c.043-.11.074-.227.09-.347l.3-2.128 1.217-1.768a1.566 1.566 0 0 0-.034-1.81l-1.285-1.72zm-6.328 7.959a5.12 5.12 0 0 1-3.616-1.519 5.21 5.21 0 0 1 0-7.336A5.121 5.121 0 0 1 8.01 2.818c2.833.016 5.126 2.331 5.126 5.187 0 2.86-2.299 5.177-5.137 5.187z"/>
        <path d="M11.216 6.208a.703.703 0 0 0-.998 0l-2.605 2.62-1.409-1.416a.702.702 0 0 0-.998 0 .713.713 0 0 0 0 1.003l1.908 1.918a.702.702 0 0 0 .998 0l3.104-3.122a.713.713 0 0 0 0-1.003z"/>
    </g>
</svg>
