<?xml version="1.0" encoding="UTF-8"?>
<svg width="28px" height="28px" viewBox="0 0 28 28" version="1.1" xmlns="http://www.w3.org/2000/svg" xmlns:xlink="http://www.w3.org/1999/xlink">
    <!-- Generator: sketchtool 50.2 (55047) - http://www.bohemiancoding.com/sketch -->
    <title>7FFF1193-68EA-47B1-8CB7-8DFA96C703FE</title>
    <desc>Created with sketchtool.</desc>
    <defs></defs>
    <g id="Page-2" stroke="none" stroke-width="1" fill="none" fill-rule="evenodd">
        <g id="settings" transform="translate(-21.000000, -347.000000)" fill="#00F6D2" fill-rule="nonzero">
            <g id="menu">
                <g id="icon-info" transform="translate(21.000000, 347.000000)">
                    <circle id="Oval" cx="14" cy="20.6992188" r="1.3671875"></circle>
                    <path d="M14,0 C6.26259375,0 0,6.26155469 0,14 C0,21.7374063 6.26155469,28 14,28 C21.7374063,28 28,21.7384453 28,14 C28,6.26259375 21.7384453,0 14,0 Z M14,25.8125 C7.47157031,25.8125 2.1875,20.5293047 2.1875,14 C2.1875,7.47157031 7.47069531,2.1875 14,2.1875 C20.5284297,2.1875 25.8125,7.47069531 25.8125,14 C25.8125,20.5284297 20.5293047,25.8125 14,25.8125 Z" id="Shape"></path>
                    <path d="M14,7.02734375 C11.587625,7.02734375 9.625,8.98996875 9.625,11.4023438 C9.625,12.0064219 10.1146719,12.4960938 10.71875,12.4960938 C11.3228281,12.4960938 11.8125,12.0064219 11.8125,11.4023438 C11.8125,10.1961562 12.7938125,9.21484375 14,9.21484375 C15.2061875,9.21484375 16.1875,10.1961562 16.1875,11.4023438 C16.1875,12.6085313 15.2061875,13.5898438 14,13.5898438 C13.3959219,13.5898438 12.90625,14.0795156 12.90625,14.6835938 L12.90625,17.4179688 C12.90625,18.0220469 13.3959219,18.5117188 14,18.5117188 C14.6040781,18.5117188 15.09375,18.0220469 15.09375,17.4179688 L15.09375,15.6389297 C16.9786094,15.1520469 18.375,13.4372109 18.375,11.4023438 C18.375,8.98996875 16.412375,7.02734375 14,7.02734375 Z" id="Shape"></path>
                </g>
            </g>
        </g>
    </g>
</svg>