<?xml version="1.0" encoding="UTF-8"?>
<svg width="14px" height="14px" viewBox="0 0 14 14" version="1.1" xmlns="http://www.w3.org/2000/svg" xmlns:xlink="http://www.w3.org/1999/xlink">
    <!-- Generator: Sketch 55.2 (78181) - https://sketchapp.com -->
    <title>icn-external-link copy</title>
    <desc>Created with Sketch.</desc>
    <g id="v1" stroke="none" stroke-width="1" fill="none" fill-rule="evenodd">
        <g id="wallet" transform="translate(-464.000000, -1242.000000)" fill="#05E2C2" fill-rule="nonzero" stroke="#05E2C2" stroke-width="0.5">
            <g id="transactions" transform="translate(100.000000, 392.000000)">
                <g id="2" transform="translate(30.000000, 537.000000)">
                    <g id="Group-5">
                        <g id="Group-3" transform="translate(0.000000, 278.000000)">
                            <g id="external" transform="translate(334.000000, 35.000000)">
                                <path d="M10.5963701,7.22604922 C10.3274125,7.22604922 10.1094069,7.44405535 10.1094069,7.71301357 L10.1094069,11.4067801 C10.1094069,11.8171751 9.77551144,12.1510713 9.36509388,12.1510713 L2.59321591,12.1510713 C2.18282189,12.1510713 1.84892645,11.8171751 1.84892645,11.4067801 L1.84892645,4.63488654 C1.84892645,4.22449157 2.18282189,3.89059536 2.59321591,3.89059536 L6.28697395,3.89059536 C6.555908,3.89059536 6.77393718,3.67256568 6.77393718,3.40363102 C6.77393718,3.13469635 6.555908,2.91666667 6.28697395,2.91666667 L2.59321591,2.91666667 C1.64580143,2.91666667 0.875,3.68746987 0.875,4.63488654 L0.875,11.4067801 C0.875,12.3542203 1.64580143,13.125 2.59321591,13.125 L9.36507034,13.125 C10.3125084,13.125 11.0833333,12.3542203 11.0833333,11.4067801 L11.0833333,7.71301357 C11.0833333,7.44405535 10.8653277,7.22604922 10.5963701,7.22604922 Z" id="Path"></path>
                                <path d="M12.6138001,0.875 L8.73619989,0.875 C8.453856,0.875 8.225,1.10388072 8.225,1.38619989 C8.225,1.66851906 8.453856,1.89739978 8.73619989,1.89739978 L12.1026002,1.89739978 L12.1026002,5.26380011 C12.1026002,5.54611928 12.3314562,5.775 12.6138001,5.775 C12.896144,5.775 13.125,5.54611928 13.125,5.26380011 L13.125,1.38619989 C13.125,1.10388072 12.896144,0.875 12.6138001,0.875 Z" id="Path"></path>
                                <path d="M12.9821382,1.0178448 C12.7916557,0.827385067 12.4828322,0.827385067 12.2923497,1.0178448 L5.5095285,7.80067338 C5.31904605,7.9911567 5.31904605,8.29998163 5.5095285,8.49046495 C5.60475793,8.5857184 5.72960801,8.63333333 5.85443451,8.63333333 C5.97928458,8.63333333 6.10411108,8.58569482 6.19934051,8.49046495 L12.9821382,1.70763637 C13.1726206,1.51715305 13.1726206,1.20832812 12.9821382,1.0178448 Z" id="Path"></path>
                            </g>
                        </g>
                    </g>
                </g>
            </g>
        </g>
    </g>
</svg>