<svg xmlns="http://www.w3.org/2000/svg" width="28" height="28" viewBox="0 0 28 28">
    <g fill="none" fill-rule="evenodd" stroke="#00F6D2">
        <path stroke-linecap="round" stroke-width="2" d="M14 1C6.82 1 1 6.82 1 14s5.82 13 13 13 13-5.82 13-13"/>
        <path fill="#00F6D2" stroke-width=".2" d="M16.084 13.403c1.135.282 1.71 1.102 1.71 2.436 0 1.117-.428 1.714-1.246 2.102-.085.04-.174.079-.28.121-.055.023-.235.093-.261.104-.488.195-1.902.266-4.269.217l-.098-.1v-7.395l.1-.1h.897l.1.1v6.5c2.674.269 3.978-.257 3.978-1.549 0-1.319-1.008-1.93-3.083-1.836l-.105-.1v-.822l.108-.1c1.922.154 2.798-.377 2.702-1.596-.066-.834-.468-1.304-1.372-1.304H9.96v11.086l-.1.1h-.877l-.1-.1v-12l.1-.1h5.936c1.382 0 2.484.765 2.553 2.178.048.98-.42 1.704-1.388 2.158z"/>
        <g fill="#00F6D2" fill-rule="nonzero" stroke-width=".5">
            <path d="M25.569 5.161a.348.348 0 0 0-.348.348v2.639a.532.532 0 0 1-.532.531h-4.837a.532.532 0 0 1-.531-.531V3.31c0-.294.238-.532.531-.532h2.639a.348.348 0 0 0 0-.696h-2.639c-.676 0-1.227.55-1.227 1.228v4.837c0 .676.55 1.227 1.227 1.227h4.837c.677 0 1.228-.55 1.228-1.227V5.509a.348.348 0 0 0-.348-.348zM27.01.625h-2.77a.365.365 0 1 0 0 .73h2.405V3.76a.365.365 0 1 0 .73 0V.99a.365.365 0 0 0-.365-.365z"/>
            <path d="M27.273.727a.348.348 0 0 0-.493 0l-4.845 4.845a.348.348 0 1 0 .493.493l4.845-4.845a.348.348 0 0 0 0-.493z"/>
        </g>
    </g>
</svg>
