<svg xmlns="http://www.w3.org/2000/svg" width="20" height="20" viewBox="0 0 20 20">
    <g fill="#FFF" fill-rule="evenodd">
        <ellipse cx="10" cy="10" fill-opacity=".1" stroke="#FFF" rx="9.091" ry="9.048"/>
        <path d="M6 7.444c0 .246.199.445.444.445h5.778c1.976 0 2.284 1.14 2.284 2.306 0 1.166-.308 2.138-2.284 2.138H7.517l1.02-1.019a.444.444 0 0 0-.629-.628L6.13 12.463a.445.445 0 0 0-.03.033l-.011.016-.014.019-.012.02-.01.017-.01.02-.01.02-.006.02-.008.02-.005.021-.005.022-.004.023c0 .007-.002.013-.003.02a.447.447 0 0 0 0 .088l.003.02.004.023.005.022.005.02.008.02.007.02.009.02.01.02.01.018.012.02.014.019.012.015c.009.012.019.023.03.033l1.777 1.778a.444.444 0 0 0 .629-.629l-1.02-1.019h4.705c2.467 0 3.316-1.513 3.316-3.027 0-1.514-.849-3.195-3.316-3.195H6.444A.444.444 0 0 0 6 7.444z"/>
    </g>
</svg>
