<svg xmlns="http://www.w3.org/2000/svg" width="28" height="28" viewBox="0 0 28 28">
    <g fill="none" fill-rule="nonzero" stroke="#00F6D2" stroke-width="2">
        <path d="M14.383 19.902c1.47 0 2.617 1.276 2.617 2.8v4.274H1v-4.274c0-1.524 1.147-2.8 2.617-2.8h10.766zM26.362 20.448a2.101 2.101 0 0 1 0 2.973 2.106 2.106 0 0 1-2.977 0L13.156 13.192l-.926.925a1.895 1.895 0 0 1-.517 1.695 1.892 1.892 0 0 1-2.67 0l-4.547-4.551a1.877 1.877 0 0 1-.008-2.666c.46-.465 1.101-.639 1.697-.523l4.823-4.82a1.867 1.867 0 0 1 .516-1.692 1.878 1.878 0 0 1 2.67-.005l4.559 4.556c.73.738.73 1.924-.004 2.666a1.888 1.888 0 0 1-1.694.516l-.925.924 10.232 10.231z"/>
    </g>
</svg>
