<svg xmlns="http://www.w3.org/2000/svg" width="28" height="28" viewBox="0 0 28 28">
    <g fill="#00F6D2" fill-rule="evenodd" stroke="#00F6D2">
        <path d="M13.872 1.993c-.782 0-1.42.668-1.42 1.49 0 .064.011.128.02.19.034.244-.105.5-.332.571-2.601.8-4.417 3.345-4.417 6.19 0 3.303-1.929 6.546-3.545 8.684-.22.293-.289.68-.182 1.033.103.341.35.596.676.696 1.483.459 4.282 1.006 9.2 1.006 4.919 0 7.717-.547 9.199-1.006a1.02 1.02 0 0 0 .677-.697 1.163 1.163 0 0 0-.182-1.032c-1.616-2.138-3.545-5.38-3.545-8.685 0-2.843-1.816-5.389-4.417-6.189a.497.497 0 0 1-.335-.548c.012-.081.022-.146.022-.214 0-.82-.637-1.489-1.419-1.489zm0 20.853c-3.982 0-7.255-.362-9.467-1.047a2 2 0 0 1-1.31-1.347 2.195 2.195 0 0 1 .34-1.95c1.25-1.65 3.341-4.892 3.341-8.069 0-3.145 1.928-5.975 4.732-7.017C11.542 2.077 12.589 1 13.872 1s2.33 1.077 2.364 2.416c2.804 1.042 4.732 3.872 4.732 7.017 0 3.178 2.092 6.42 3.34 8.068.415.554.544 1.282.342 1.95a2 2 0 0 1-1.313 1.348c-1.54.478-4.434 1.047-9.465 1.047z"/>
        <path d="M11.598 23.65c.224 1.304 1.196 2.25 2.357 2.25 1.178 0 2.16-.972 2.368-2.25-.687.032-1.468.047-2.368.047-.895 0-1.673-.015-2.357-.047zM13.955 27c-1.859 0-3.37-1.728-3.37-3.853a.69.69 0 0 1 .15-.437c.096-.105.225-.21.358-.189.796.051 1.733.075 2.862.075s2.067-.024 2.863-.075c.141-.022.26.046.358.15a.59.59 0 0 1 .15.4v.076c0 2.125-1.512 3.853-3.37 3.853z"/>
    </g>
</svg>
