<svg xmlns="http://www.w3.org/2000/svg" width="16" height="16" viewBox="0 0 16 16">
    <g fill="#FFF" fill-rule="nonzero">
        <path d="M12.535 5.494H9.998v1.411h2.537c.755 0 1.34.362 1.34.673v6.26c0 .311-.585.673-1.34.673H2.942c-.754 0-1.34-.362-1.34-.673v-6.26c0-.31.586-.672 1.34-.672H5.48V5.494H2.942c-1.595 0-2.846.915-2.846 2.084v6.26c0 1.17 1.25 2.085 2.846 2.085h9.594c1.595 0 2.846-.916 2.846-2.085v-6.26c0-1.169-1.25-2.084-2.847-2.084z"/>
        <path d="M5.51 3.519a.777.777 0 0 0 .533-.207l.943-.884V9.61c0 .39.337.706.753.706s.753-.316.753-.706V2.38l.993.932c.147.138.34.207.533.207a.777.777 0 0 0 .532-.207.675.675 0 0 0 0-.998L8.302.206A.776.776 0 0 0 7.77 0h-.012a.776.776 0 0 0-.532.206L4.978 2.314a.675.675 0 0 0 0 .998c.148.138.34.207.533.207z"/>
    </g>
</svg>
