<?xml version="1.0" encoding="UTF-8"?>
<svg width="28px" height="28px" viewBox="0 0 28 28" version="1.1" xmlns="http://www.w3.org/2000/svg" xmlns:xlink="http://www.w3.org/1999/xlink">
    <!-- Generator: sketchtool 50.2 (55047) - http://www.bohemiancoding.com/sketch -->
    <title>250100D0-58C2-46B1-B86F-7C106F24ACF1</title>
    <desc>Created with sketchtool.</desc>
    <defs></defs>
    <g id="Page-2" stroke="none" stroke-width="1" fill="none" fill-rule="evenodd">
        <g id="wallet_1440" transform="translate(-21.000000, -412.000000)" fill-rule="nonzero" stroke="#8DA1AD" stroke-width="2">
            <g id="menu">
                <g id="icon-settings" transform="translate(21.000000, 412.000000)">
                    <path d="M8.99801304,5.40013226 C9.77319696,4.93835733 10.6157775,4.57980024 11.5073534,4.3432057 C11.4249443,4.12533005 11.379482,3.88925649 11.3786348,3.64260078 C11.3783083,3.54753923 11.3847598,3.45257535 11.3979402,3.35843141 L11.4869441,2.7226997 C11.6252376,1.73490633 12.4701999,1 13.467627,1 L14.5454426,1 C15.5455109,1 16.3918593,1.73869834 16.5270769,2.72958323 L16.6132426,3.36101149 C16.6592964,3.69849737 16.6182961,4.0277913 16.50746,4.32623307 C17.4017164,4.55699213 18.2473884,4.91025487 19.0260551,5.36725654 C19.1203331,5.17058778 19.2486379,4.98610849 19.4109995,4.82262769 C19.4779873,4.75517816 19.5496988,4.69259044 19.6255886,4.63534055 L20.1380541,4.24874564 C20.9343177,3.64805847 22.0514535,3.72587982 22.756741,4.43116728 L23.5188717,5.19329798 C24.2260268,5.90045309 24.3021469,7.02125039 23.6970988,7.81752511 L23.3115399,8.32494062 C23.1125732,8.58679109 22.8616225,8.78585768 22.5840682,8.91867693 C23.0511661,9.70839876 23.4142651,10.5681916 23.6542953,11.4786296 C23.849192,11.4144333 24.0573638,11.3793778 24.2736741,11.3786348 C24.3687357,11.3783083 24.4636995,11.3847598 24.5578435,11.3979402 L25.1935752,11.4869441 C26.1813686,11.6252376 26.9162749,12.4701999 26.9162749,13.467627 L26.9162749,14.5454426 C26.9162749,15.5455109 26.1775765,16.3918593 25.1866917,16.5270769 L24.5552634,16.6132426 C24.2547241,16.6542546 23.9606812,16.6262298 23.6891378,16.541328 C23.4609108,17.4586183 23.1081607,18.3260248 22.6500745,19.1240022 C22.818114,19.2136857 22.9760739,19.3290791 23.1181697,19.4702021 C23.1856192,19.5371899 23.248207,19.6089014 23.3054569,19.6847912 L23.6920518,20.1972567 C24.2927389,20.9935203 24.2149176,22.1106561 23.5096301,22.8159436 L22.7474994,23.5780743 C22.0403443,24.2852294 20.919547,24.3613495 20.1232723,23.7563014 L19.6158568,23.3707425 C19.3900653,23.1991751 19.2109566,22.9889553 19.0807512,22.7563555 C18.2982838,23.2223568 17.4471639,23.5831982 16.5463124,23.8196057 C16.5946041,23.9906352 16.6207249,24.1709954 16.6213652,24.3573992 C16.6216917,24.4524608 16.6152402,24.5474246 16.6020598,24.6415686 L16.5130559,25.2773003 C16.3747624,26.2650937 15.5298001,27 14.532373,27 L13.4545574,27 C12.4544891,27 11.6081407,26.2613017 11.4729231,25.2704168 L11.3867574,24.6389885 C11.3469895,24.3475664 11.3721334,24.0622526 11.4511025,23.7976374 C10.5548743,23.5540882 9.70877834,23.1871263 8.93163621,22.7159248 C8.8424666,22.8814831 8.72826105,23.0371518 8.58900045,23.1773723 C8.52201265,23.2448218 8.45030117,23.3074096 8.37441142,23.3646595 L7.86194592,23.7512544 C7.06568232,24.3519415 5.94854647,24.2741202 5.24325901,23.5688327 L4.4811283,22.806702 C3.7739732,22.0995469 3.69785311,20.9787496 4.30290124,20.1824749 L4.68846013,19.6750594 C4.88541688,19.4158541 5.13331269,19.2181706 5.40752858,19.0853685 C4.95480681,18.2886154 4.6068195,17.4233441 4.382506,16.5088476 C4.17709503,16.5809974 3.95631047,16.6205753 3.72632589,16.6213652 C3.63126434,16.6216917 3.53630047,16.6152402 3.44215652,16.6020598 L2.80642481,16.5130559 C1.81863145,16.3747624 1.08372511,15.5298001 1.08372511,14.532373 L1.08372511,13.4545574 C1.08372511,12.4544891 1.82242345,11.6081407 2.81330835,11.4729231 L3.44473661,11.3867574 C3.78626347,11.3401522 4.11940102,11.3826983 4.4206653,11.4965514 C4.6584382,10.5879035 5.0187423,9.72950151 5.48266147,8.94061491 C5.26492424,8.84446322 5.06079498,8.70753743 4.88183029,8.52979786 C4.81438075,8.46281006 4.75179303,8.39109858 4.69454314,8.31520882 L4.30794824,7.80274333 C3.70726106,7.00647973 3.78508241,5.88934387 4.49036987,5.18405641 L5.25250058,4.42192571 C5.95965568,3.7147706 7.08045298,3.63865051 7.87672771,4.24369864 L8.38414322,4.62925754 C8.65957637,4.838545 8.86554326,5.10534937 8.99801304,5.40013226 Z M14.039834,17.2904793 C15.7767312,17.2904793 17.1921306,15.8562683 17.1921306,14.0779748 C17.1921306,12.2996813 15.7767312,10.8654702 14.039834,10.8654702 C12.3029368,10.8654702 10.8875373,12.2996813 10.8875373,14.0779748 C10.8875373,15.8562683 12.3029368,17.2904793 14.039834,17.2904793 Z" id="Combined-Shape"></path>
                </g>
            </g>
        </g>
    </g>
</svg>