<?xml version="1.0" encoding="UTF-8"?>
<svg width="16px" height="16px" viewBox="0 0 16 16" version="1.1" xmlns="http://www.w3.org/2000/svg" xmlns:xlink="http://www.w3.org/1999/xlink">
    <!-- Generator: sketchtool 50.2 (55047) - http://www.bohemiancoding.com/sketch -->
    <title>FB2ED245-2266-4F17-A248-745F4587CCD6</title>
    <desc>Created with sketchtool.</desc>
    <defs></defs>
    <g id="Symbols" stroke="none" stroke-width="1" fill="none" fill-rule="evenodd">
        <g id="icon-password" fill="#FFFFFF" fill-rule="nonzero">
            <g id="power-button">
                <g id="lock" transform="translate(2.500000, 1.000000)">
                    <path d="M10.6944349,5.25 L9.77776823,5.25 L9.77776823,4.08332422 C9.77776823,1.83175781 7.8588125,0 5.5,0 C3.1411875,0 1.22223177,1.83175781 1.22223177,4.08332422 L1.22223177,5.25 L0.305565104,5.25 C0.136669271,5.25 0,5.38045703 0,5.54167578 L0,12.8333516 C0,13.4767773 0.548138021,14 1.22223177,14 L9.77779687,14 C10.451862,14 11,13.4767773 11,12.8333242 L11,5.54167578 C11,5.38045703 10.8633307,5.25 10.6944349,5.25 Z M6.41489062,11.3428164 C6.42442969,11.4251211 6.39670052,11.5077266 6.33880729,11.5695508 C6.28091406,11.6313477 6.19795573,11.6666758 6.11113021,11.6666758 L4.88889844,11.6666758 C4.80207292,11.6666758 4.71911458,11.6313477 4.66122135,11.5695508 C4.60332813,11.5077539 4.57557031,11.4251484 4.58513802,11.3428164 L4.77789583,9.68824609 C4.46488281,9.47091797 4.27779688,9.127125 4.27779688,8.75 C4.27779688,8.10657422 4.8259349,7.58332422 5.50002865,7.58332422 C6.1741224,7.58332422 6.72226042,8.10654687 6.72226042,8.75 C6.72226042,9.127125 6.53517448,9.47091797 6.22216146,9.68824609 L6.41489062,11.3428164 Z M7.9444349,5.25 L3.0555651,5.25 L3.0555651,4.08332422 C3.0555651,2.79674609 4.15215625,1.75 5.5,1.75 C6.84784375,1.75 7.9444349,2.79674609 7.9444349,4.08332422 L7.9444349,5.25 Z" id="Shape"></path>
                </g>
            </g>
        </g>
    </g>
</svg>