<svg xmlns="http://www.w3.org/2000/svg" width="16" height="16" viewBox="0 0 16 16">
    <g fill="#032E49" fill-rule="nonzero" stroke="#032E49" stroke-width=".6">
        <circle cx="11.242" cy="10.461" r="1"/>
        <path d="M13.703 10.898a.547.547 0 0 0 .547-.546V8.328a2.19 2.19 0 0 0-2.188-2.187h-.657V4.212C11.405 2.441 9.933 1 8.124 1c-1.81 0-3.281 1.44-3.281 3.212v1.929h-.655A2.19 2.19 0 0 0 2 8.328v4.485A2.19 2.19 0 0 0 4.188 15h7.875a2.19 2.19 0 0 0 2.187-2.188.547.547 0 1 0-1.094 0c0 .604-.49 1.094-1.094 1.094H4.189c-.604 0-1.094-.49-1.094-1.094V8.329c0-.603.49-1.094 1.094-1.094h7.875c.603 0 1.093.491 1.093 1.094v2.024c0 .302.245.546.547.546zm-3.392-4.757H5.936V4.212c0-1.168.982-2.118 2.188-2.118 1.206 0 2.187.95 2.187 2.118v1.929z"/>
        <circle cx="7.113" cy="10.461" r="1"/>
        <circle cx="5.063" cy="10.461" r="1"/>
        <circle cx="9.164" cy="10.461" r="1"/>
    </g>
</svg>
