<svg xmlns="http://www.w3.org/2000/svg" width="28" height="28" viewBox="0 0 28 28">
    <path fill="#00F6D2" fill-rule="nonzero" d="M24.117 1.618h-1.711v-.35c0-.7-.593-1.268-1.322-1.268h-4.745c-.73 0-1.323.569-1.323 1.268v.35H3.883C2.845 1.618 2 2.428 2 3.424v22.77C2 27.19 2.845 28 3.883 28h20.234C25.155 28 26 27.19 26 26.194V3.424c0-.996-.845-1.806-1.883-1.806zm-3.423.024v4.944l-1.383-.728a1.287 1.287 0 0 0-1.2 0l-1.382.728V1.642h3.965zM4.959 26.358H3.883a.168.168 0 0 1-.17-.164V3.424c0-.09.076-.164.17-.164H4.96v23.098zm19.158 0H6.672V3.26h8.344v4.081c0 .427.229.811.612 1.028a1.28 1.28 0 0 0 1.234.02l1.849-.973 1.85.973a1.287 1.287 0 0 0 1.234-.02c.382-.217.611-.601.611-1.028v-4.08h1.71c.095 0 .172.073.172.163v22.77c0 .09-.077.164-.171.164z"/>
</svg>
