<svg xmlns="http://www.w3.org/2000/svg" width="16" height="16" viewBox="0 0 16 16">
    <g fill="#FFF" fill-rule="evenodd">
        <path fill-rule="nonzero" d="M2 14.176c0 .455.369.824.824.824h10.352a.824.824 0 0 0 0-1.647H2.824a.824.824 0 0 0-.824.823z"/>
        <path d="M8.296 1c.38 0 .69.32.69.691v7.756s2.482-2.412 2.915-2.54c.432-.129 1.178.437 1.092 1.093-.085.656-4.007 4-4.88 4-.873 0-4.874-3.648-5.073-4.106-.2-.459.382-1.08 1-.987.617.093 3.2 2.54 3.2 2.54V1.69c0-.382.304-.691.69-.691h.366z"/>
    </g>
</svg>
