<svg xmlns="http://www.w3.org/2000/svg" width="40" height="40" viewBox="0 0 40 40">
    <g fill="none" fill-rule="evenodd" opacity=".6">
        <g fill="#FF746B">
            <path d="M6.313 11.789v-7.49L2.444 7.73c-.378.335-.949.335-1.327-.002L.84 7.482C.428 7.115.391 6.483.758 6.07c.026-.029.054-.057.083-.083L6.91.591c.38-.337.95-.337 1.33 0l6.07 5.396c.412.367.45 1 .083 1.412-.026.03-.054.057-.083.083l-.276.245c-.379.337-.95.337-1.328.001l-3.869-3.43v6.465l-2.525 1.026zm1.034 9.075h.52c.553 0 1-.448 1-1v-.005l-.02-4.694c-.002-.406-.333-.733-.74-.731-.192 0-.377.077-.514.213l-.95.946c-.19.188-.296.443-.296.709v3.562c0 .552.448 1 1 1z" transform="translate(7.5 9.16)"/>
            <path d="M22.298 10.727v.526c0 .552-.448 1-1 1H4.131c-.552 0-1-.448-1-1v-.526c0-.552.448-1 1-1h17.167c.552 0 1 .448 1 1z" transform="translate(7.5 9.16)"/>
            <g>
                <path d="M6.313 10.803V4.299L2.444 7.73c-.378.335-.949.335-1.327-.002L.84 7.482C.428 7.115.391 6.483.758 6.07c.026-.029.054-.057.083-.083L6.91.591c.38-.337.95-.337 1.33 0l6.07 5.396c.412.367.45 1 .083 1.412-.026.03-.054.057-.083.083l-.276.245c-.379.337-.95.337-1.328.001l-3.869-3.43v6.465l-2.525.04zm1.034 10.06h.52c.553 0 1-.447 1-1v-.004l-.02-4.694c-.002-.406-.333-.733-.74-.731-.192 0-.377.077-.514.213l-.95.946c-.19.188-.296.443-.296.709v3.562c0 .552.448 1 1 1z" transform="translate(7.5 9.16) matrix(1 0 0 -1 10 21.667)"/>
            </g>
        </g>
        <circle cx="20" cy="20" r="18.5" stroke="#FF746B" stroke-width="3"/>
    </g>
</svg>
