<svg xmlns="http://www.w3.org/2000/svg" width="16" height="16" viewBox="0 0 16 16">
    <path fill="#032E49" fill-rule="nonzero" stroke="#032E49" stroke-width=".7" d="M14.996 2.09a.523.523 0 1 0-1.036-.13l-.314 2.443A6.449 6.449 0 0 0 8.3 1.539a6.456 6.456 0 0 0-6.095 4.37.525.525 0 0 0 .323.666.535.535 0 0 0 .67-.324A5.403 5.403 0 0 1 8.3 2.59c1.881 0 3.631.998 4.606 2.592l-2.612-.298a.515.515 0 0 0-.574.464.523.523 0 0 0 .461.578l3.762.43h.06a.512.512 0 0 0 .514-.456l.48-3.81zM2.057 9.124l3.762.429a.521.521 0 0 1 .461.578.52.52 0 0 1-.574.464l-2.273-.254a5.392 5.392 0 0 0 4.876 3.1c2.36 0 4.484-1.585 5.163-3.853a.523.523 0 1 1 1.001.306 6.566 6.566 0 0 1-2.29 3.302A6.381 6.381 0 0 1 8.31 14.5a6.446 6.446 0 0 1-5.903-3.88l-.366 2.917a.525.525 0 0 1-.514.455h-.07a.523.523 0 0 1-.452-.587l.488-3.81a.514.514 0 0 1 .565-.472z"/>
</svg>
