<svg xmlns="http://www.w3.org/2000/svg" width="16" height="16" viewBox="0 0 16 16">
    <path fill="#FFF" fill-rule="nonzero" d="M14.787 13.752l-3.451-3.466a5.519 5.519 0 0 0 1.373-3.634C12.71 3.536 10.083 1 6.855 1 3.626 1 1 3.536 1 6.652c0 3.117 2.626 5.653 5.855 5.653a5.936 5.936 0 0 0 3.354-1.023l3.477 3.492c.146.146.341.226.55.226a.774.774 0 0 0 .53-.206.72.72 0 0 0 .021-1.042zM6.855 2.475c2.386 0 4.327 1.874 4.327 4.177 0 2.304-1.941 4.178-4.327 4.178S2.527 8.956 2.527 6.652c0-2.303 1.942-4.177 4.328-4.177z"/>
</svg>
