<svg xmlns="http://www.w3.org/2000/svg" width="21" height="14" viewBox="0 0 21 14">
    <path fill="#FFF" fill-rule="nonzero" d="M10.253.01C5.593.01 1.585 2.898 0 7c1.585 4.101 5.593 6.99 10.253 6.99S18.922 11.102 20.507 7C18.922 2.899 14.914.01 10.253.01zm0 11.65c-2.61 0-4.66-2.05-4.66-4.66 0-2.61 2.05-4.66 4.66-4.66 2.61 0 4.66 2.05 4.66 4.66 0 2.61-2.05 4.66-4.66 4.66zm0-7.456C8.67 4.204 7.457 5.415 7.457 7c0 1.585 1.212 2.796 2.796 2.796 1.585 0 2.797-1.211 2.797-2.796 0-1.585-1.212-2.796-2.797-2.796z"/>
</svg>
