<svg xmlns="http://www.w3.org/2000/svg" width="16" height="16" viewBox="0 0 16 16">
    <g fill="#032E49" fill-rule="nonzero" stroke="#002D4A" stroke-width=".5">
        <path d="M9 2a6 6 0 0 0-6 6H1.483a.2.2 0 0 0-.142.341l2.043 2.043a.4.4 0 0 0 .565 0L5.992 8.34A.2.2 0 0 0 5.85 8H4.333A4.668 4.668 0 1 1 9 12.667a4.64 4.64 0 0 1-2.707-.87c-.766-.547-1.399.503-.943.956C5.806 13.207 7.627 14 9 14A6 6 0 0 0 9 2z"/>
        <path d="M10.333 8.002A1.334 1.334 0 1 0 9 9.337c.737 0 1.333-.598 1.333-1.335z"/>
    </g>
</svg>
