<svg xmlns="http://www.w3.org/2000/svg" width="40" height="40" viewBox="0 0 40 40">
    <path fill="none" fill-rule="nonzero" stroke="#DA68F5" stroke-width="2" d="M32.448 22.35c.114.576.172 1.165.172 1.762v11.67l-.003.152h3.918A2.465 2.465 0 0 0 39 33.476v-6.362c0-2.625-2.142-4.763-4.774-4.763h-1.778zm-24.896 0H5.774C3.142 22.35 1 24.49 1 27.115v6.362a2.465 2.465 0 0 0 2.465 2.458h3.918a4.467 4.467 0 0 1-.003-.152v-11.67c0-.597.058-1.186.172-1.761zm15.984-3.002h-7.072c-2.632 0-4.774 2.138-4.774 4.764v11.67c0 .083.069.152.155.152h16.31a.154.154 0 0 0 .155-.152v-11.67c0-2.626-2.142-4.764-4.774-4.764zm-15.73-8.822a4.194 4.194 0 0 0-4.193 4.184 4.194 4.194 0 0 0 8.386 0 4.194 4.194 0 0 0-4.193-4.184zm24.388 0A4.194 4.194 0 0 0 28 14.71c0 .694.17 1.363.492 1.963a4.221 4.221 0 0 0 2.05 1.882 4.194 4.194 0 0 0 5.845-3.845 4.194 4.194 0 0 0-4.194-4.184zM20 4.066c-3.277 0-5.944 2.662-5.944 5.931a5.933 5.933 0 0 0 3.04 5.174 5.91 5.91 0 0 0 2.904.758 5.91 5.91 0 0 0 2.904-.758 5.933 5.933 0 0 0 3.04-5.174c0-3.27-2.667-5.931-5.944-5.931z" opacity=".6"/>
</svg>
