<svg xmlns="http://www.w3.org/2000/svg" width="40" height="40" viewBox="0 0 40 40">
    <path fill="#FFF" fill-rule="nonzero" stroke="#FFF" stroke-width="0" d="M37.49 5.227a1.308 1.308 0 0 0-1.132-1.467A1.304 1.304 0 0 0 34.9 4.898l-.784 6.109c-2.96-4.423-7.967-7.16-13.365-7.16-6.879 0-12.995 4.401-15.237 10.925-.24.68.13 1.423.805 1.664a1.338 1.338 0 0 0 1.676-.81c1.872-5.473 7.01-9.151 12.756-9.151 4.702 0 9.077 2.495 11.515 6.48l-6.53-.744a1.288 1.288 0 0 0-1.437 1.16c-.065.723.435 1.38 1.154 1.445l9.403 1.073h.153c.653 0 1.219-.482 1.284-1.138l1.197-9.524zM5.144 22.807l9.403 1.073c.719.088 1.241.723 1.154 1.445-.087.723-.718 1.248-1.437 1.16l-5.681-.634c2.22 4.707 6.944 7.75 12.19 7.75 5.899 0 11.21-3.963 12.908-9.633.218-.7.936-1.095 1.632-.876.697.219 1.089.941.871 1.642a16.415 16.415 0 0 1-5.725 8.254 15.953 15.953 0 0 1-9.686 3.262c-6.443 0-12.212-3.853-14.759-9.699l-.914 7.29a1.311 1.311 0 0 1-1.284 1.14h-.174a1.308 1.308 0 0 1-1.132-1.468l1.219-9.523a1.284 1.284 0 0 1 1.415-1.183z" opacity=".6"/>
</svg>
