<svg xmlns="http://www.w3.org/2000/svg" width="16" height="16" viewBox="0 0 16 16">
    <g fill="#032E49" fill-rule="evenodd" stroke="#032E49" stroke-width=".7">
        <path d="M4.528 1.182a.79.79 0 0 1 .793.793v10.484l2.143-2.072a.833.833 0 0 1 1.149-.004l-.076-.072a.77.77 0 0 1-.004 1.112l-3.25 3.151a1.045 1.045 0 0 1-1.44 0l-3.25-3.15A.772.772 0 0 1 .59 10.31l-.075.072a.824.824 0 0 1 1.148.004l2.143 2.072V1.975a.79.79 0 0 1 .793-.793h-.07zM11.336 9.103l-.064-.004a.793.793 0 0 1-.693-.791V3.54L8.436 5.613a.824.824 0 0 1-1.149.004l.044.036-.046-.051a.771.771 0 0 1 .003-.937l.079-.088 3.25-3.151a1.045 1.045 0 0 1 1.44 0l3.25 3.15a.77.77 0 0 1 .003 1.113l.033-.036-.048.039a.838.838 0 0 1-.967-.003l-.091-.076-2.143-2.072v4.767a.8.8 0 0 1-.793.797l.035-.002zM15.31 5.69l.033-.036.042-.036-.075.072zm-7.947 0l-.076-.072.044.036.032.036zM11.3 9.105l.035-.002.036.002H11.3zm.035 5.731a.727.727 0 0 1-.727-.727v-2.182a.727.727 0 0 1 1.455 0v2.182a.727.727 0 0 1-.728.727z"/>
    </g>
</svg>
