<svg xmlns="http://www.w3.org/2000/svg" width="28" height="28" viewBox="0 0 28 28">
    <g fill="#80929D" fill-rule="nonzero" stroke-width=".5">
        <path stroke="#7C929E" d="M14.654 11.099a3.344 3.344 0 0 0-3.34 3.34 3.344 3.344 0 0 0 3.34 3.34 3.344 3.344 0 0 0 3.34-3.34 3.344 3.344 0 0 0-3.34-3.34zm0 5.417a2.079 2.079 0 0 1-2.076-2.077c0-1.145.931-2.076 2.076-2.076s2.076.931 2.076 2.076a2.079 2.079 0 0 1-2.076 2.077z"/>
        <path stroke="#80929D" d="M26.863 8.664c.246-1.808-.036-3.346-.817-4.482.128-.282.2-.594.2-.923a2.25 2.25 0 0 0-2.247-2.247c-.837 0-1.568.46-1.955 1.142-2.116-.106-4.708.671-7.39 2.221-4.58-2.647-8.726-2.965-10.877-.813-.935.935-1.42 2.273-1.417 3.889A2.25 2.25 0 0 0 1 9.514a2.25 2.25 0 0 0 2.247 2.247h.039c.345.878.782 1.776 1.304 2.678-2.647 4.58-2.965 8.726-.813 10.877.949.95 2.286 1.419 3.878 1.419 2.016 0 4.44-.753 6.999-2.232 2.559 1.48 4.983 2.232 6.999 2.232 1.591 0 2.93-.47 3.879-1.418 2.151-2.152 1.833-6.299-.815-10.878 1.165-2.016 1.905-4.006 2.146-5.775zm-5.105-5.256a2.25 2.25 0 0 0 2.241 2.098c.43 0 .833-.122 1.175-.333.468.85.619 1.982.437 3.32-.196 1.437-.765 3.051-1.656 4.715a28.416 28.416 0 0 0-3.64-4.43 28.439 28.439 0 0 0-4.431-3.641c2.158-1.157 4.195-1.757 5.874-1.729zM4.496 11.381a2.246 2.246 0 0 0-.872-4.08c.026-1.205.382-2.181 1.046-2.845 1.616-1.617 4.988-1.332 8.753.681a28.435 28.435 0 0 0-4.431 3.64 28.436 28.436 0 0 0-3.64 4.432 18.159 18.159 0 0 1-.856-1.828zm.174 13.042c-1.616-1.616-1.332-4.988.682-8.752a28.434 28.434 0 0 0 3.64 4.43 28.44 28.44 0 0 0 4.43 3.64c-3.764 2.014-7.136 2.298-8.752.682zm5.216-5.215c-1.506-1.506-2.79-3.109-3.823-4.769 1.032-1.66 2.317-3.262 3.823-4.768 1.505-1.506 3.108-2.79 4.768-3.823 1.66 1.033 3.262 2.317 4.768 3.823 1.506 1.506 2.79 3.109 3.822 4.768-1.031 1.66-2.316 3.262-3.822 4.769-1.506 1.505-3.108 2.79-4.768 3.822-1.66-1.032-3.263-2.317-4.768-3.822zm14.752 5.215c-1.617 1.616-4.989 1.332-8.753-.682a28.434 28.434 0 0 0 4.43-3.64 28.411 28.411 0 0 0 3.64-4.43c2.015 3.764 2.3 7.135.683 8.752z"/>
    </g>
</svg>
