<svg xmlns="http://www.w3.org/2000/svg" width="40" height="40" viewBox="0 0 40 40">
    <g fill="none" fill-rule="evenodd" opacity=".6">
        <path fill="#FF746B" d="M18.485 15.455v11.507L13.71 22.73c-.38-.336-.95-.336-1.328 0l-.632.562c-.413.367-.45.999-.083 1.412.026.03.054.057.083.083l7.586 6.744c.378.336.95.336 1.328 0l7.586-6.744c.413-.367.45-1 .083-1.412-.026-.03-.054-.057-.083-.083l-.632-.561c-.378-.337-.949-.337-1.328-.001l-4.775 4.234v-7.758l-3.03-3.751zm1.04-8.37h1.024c.552 0 1 .448 1 1v.007l-.02 2.83c-.003.49-.402.883-.89.88-.232-.002-.454-.094-.619-.258l-1.2-1.193c-.188-.188-.294-.443-.294-.709V8.085c0-.552.447-1 1-1z"/>
        <path fill="#FF746B" d="M14.028 12.087l-.729.729c-.39.39-.39 1.024 0 1.414l8.229 8.228c.39.39 1.023.39 1.414 0l.728-.728c.39-.39.39-1.024 0-1.415l-8.228-8.228c-.39-.39-1.024-.39-1.414 0z"/>
        <circle cx="20" cy="20" r="18.5" stroke="#FF746B" stroke-width="3"/>
    </g>
</svg>
