<svg xmlns="http://www.w3.org/2000/svg" width="16" height="16" viewBox="0 0 16 16">
    <path fill="#FFF" fill-rule="nonzero" d="M15.455 8c0 .496.146 1.004.288 1.495.19.664.37 1.291.167 1.781-.215.519-.8.839-1.42 1.178-.435.238-.886.485-1.218.818-.333.332-.58.782-.817 1.218-.34.62-.66 1.205-1.178 1.42-.49.204-1.118.023-1.782-.167-.49-.142-.999-.288-1.495-.288-.496 0-1.004.146-1.495.288-.663.19-1.29.371-1.781.167-.519-.215-.839-.8-1.178-1.42-.238-.435-.485-.886-.817-1.218-.333-.333-.783-.58-1.219-.817-.62-.34-1.205-.66-1.42-1.179-.203-.49-.023-1.117.168-1.781.141-.491.287-1 .287-1.495 0-.496-.146-1.004-.288-1.495-.19-.664-.37-1.291-.167-1.781.215-.519.8-.839 1.42-1.178.435-.238.886-.485 1.218-.817.333-.333.58-.783.817-1.219.34-.62.66-1.205 1.178-1.42.49-.204 1.118-.023 1.782.168.49.141.999.287 1.495.287.496 0 1.004-.146 1.495-.287.664-.191 1.29-.371 1.781-.168.519.215.839.8 1.178 1.42.238.435.485.886.817 1.219.333.332.783.578 1.219.817.62.339 1.205.66 1.42 1.178.203.49.023 1.117-.168 1.781-.141.491-.287 1-.287 1.495zm-3.032-3.07a1.03 1.03 0 0 0-1.464 0L7.137 8.773 5.07 6.696a1.03 1.03 0 0 0-1.464 0 1.045 1.045 0 0 0 0 1.473l2.8 2.813a1.03 1.03 0 0 0 1.463 0l4.554-4.58a1.046 1.046 0 0 0 0-1.472z"/>
</svg>
