<svg xmlns="http://www.w3.org/2000/svg" width="16" height="19" viewBox="0 0 16 19">
    <path fill="#FFF" fill-rule="nonzero" stroke="#FFF" stroke-width=".2" d="M14.445 7.744a1.802 1.802 0 0 0-1.33-.562H7.462v-.273a1.85 1.85 0 0 0-.556-1.346A1.802 1.802 0 0 0 5.576 5H2.886c-.517 0-.96.188-1.33.563-.37.374-.555.823-.555 1.346v8.182c0 .523.185.971.555 1.346.37.375.814.563 1.33.563h10.23c.517 0 .96-.188 1.33-.563.37-.375.555-.823.555-1.346v-6a1.85 1.85 0 0 0-.555-1.347zm-.522 7.347c0 .227-.078.42-.235.58a.774.774 0 0 1-.573.238H2.885a.774.774 0 0 1-.572-.238.794.794 0 0 1-.236-.58V6.909c0-.227.078-.42.236-.58a.774.774 0 0 1 .572-.238h2.692c.224 0 .415.08.572.239.157.159.236.352.236.58v.545c0 .227.078.42.235.58a.774.774 0 0 0 .572.238h5.923c.225 0 .416.08.573.238a.794.794 0 0 1 .235.58v6z"/>
</svg>
