<?xml version="1.0" encoding="UTF-8"?>
<svg width="16px" height="16px" viewBox="0 0 16 16" version="1.1" xmlns="http://www.w3.org/2000/svg" xmlns:xlink="http://www.w3.org/1999/xlink">
    <!-- Generator: sketchtool 50.2 (55047) - http://www.bohemiancoding.com/sketch -->
    <title>31215443-FEAC-49FF-9EF6-5532B786853C</title>
    <desc>Created with sketchtool.</desc>
    <defs></defs>
    <g id="Page-2" stroke="none" stroke-width="1" fill="none" fill-rule="evenodd">
        <g id="wallet_1440" transform="translate(-800.000000, -517.000000)" fill="#FFFFFF" fill-rule="nonzero">
            <g id="transactions" transform="translate(100.000000, 403.000000)">
                <g id="1" transform="translate(30.000000, 107.000000)">
                    <g id="conversation" transform="translate(670.000000, 7.000000)">
                        <path d="M15.6585899,14.1544936 L14.6011308,11.0753737 C15.1108533,10.0328357 15.3802232,8.87338476 15.3820368,7.70678248 C15.3851661,5.67831268 14.6007752,3.76035149 13.1733102,2.3062347 C11.7455607,0.851833281 9.84300894,0.0331231896 7.81606696,0.000995285031 C5.71427038,-0.0322355709 3.7386776,0.76765319 2.25342698,2.25364883 C0.821268018,3.68652491 0.0269201266,5.57552473 0.00177893407,7.59413913 C-0.0233622585,9.61275352 0.320769307,11.4112003 2.64876679,13.5341285 C3.84539054,14.6253437 5.59335629,15.2427265 7.89266404,15.3862767 C9.35410105,15.1890026 10.413362,14.92956 11.0704468,14.6079489 L14.1479848,15.6659994 C14.2762155,15.7100819 14.4077178,15.7315717 14.537691,15.7315717 C14.8466397,15.7315717 15.1470538,15.6101759 15.3749603,15.382114 C15.6987021,15.0581665 15.8073746,14.5877756 15.6585899,14.1544936 Z M14.6085629,14.6153849 C14.577732,14.646232 14.5411759,14.6546286 14.5000681,14.6404682 L11.2054695,13.5077727 C11.1482529,13.4880975 11.0887248,13.4783488 11.0294101,13.4783488 C10.9419671,13.4783488 10.8548441,13.4995184 10.7760068,13.5412882 C9.83532789,14.0391818 8.77235685,14.3032497 7.70191813,14.3048863 C7.69839765,14.3048863 7.69519721,14.3048863 7.69167674,14.3048863 C4.10494957,14.3048863 1.14230718,11.3897504 1.08548168,7.80199208 C1.05685557,5.99510876 1.7438111,4.2969551 3.01975329,3.02034232 C4.29569548,1.74372953 5.9932416,1.05666202 7.79892686,1.08512528 C11.3882499,1.14208737 14.3038459,4.11176602 14.2982985,7.70507468 C14.2966272,8.77607599 14.0327336,9.83964128 13.5351371,10.7807434 C13.4650831,10.9132043 13.4529926,11.068756 13.5016392,11.2104675 L14.6337041,14.5067976 C14.6478215,14.5480693 14.6393582,14.584609 14.6085629,14.6153849 Z" id="Shape"></path>
                        <path d="M10.7750733,4.68965517 L4.39734046,4.68965517 C4.10170817,4.68965517 3.86206897,4.93669637 3.86206897,5.24137931 C3.86206897,5.54609846 4.1017433,5.79310345 4.39734046,5.79310345 L10.7750733,5.79310345 C11.0707056,5.79310345 11.3103448,5.54606225 11.3103448,5.24137931 C11.3103448,4.93669637 11.0707056,4.68965517 10.7750733,4.68965517 Z" id="Shape"></path>
                        <path d="M10.7750733,7.17241379 L4.39734046,7.17241379 C4.10170817,7.17241379 3.86206897,7.41945499 3.86206897,7.72413793 C3.86206897,8.02882087 4.1017433,8.27586207 4.39734046,8.27586207 L10.7750733,8.27586207 C11.0707056,8.27586207 11.3103448,8.02882087 11.3103448,7.72413793 C11.3103448,7.41945499 11.0707056,7.17241379 10.7750733,7.17241379 Z" id="Shape"></path>
                        <path d="M8.29532697,9.37931034 L4.39436314,9.37931034 C4.10037523,9.37931034 3.86206897,9.62635154 3.86206897,9.93103448 C3.86206897,10.2357536 4.10041016,10.4827586 4.39436314,10.4827586 L8.29529204,10.4827586 C8.58927994,10.4827586 8.82758621,10.2357174 8.82758621,9.93103448 C8.82758621,9.62635154 8.58931488,9.37931034 8.29532697,9.37931034 Z" id="Shape"></path>
                    </g>
                </g>
            </g>
        </g>
    </g>
</svg>