<svg xmlns="http://www.w3.org/2000/svg" width="16" height="16" viewBox="0 0 16 16">
    <path fill="none" fill-rule="nonzero" stroke="#FFF" stroke-width="1.5" d="M5.133 3.091a5.615 5.615 0 0 1 1.45-.611 1.158 1.158 0 0 1-.067-.582l.005-.035A1.499 1.499 0 0 1 8.005.57c.747 0 1.38.552 1.48 1.292l.004.03c.028.202.002.399-.066.576a5.613 5.613 0 0 1 1.456.602 1.16 1.16 0 0 1 .352-.435l.03-.022a1.499 1.499 0 0 1 1.962.137c.528.528.585 1.365.133 1.96l-.018.024c-.12.157-.27.275-.438.352.27.456.48.953.619 1.48a1.16 1.16 0 0 1 .535-.051l.036.005c.74.104 1.29.737 1.29 1.484s-.551 1.38-1.291 1.48l-.03.004a1.163 1.163 0 0 1-.52-.046 5.754 5.754 0 0 1-.6 1.491 1.16 1.16 0 0 1 .391.331l.022.03c.45.596.392 1.433-.137 1.962a1.494 1.494 0 0 1-1.96.133l-.023-.018a1.164 1.164 0 0 1-.32-.373c-.452.27-.943.478-1.464.614a1.162 1.162 0 0 1 .036.489l-.005.035a1.499 1.499 0 0 1-1.484 1.292 1.494 1.494 0 0 1-1.48-1.292l-.004-.03a1.163 1.163 0 0 1 .042-.506 5.617 5.617 0 0 1-1.455-.624 1.16 1.16 0 0 1-.33.387l-.028.022a1.499 1.499 0 0 1-1.963-.137 1.494 1.494 0 0 1-.133-1.96l.018-.024c.118-.155.268-.273.433-.35a5.754 5.754 0 0 1-.593-1.489 1.16 1.16 0 0 1-.556.058l-.036-.005A1.499 1.499 0 0 1 .62 7.995c0-.747.551-1.38 1.291-1.48l.03-.004c.204-.028.403-.002.582.069a5.754 5.754 0 0 1 .614-1.478 1.158 1.158 0 0 1-.467-.367l-.022-.03a1.499 1.499 0 0 1 .137-1.962 1.494 1.494 0 0 1 1.96-.133l.023.018c.165.125.287.286.365.463zm2.89 6.79c.992 0 1.801-.82 1.801-1.836 0-1.017-.809-1.836-1.801-1.836-.993 0-1.802.82-1.802 1.836s.81 1.835 1.802 1.835z"/>
</svg>
