<svg xmlns="http://www.w3.org/2000/svg" width="40" height="40" viewBox="0 0 40 40">
    <g fill="none" fill-rule="evenodd" opacity=".6">
        <path fill="#FF746B" d="M18.485 23.752V12.244l-4.775 4.232a1 1 0 0 1-1.328 0l-.632-.562a1 1 0 0 1 0-1.495l7.586-6.743a1 1 0 0 1 1.328 0l7.586 6.743a1 1 0 0 1 0 1.495l-.632.562a1 1 0 0 1-1.328 0l-4.775-4.234V20l-3.03 3.752zm1.04 8.37h1.024a1 1 0 0 0 1-1.008l-.02-2.83a.885.885 0 0 0-1.509-.622l-1.2 1.193a1 1 0 0 0-.294.71v1.556a1 1 0 0 0 1 1z"/>
        <path fill="#FF746B" d="M22.942 17.087l.728.729a1 1 0 0 1 0 1.414l-8.228 8.228a1 1 0 0 1-1.414 0l-.729-.728a1 1 0 0 1 0-1.415l8.229-8.228a1 1 0 0 1 1.414 0z"/>
        <circle cx="20" cy="20" r="18.5" stroke="#FF746B" stroke-width="3"/>
    </g>
</svg>
