<?xml version="1.0" encoding="UTF-8" ?>
<!DOCTYPE svg PUBLIC "-//W3C//DTD SVG 1.1//EN" "http://www.w3.org/Graphics/SVG/1.1/DTD/svg11.dtd">
<svg width="22pt" height="22pt" viewBox="0 0 108 108" version="1.1" xmlns="http://www.w3.org/2000/svg">
<g id="#a4a4a4ff">
<path fill="#a4a4a4" opacity="1.00" d=" M 22.19 21.94 C 30.49 13.61 42.25 8.56 54.07 8.97 C 70.00 8.45 85.48 17.83 93.26 31.60 C 103.21 48.55 100.31 71.93 86.18 85.70 C 84.82 84.98 83.47 84.25 82.13 83.51 L 82.44 82.87 C 82.74 82.59 83.34 82.03 83.64 81.75 C 85.52 80.00 87.14 77.97 88.48 75.78 C 88.38 75.41 88.18 74.69 88.08 74.32 L 87.96 73.90 C 88.39 73.86 89.25 73.77 89.68 73.73 C 90.91 71.44 92.07 69.08 92.74 66.56 C 92.25 66.27 91.26 65.70 90.77 65.42 C 91.68 65.14 92.60 64.86 93.52 64.58 C 94.12 61.68 94.66 58.73 94.43 55.76 C 90.79 57.51 93.18 61.68 91.99 64.68 C 91.66 62.32 91.34 59.93 91.46 57.55 C 92.43 56.41 93.67 55.56 94.82 54.63 C 94.85 53.27 94.88 51.90 94.91 50.54 C 94.22 51.74 93.50 52.93 92.78 54.11 C 93.44 51.76 94.07 49.37 94.24 46.92 L 92.94 46.67 C 91.95 48.78 91.75 51.13 91.27 53.39 C 90.30 48.99 93.63 45.17 93.00 40.74 C 92.30 41.58 91.61 42.43 90.93 43.28 C 91.54 41.13 91.98 38.90 91.40 36.68 C 89.78 38.97 89.42 41.78 88.78 44.44 C 88.64 44.08 88.36 43.35 88.22 42.99 C 89.10 39.93 90.47 36.74 89.59 33.51 C 89.27 34.35 88.63 36.02 88.31 36.85 C 87.90 35.24 87.50 33.64 87.09 32.03 C 86.20 32.96 85.32 33.90 84.43 34.84 C 84.29 34.58 84.01 34.05 83.87 33.79 C 84.23 31.63 84.59 29.47 84.97 27.31 C 82.98 25.39 80.95 23.52 78.86 21.72 C 78.80 22.56 78.68 24.26 78.62 25.10 C 79.42 25.95 80.23 26.80 81.03 27.65 C 80.61 27.95 79.76 28.54 79.33 28.83 C 77.74 27.89 76.50 26.49 75.13 25.28 C 76.54 23.68 76.02 22.01 74.97 20.46 C 75.08 20.10 75.31 19.38 75.42 19.02 C 73.79 18.19 72.16 17.36 70.51 16.55 C 70.60 17.35 70.79 18.96 70.88 19.76 C 70.17 18.81 69.47 17.86 68.75 16.91 C 68.69 17.83 68.57 19.65 68.51 20.57 L 68.46 20.45 C 68.17 19.70 67.60 18.20 67.31 17.46 C 65.44 17.02 63.48 17.59 61.59 17.65 C 63.57 16.98 65.57 16.34 67.56 15.68 C 65.28 14.92 62.93 14.40 60.54 14.17 C 57.60 13.48 53.89 12.01 51.39 14.45 C 46.69 12.26 41.83 15.71 37.37 17.03 C 38.39 17.12 40.44 17.31 41.46 17.41 C 39.19 18.34 36.74 18.63 34.30 18.36 C 33.88 18.69 33.04 19.34 32.62 19.67 C 30.52 19.89 28.92 21.16 27.77 22.86 C 26.95 23.50 26.17 24.20 25.44 24.95 L 24.97 25.40 C 24.04 24.25 23.11 23.10 22.19 21.94 M 68.29 16.45 C 68.81 16.95 68.81 16.95 68.29 16.45 M 77.16 21.21 C 76.51 22.43 76.13 25.27 77.65 25.77 C 78.24 24.52 78.47 21.88 77.16 21.21 M 86.28 29.31 C 85.05 29.34 84.33 31.73 85.84 31.88 C 87.10 31.85 87.80 29.48 86.28 29.31 Z" />
<path fill="#a4a4a4" opacity="1.00" d=" M 32.76 33.53 C 38.51 27.64 46.70 24.23 54.96 24.58 C 63.52 24.67 71.50 29.18 77.11 35.46 C 78.45 35.43 79.80 35.40 81.14 35.37 C 79.96 35.58 78.79 35.79 77.61 35.99 C 79.58 39.28 81.52 42.67 82.36 46.46 C 83.09 48.56 82.88 51.94 86.02 51.61 C 85.26 51.70 83.74 51.88 82.98 51.98 C 83.65 52.39 85.01 53.22 85.69 53.64 C 85.06 53.68 83.80 53.76 83.17 53.80 C 83.86 54.67 84.54 55.54 85.23 56.41 C 84.55 56.94 83.87 57.46 83.20 57.99 C 82.16 64.87 78.92 71.39 73.67 76.03 C 74.26 71.96 70.09 69.64 67.24 67.64 C 75.79 59.76 74.72 43.40 64.06 37.88 C 55.08 33.36 44.70 36.78 35.17 35.00 C 34.57 34.64 33.36 33.90 32.76 33.53 Z" />
<path fill="#a4a4a4" opacity="1.00" d=" M 45.01 37.87 C 51.49 37.73 59.29 37.71 63.65 43.37 C 68.01 49.60 67.73 58.17 64.69 64.91 L 64.42 64.57 C 58.50 57.47 51.56 51.29 45.02 44.79 C 45.00 42.48 45.00 40.17 45.01 37.87 Z" />
</g>
<g id="#fefefeff">
<path fill="#fefefe" opacity="1.00" d=" M 37.37 17.03 C 41.83 15.71 46.69 12.26 51.39 14.45 C 53.89 12.01 57.60 13.48 60.54 14.17 C 62.93 14.40 65.28 14.92 67.56 15.68 C 65.57 16.34 63.57 16.98 61.59 17.65 C 63.48 17.59 65.44 17.02 67.31 17.46 C 67.60 18.20 68.17 19.70 68.46 20.45 C 65.55 19.72 62.68 18.88 59.89 17.79 C 56.27 18.30 52.15 18.66 49.57 15.51 C 47.62 15.40 45.67 15.30 43.72 15.22 C 44.69 15.47 46.63 15.98 47.59 16.23 C 46.01 16.96 44.31 17.34 42.63 17.77 C 44.23 17.85 45.83 17.95 47.43 18.07 C 43.73 18.98 40.14 20.29 36.86 22.25 C 35.29 22.16 33.75 21.87 32.21 21.56 C 34.24 21.20 36.49 21.38 38.27 20.14 C 36.39 19.92 34.50 19.76 32.62 19.67 C 33.04 19.34 33.88 18.69 34.30 18.36 C 36.74 18.63 39.19 18.34 41.46 17.41 C 40.44 17.31 38.39 17.12 37.37 17.03 M 54.26 14.19 C 54.35 15.60 56.88 15.34 57.73 14.66 C 57.60 13.27 55.11 13.50 54.26 14.19 M 53.29 16.32 C 53.18 17.78 56.72 17.74 56.62 16.30 C 55.51 15.58 54.40 15.59 53.29 16.32 Z" />
<path fill="#fefefe" opacity="1.00" d=" M 78.86 21.72 C 80.95 23.52 82.98 25.39 84.97 27.31 C 84.59 29.47 84.23 31.63 83.87 33.79 C 83.40 32.70 82.94 31.60 82.50 30.50 C 81.44 29.95 80.38 29.40 79.33 28.83 C 79.76 28.54 80.61 27.95 81.03 27.65 C 80.23 26.80 79.42 25.95 78.62 25.10 C 78.68 24.26 78.80 22.56 78.86 21.72 Z" />
<path fill="#fefefe" opacity="1.00" d=" M 32.35 23.36 C 32.96 23.31 34.17 23.21 34.77 23.16 C 32.22 25.20 29.75 27.45 26.67 28.68 C 26.52 28.37 26.21 27.76 26.06 27.45 C 28.63 26.90 30.57 25.19 32.35 23.36 Z" />
<path fill="#fefefe" opacity="1.00" d=" M 19.42 33.08 C 19.37 32.14 19.69 31.32 20.39 30.63 C 20.77 31.21 21.55 32.36 21.93 32.93 C 21.30 32.97 20.05 33.04 19.42 33.08 Z" />
<path fill="#fefefe" opacity="1.00" d=" M 84.43 34.84 C 85.32 33.90 86.20 32.96 87.09 32.03 C 87.50 33.64 87.90 35.24 88.31 36.85 C 88.63 36.02 89.27 34.35 89.59 33.51 C 90.47 36.74 89.10 39.93 88.22 42.99 C 87.90 41.58 87.60 40.16 87.33 38.74 C 86.35 37.45 85.36 36.16 84.43 34.84 Z" />
<path fill="#fefefe" opacity="1.00" d=" M 80.37 85.10 C 79.78 84.31 78.51 82.34 80.10 81.92 C 80.69 82.16 81.86 82.63 82.44 82.87 L 82.13 83.51 C 81.69 83.91 80.81 84.71 80.37 85.10 Z" />
<path fill="#fefefe" opacity="1.00" d=" M 74.06 85.09 C 74.32 83.95 74.95 83.07 75.95 82.44 C 77.71 83.80 75.64 85.44 74.06 85.09 Z" />
<path fill="#fefefe" opacity="1.00" d=" M 32.02 85.66 C 32.20 85.09 32.56 83.96 32.74 83.40 C 35.14 85.03 38.28 86.01 39.53 88.89 C 39.31 89.14 38.87 89.62 38.65 89.87 C 38.11 88.83 37.58 87.79 37.05 86.76 C 36.15 87.09 35.26 87.42 34.37 87.75 C 33.58 87.05 32.80 86.35 32.02 85.66 Z" />
<path fill="#fefefe" opacity="1.00" d=" M 34.02 89.35 C 35.43 88.27 37.59 88.83 37.33 90.88 C 36.08 90.73 34.96 90.16 34.02 89.35 Z" />
<path fill="#fefefe" opacity="1.00" d=" M 48.29 90.11 C 50.75 89.99 53.21 90.08 55.67 90.19 C 56.48 90.98 57.30 91.77 58.12 92.56 C 60.11 92.70 62.09 92.91 64.06 93.18 C 61.67 94.20 59.02 94.84 56.61 93.50 C 55.05 95.15 52.74 94.99 50.66 95.02 C 52.02 94.53 53.34 93.97 54.68 93.43 C 52.06 93.27 49.44 92.76 48.29 90.11 M 51.40 91.34 C 51.22 92.88 54.79 92.73 54.63 91.28 C 53.53 90.57 52.45 90.59 51.40 91.34 Z" />
</g>
<g id="#c0c0c0ff">
<path fill="#c0c0c0" opacity="1.00" d=" M 54.26 14.19 C 55.11 13.50 57.60 13.27 57.73 14.66 C 56.88 15.34 54.35 15.60 54.26 14.19 Z" />
</g>
<g id="#999999ff">
<path fill="#999999" opacity="1.00" d=" M 43.72 15.22 C 45.67 15.30 47.62 15.40 49.57 15.51 C 52.15 18.66 56.27 18.30 59.89 17.79 C 62.68 18.88 65.55 19.72 68.46 20.45 L 68.51 20.57 C 70.60 22.30 72.94 23.68 75.13 25.28 C 76.50 26.49 77.74 27.89 79.33 28.83 C 80.38 29.40 81.44 29.95 82.50 30.50 C 82.94 31.60 83.40 32.70 83.87 33.79 C 84.01 34.05 84.29 34.58 84.43 34.84 C 85.36 36.16 86.35 37.45 87.33 38.74 C 87.60 40.16 87.90 41.58 88.22 42.99 C 88.36 43.35 88.64 44.08 88.78 44.44 C 89.24 45.16 89.72 45.88 90.22 46.59 C 89.67 49.64 89.88 52.74 90.49 55.76 C 89.78 58.62 89.34 61.53 89.15 64.46 C 87.76 66.86 86.59 69.36 85.57 71.93 C 86.52 72.06 88.42 72.32 89.36 72.45 C 87.88 72.62 86.40 72.79 84.91 72.96 C 83.28 74.94 81.78 77.03 80.39 79.20 C 82.10 79.05 83.80 78.91 85.51 78.80 C 83.26 79.44 80.94 79.84 78.64 80.31 C 77.72 80.98 76.84 81.72 75.95 82.44 C 74.95 83.07 74.32 83.95 74.06 85.09 C 73.56 85.17 72.58 85.33 72.09 85.41 C 67.51 88.26 62.31 89.53 57.03 90.29 C 59.45 92.59 63.35 91.73 66.20 93.42 C 65.61 91.17 63.38 91.02 61.49 90.56 L 61.56 89.67 C 63.83 90.22 66.00 91.10 67.99 92.33 C 70.60 91.32 73.10 90.03 75.37 88.37 C 73.51 87.98 71.65 87.59 69.81 87.15 C 71.53 87.15 73.26 87.20 74.98 87.31 C 75.35 87.54 76.07 88.01 76.44 88.24 C 77.77 87.22 79.08 86.17 80.37 85.10 C 80.81 84.71 81.69 83.91 82.13 83.51 C 83.47 84.25 84.82 84.98 86.18 85.70 C 77.88 93.74 66.70 98.89 55.07 99.01 C 40.27 99.52 25.57 92.05 17.15 79.90 C 8.42 67.70 6.54 51.05 12.21 37.18 C 14.42 31.45 18.07 26.44 22.19 21.94 C 23.11 23.10 24.04 24.25 24.97 25.40 C 23.21 26.93 21.72 28.73 20.39 30.63 C 19.69 31.32 19.37 32.14 19.42 33.08 C 20.05 33.04 21.30 32.97 21.93 32.93 L 22.34 33.50 C 20.86 33.61 19.37 33.75 17.89 33.90 C 17.11 35.88 16.49 38.05 17.87 39.98 C 18.44 39.59 19.58 38.82 20.15 38.43 C 18.98 40.94 16.98 42.75 14.28 43.47 C 13.68 46.28 13.21 49.11 12.91 51.97 C 14.07 51.19 15.21 50.39 16.34 49.58 C 15.78 47.73 15.65 45.81 16.09 43.93 C 15.94 46.24 16.30 48.53 17.20 50.67 C 15.83 51.50 14.39 52.24 13.07 53.16 C 12.97 54.79 12.96 56.42 13.05 58.06 C 13.96 56.40 14.83 54.71 15.65 53.01 C 14.89 54.93 14.18 56.88 13.48 58.83 C 14.59 62.90 13.79 68.45 17.92 70.91 C 18.20 69.24 18.48 67.57 18.75 65.90 C 18.46 68.22 17.99 70.52 17.84 72.86 C 18.43 74.96 19.72 76.84 21.27 78.36 C 22.65 80.17 23.30 77.21 23.64 76.22 C 23.83 77.30 24.02 78.37 24.22 79.45 C 23.77 79.49 22.87 79.58 22.42 79.62 C 24.22 82.45 26.59 84.87 29.55 86.47 C 29.49 84.07 28.51 81.92 27.28 79.91 C 29.28 82.08 29.89 84.95 30.43 87.75 C 31.62 88.30 32.81 88.83 34.02 89.35 C 34.96 90.16 36.08 90.73 37.33 90.88 C 37.82 91.11 38.80 91.57 39.29 91.81 L 39.50 91.91 C 41.26 92.93 43.21 93.56 45.21 93.96 C 45.53 94.03 46.17 94.17 46.49 94.23 C 47.88 94.51 49.26 94.84 50.66 95.02 C 52.74 94.99 55.05 95.15 56.61 93.50 C 59.02 94.84 61.67 94.20 64.06 93.18 C 62.09 92.91 60.11 92.70 58.12 92.56 C 57.30 91.77 56.48 90.98 55.67 90.19 C 53.21 90.08 50.75 89.99 48.29 90.11 C 47.96 90.15 47.32 90.22 46.99 90.26 C 46.51 88.99 45.53 88.49 44.07 88.76 C 43.52 88.59 42.41 88.24 41.85 88.06 C 41.34 88.19 40.32 88.46 39.81 88.59 L 39.53 88.89 C 38.28 86.01 35.14 85.03 32.74 83.40 C 32.53 83.22 32.13 82.86 31.93 82.68 C 27.82 79.15 24.10 75.22 21.90 70.19 C 21.58 70.21 20.94 70.24 20.61 70.25 C 20.54 67.09 19.93 63.92 17.96 61.36 C 18.14 58.65 18.06 55.94 17.93 53.22 C 17.88 47.21 20.12 41.53 22.46 36.09 C 21.56 35.93 19.77 35.60 18.88 35.43 C 20.41 35.29 21.94 35.16 23.48 35.02 C 24.38 33.70 25.29 32.39 26.19 31.08 C 26.34 30.57 26.62 29.56 26.76 29.06 L 26.67 28.68 C 29.75 27.45 32.22 25.20 34.77 23.16 C 35.47 22.87 36.17 22.56 36.86 22.25 C 40.14 20.29 43.73 18.98 47.43 18.07 C 45.83 17.95 44.23 17.85 42.63 17.77 C 44.31 17.34 46.01 16.96 47.59 16.23 C 46.63 15.98 44.69 15.47 43.72 15.22 M 48.03 16.47 C 48.19 16.90 48.53 17.77 48.70 18.20 C 50.81 18.22 49.54 15.00 48.03 16.47 M 48.65 20.55 C 48.62 21.43 48.56 23.21 48.53 24.10 C 48.46 22.75 48.39 21.40 48.31 20.05 C 46.29 20.44 46.84 22.64 46.38 24.07 C 46.32 23.18 46.19 21.39 46.12 20.50 C 45.72 20.99 44.92 21.97 44.52 22.47 C 44.26 22.30 43.76 21.97 43.51 21.81 C 39.42 22.47 36.15 25.27 32.60 27.19 C 32.62 28.47 32.65 29.75 32.68 31.04 C 32.48 30.34 32.07 28.94 31.87 28.24 C 22.88 35.99 18.59 48.52 20.62 60.18 C 21.75 60.28 22.88 60.38 24.01 60.49 C 23.11 60.59 21.30 60.79 20.39 60.89 C 21.00 61.30 22.23 62.11 22.84 62.52 C 22.37 62.68 21.44 63.01 20.97 63.18 C 21.49 63.64 22.02 64.10 22.55 64.56 C 22.35 64.99 21.96 65.85 21.76 66.28 C 22.82 66.35 23.88 66.42 24.94 66.49 C 24.37 66.62 23.23 66.88 22.65 67.01 C 23.81 69.63 25.21 72.14 26.86 74.48 C 28.28 74.47 29.70 74.47 31.12 74.49 C 30.17 74.62 28.27 74.90 27.32 75.03 C 28.09 76.22 29.28 76.64 30.87 76.27 C 27.36 77.75 32.37 79.49 34.04 79.80 L 32.50 80.33 C 34.20 81.36 35.91 82.41 37.47 83.66 C 37.76 83.60 38.35 83.48 38.65 83.43 C 38.74 83.78 38.91 84.48 39.00 84.84 C 39.35 84.81 40.05 84.76 40.40 84.73 C 42.64 85.82 45.10 87.38 47.69 86.56 C 47.83 86.80 48.11 87.28 48.25 87.52 C 51.91 87.83 55.63 88.12 59.26 87.34 C 59.35 86.18 59.45 85.01 59.56 83.85 C 59.59 84.85 59.66 86.85 59.69 87.85 C 61.55 87.37 61.14 85.28 61.62 83.89 C 61.70 84.76 61.85 86.52 61.92 87.40 C 62.32 86.89 63.11 85.89 63.51 85.39 C 63.92 85.67 64.74 86.23 65.15 86.52 C 65.28 85.35 65.39 84.18 65.51 83.02 C 65.61 83.67 65.82 84.97 65.92 85.62 C 67.26 85.28 68.56 84.82 69.83 84.26 C 69.71 82.58 69.59 80.91 69.48 79.23 C 65.80 81.19 61.86 82.66 57.73 83.29 C 57.65 84.23 57.57 85.17 57.48 86.11 C 57.46 85.39 57.40 83.96 57.38 83.24 L 55.60 83.29 C 55.61 83.98 55.65 85.37 55.66 86.06 C 55.52 85.36 55.23 83.95 55.08 83.24 C 54.62 83.58 53.69 84.25 53.23 84.59 L 53.04 83.12 C 52.69 83.45 51.97 84.12 51.61 84.45 C 51.45 84.20 51.12 83.72 50.96 83.47 C 47.81 82.78 44.71 81.92 41.57 81.22 C 41.40 80.97 41.06 80.48 40.89 80.24 C 40.58 80.25 39.95 80.29 39.64 80.30 C 36.78 77.66 33.43 75.57 30.95 72.53 C 29.57 72.53 28.20 72.55 26.82 72.55 C 27.80 72.41 29.76 72.12 30.74 71.98 C 29.92 70.08 27.59 70.78 25.97 70.40 C 26.79 70.34 28.43 70.23 29.25 70.17 C 26.72 66.06 25.32 61.41 24.43 56.69 C 23.78 56.63 22.48 56.51 21.84 56.45 C 22.63 56.41 24.22 56.35 25.01 56.31 C 24.47 55.09 23.49 54.42 22.08 54.29 C 22.76 54.28 24.14 54.26 24.82 54.25 C 24.51 53.83 23.88 53.01 23.56 52.59 C 23.92 52.19 24.64 51.39 25.00 50.99 C 24.54 50.90 23.62 50.72 23.15 50.63 C 23.54 50.48 24.32 50.19 24.71 50.04 C 25.90 43.98 28.15 37.86 32.76 33.53 C 33.36 33.90 34.57 34.64 35.17 35.00 C 34.26 38.37 40.08 36.87 39.57 40.05 C 39.68 49.33 39.65 58.62 39.58 67.91 C 39.98 70.93 35.01 69.80 34.83 72.71 C 41.23 72.43 47.64 72.54 54.05 72.48 C 58.83 72.48 63.71 70.95 67.24 67.64 C 70.09 69.64 74.26 71.96 73.67 76.03 C 73.10 76.51 71.96 77.47 71.39 77.95 C 71.39 79.65 71.40 81.35 71.42 83.05 C 74.37 82.87 73.22 80.04 73.26 78.29 L 73.78 78.31 C 73.80 79.13 73.84 80.79 73.86 81.61 C 75.97 80.98 75.22 78.61 75.47 77.03 C 75.68 77.72 76.09 79.10 76.29 79.80 C 76.62 79.24 77.27 78.12 77.59 77.56 C 77.88 77.58 78.46 77.61 78.75 77.63 C 79.68 76.12 80.67 74.63 81.80 73.26 C 81.68 72.72 81.44 71.63 81.32 71.09 L 82.28 72.36 L 82.80 72.19 C 84.59 68.22 87.77 63.97 86.64 59.41 C 86.91 59.34 87.44 59.19 87.71 59.12 C 88.12 55.33 88.02 51.48 87.35 47.72 C 86.20 47.63 85.05 47.54 83.91 47.44 C 84.84 47.39 86.72 47.28 87.66 47.23 C 86.99 45.87 85.77 45.30 84.01 45.51 C 85.07 45.33 86.12 45.15 87.18 44.97 C 86.76 44.60 85.93 43.85 85.52 43.47 C 85.66 43.17 85.93 42.57 86.07 42.27 C 84.46 38.51 82.42 34.95 79.97 31.68 C 79.23 31.67 77.74 31.66 77.00 31.66 C 77.51 31.46 78.53 31.06 79.05 30.86 C 76.67 28.17 73.55 26.42 70.66 24.37 C 70.42 24.36 69.94 24.32 69.70 24.30 C 67.67 22.13 64.62 21.71 61.92 20.88 C 61.58 20.97 60.90 21.16 60.56 21.25 C 56.93 19.11 52.60 20.21 48.65 20.55 M 16.26 39.25 C 14.76 39.78 14.91 42.76 16.86 41.95 C 18.72 41.64 18.04 38.62 16.26 39.25 M 70.19 79.24 C 69.51 80.12 69.43 82.58 70.83 82.67 C 71.49 81.79 71.57 79.32 70.19 79.24 Z" />
<path fill="#999999" opacity="1.00" d=" M 45.02 44.79 C 51.56 51.29 58.50 57.47 64.42 64.57 C 60.19 70.59 51.49 71.01 45.01 69.15 C 45.00 61.03 44.98 52.91 45.02 44.79 Z" />
</g>
<g id="#f8f8f8ff">
<path fill="#f8f8f8" opacity="1.00" d=" M 48.03 16.47 C 49.54 15.00 50.81 18.22 48.70 18.20 C 48.53 17.77 48.19 16.90 48.03 16.47 Z" />
</g>
<g id="#bbbbbbff">
<path fill="#bbbbbb" opacity="1.00" d=" M 53.29 16.32 C 54.40 15.59 55.51 15.58 56.62 16.30 C 56.72 17.74 53.18 17.78 53.29 16.32 Z" />
</g>
<g id="#fdfdfdff">
<path fill="#fdfdfd" opacity="1.00" d=" M 68.29 16.45 C 68.81 16.95 68.81 16.95 68.29 16.45 Z" />
<path fill="#fdfdfd" opacity="1.00" d=" M 47.24 91.17 C 47.72 91.71 47.72 91.71 47.24 91.17 Z" />
<path fill="#fdfdfd" opacity="1.00" d=" M 48.35 93.30 C 48.86 93.81 48.86 93.81 48.35 93.30 Z" />
</g>
<g id="#cbcbcbff">
<path fill="#cbcbcb" opacity="1.00" d=" M 70.51 16.55 C 72.16 17.36 73.79 18.19 75.42 19.02 C 75.31 19.38 75.08 20.10 74.97 20.46 C 76.02 22.01 76.54 23.68 75.13 25.28 C 72.94 23.68 70.60 22.30 68.51 20.57 C 68.57 19.65 68.69 17.83 68.75 16.91 C 69.47 17.86 70.17 18.81 70.88 19.76 C 70.79 18.96 70.60 17.35 70.51 16.55 Z" />
</g>
<g id="#bebebeff">
<path fill="#bebebe" opacity="1.00" d=" M 27.77 22.86 C 28.92 21.16 30.52 19.89 32.62 19.67 C 34.50 19.76 36.39 19.92 38.27 20.14 C 36.49 21.38 34.24 21.20 32.21 21.56 C 33.75 21.87 35.29 22.16 36.86 22.25 C 36.17 22.56 35.47 22.87 34.77 23.16 C 34.17 23.21 32.96 23.31 32.35 23.36 C 30.57 25.19 28.63 26.90 26.06 27.45 C 26.21 27.76 26.52 28.37 26.67 28.68 L 26.76 29.06 C 24.33 27.81 23.57 30.77 26.19 31.08 C 25.29 32.39 24.38 33.70 23.48 35.02 C 23.19 34.64 22.63 33.88 22.34 33.50 L 21.93 32.93 C 21.55 32.36 20.77 31.21 20.39 30.63 C 21.72 28.73 23.21 26.93 24.97 25.40 L 25.44 24.95 C 26.98 27.36 29.30 24.76 27.77 22.86 Z" />
<path fill="#bebebe" opacity="1.00" d=" M 31.93 82.68 C 32.13 82.86 32.53 83.22 32.74 83.40 C 32.56 83.96 32.20 85.09 32.02 85.66 C 32.80 86.35 33.58 87.05 34.37 87.75 C 35.26 87.42 36.15 87.09 37.05 86.76 C 37.58 87.79 38.11 88.83 38.65 89.87 C 38.87 89.62 39.31 89.14 39.53 88.89 L 39.81 88.59 C 40.13 89.84 40.88 90.66 42.06 91.03 C 43.39 90.60 42.33 88.80 41.85 88.06 C 42.41 88.24 43.52 88.59 44.07 88.76 C 44.65 90.07 45.62 90.57 46.99 90.26 C 47.32 90.22 47.96 90.15 48.29 90.11 C 49.44 92.76 52.06 93.27 54.68 93.43 C 53.34 93.97 52.02 94.53 50.66 95.02 C 49.26 94.84 47.88 94.51 46.49 94.23 C 46.56 92.99 46.20 91.31 44.78 91.02 C 43.30 91.36 44.63 93.31 45.21 93.96 C 43.21 93.56 41.26 92.93 39.50 91.91 C 39.42 91.86 39.28 91.77 39.21 91.73 L 39.29 91.81 C 38.80 91.57 37.82 91.11 37.33 90.88 C 37.59 88.83 35.43 88.27 34.02 89.35 C 32.81 88.83 31.62 88.30 30.43 87.75 C 30.98 86.08 31.47 84.38 31.93 82.68 M 47.24 91.17 C 47.72 91.71 47.72 91.71 47.24 91.17 M 48.35 93.30 C 48.86 93.81 48.86 93.81 48.35 93.30 Z" />
</g>
<g id="#e9e9ebff">
<path fill="#e9e9eb" opacity="1.00" d=" M 48.65 20.55 C 52.60 20.21 56.93 19.11 60.56 21.25 C 60.90 21.16 61.58 20.97 61.92 20.88 C 64.62 21.71 67.67 22.13 69.70 24.30 C 69.94 24.32 70.42 24.36 70.66 24.37 C 73.55 26.42 76.67 28.17 79.05 30.86 C 78.53 31.06 77.51 31.46 77.00 31.66 C 77.74 31.66 79.23 31.67 79.97 31.68 C 82.42 34.95 84.46 38.51 86.07 42.27 C 85.93 42.57 85.66 43.17 85.52 43.47 C 85.93 43.85 86.76 44.60 87.18 44.97 C 86.12 45.15 85.07 45.33 84.01 45.51 C 85.77 45.30 86.99 45.87 87.66 47.23 C 86.72 47.28 84.84 47.39 83.91 47.44 C 85.05 47.54 86.20 47.63 87.35 47.72 C 88.02 51.48 88.12 55.33 87.71 59.12 C 87.44 59.19 86.91 59.34 86.64 59.41 C 87.77 63.97 84.59 68.22 82.80 72.19 L 82.28 72.36 L 81.32 71.09 C 81.44 71.63 81.68 72.72 81.80 73.26 C 80.67 74.63 79.68 76.12 78.75 77.63 C 78.46 77.61 77.88 77.58 77.59 77.56 C 77.27 78.12 76.62 79.24 76.29 79.80 C 76.09 79.10 75.68 77.72 75.47 77.03 C 75.22 78.61 75.97 80.98 73.86 81.61 C 73.84 80.79 73.80 79.13 73.78 78.31 L 73.26 78.29 C 73.22 80.04 74.37 82.87 71.42 83.05 C 71.40 81.35 71.39 79.65 71.39 77.95 C 71.96 77.47 73.10 76.51 73.67 76.03 C 78.92 71.39 82.16 64.87 83.20 57.99 C 83.87 57.46 84.55 56.94 85.23 56.41 C 84.54 55.54 83.86 54.67 83.17 53.80 C 83.80 53.76 85.06 53.68 85.69 53.64 C 85.01 53.22 83.65 52.39 82.98 51.98 C 83.74 51.88 85.26 51.70 86.02 51.61 C 82.88 51.94 83.09 48.56 82.36 46.46 C 81.52 42.67 79.58 39.28 77.61 35.99 C 78.79 35.79 79.96 35.58 81.14 35.37 C 79.80 35.40 78.45 35.43 77.11 35.46 C 71.50 29.18 63.52 24.67 54.96 24.58 C 46.70 24.23 38.51 27.64 32.76 33.53 C 28.15 37.86 25.90 43.98 24.71 50.04 C 24.32 50.19 23.54 50.48 23.15 50.63 C 23.62 50.72 24.54 50.90 25.00 50.99 C 24.64 51.39 23.92 52.19 23.56 52.59 C 23.88 53.01 24.51 53.83 24.82 54.25 C 24.14 54.26 22.76 54.28 22.08 54.29 C 23.49 54.42 24.47 55.09 25.01 56.31 C 24.22 56.35 22.63 56.41 21.84 56.45 C 22.48 56.51 23.78 56.63 24.43 56.69 C 25.32 61.41 26.72 66.06 29.25 70.17 C 28.43 70.23 26.79 70.34 25.97 70.40 C 27.59 70.78 29.92 70.08 30.74 71.98 C 29.76 72.12 27.80 72.41 26.82 72.55 C 28.20 72.55 29.57 72.53 30.95 72.53 C 33.43 75.57 36.78 77.66 39.64 80.30 C 39.95 80.29 40.58 80.25 40.89 80.24 C 41.06 80.48 41.40 80.97 41.57 81.22 C 44.71 81.92 47.81 82.78 50.96 83.47 C 51.12 83.72 51.45 84.20 51.61 84.45 C 51.97 84.12 52.69 83.45 53.04 83.12 L 53.23 84.59 C 53.69 84.25 54.62 83.58 55.08 83.24 C 55.23 83.95 55.52 85.36 55.66 86.06 C 55.65 85.37 55.61 83.98 55.60 83.29 L 57.38 83.24 C 57.40 83.96 57.46 85.39 57.48 86.11 C 57.57 85.17 57.65 84.23 57.73 83.29 C 61.86 82.66 65.80 81.19 69.48 79.23 C 69.59 80.91 69.71 82.58 69.83 84.26 C 68.56 84.82 67.26 85.28 65.92 85.62 C 65.82 84.97 65.61 83.67 65.51 83.02 C 65.39 84.18 65.28 85.35 65.15 86.52 C 64.74 86.23 63.92 85.67 63.51 85.39 C 63.11 85.89 62.32 86.89 61.92 87.40 C 61.85 86.52 61.70 84.76 61.62 83.89 C 61.14 85.28 61.55 87.37 59.69 87.85 C 59.66 86.85 59.59 84.85 59.56 83.85 C 59.45 85.01 59.35 86.18 59.26 87.34 C 55.63 88.12 51.91 87.83 48.25 87.52 C 48.11 87.28 47.83 86.80 47.69 86.56 C 45.10 87.38 42.64 85.82 40.40 84.73 C 40.05 84.76 39.35 84.81 39.00 84.84 C 38.91 84.48 38.74 83.78 38.65 83.43 C 38.35 83.48 37.76 83.60 37.47 83.66 C 35.91 82.41 34.20 81.36 32.50 80.33 L 34.04 79.80 C 32.37 79.49 27.36 77.75 30.87 76.27 C 29.28 76.64 28.09 76.22 27.32 75.03 C 28.27 74.90 30.17 74.62 31.12 74.49 C 29.70 74.47 28.28 74.47 26.86 74.48 C 25.21 72.14 23.81 69.63 22.65 67.01 C 23.23 66.88 24.37 66.62 24.94 66.49 C 23.88 66.42 22.82 66.35 21.76 66.28 C 21.96 65.85 22.35 64.99 22.55 64.56 C 22.02 64.10 21.49 63.64 20.97 63.18 C 21.44 63.01 22.37 62.68 22.84 62.52 C 22.23 62.11 21.00 61.30 20.39 60.89 C 21.30 60.79 23.11 60.59 24.01 60.49 C 22.88 60.38 21.75 60.28 20.62 60.18 C 18.59 48.52 22.88 35.99 31.87 28.24 C 32.07 28.94 32.48 30.34 32.68 31.04 C 32.65 29.75 32.62 28.47 32.60 27.19 C 36.15 25.27 39.42 22.47 43.51 21.81 C 43.76 21.97 44.26 22.30 44.52 22.47 C 44.92 21.97 45.72 20.99 46.12 20.50 C 46.19 21.39 46.32 23.18 46.38 24.07 C 46.84 22.64 46.29 20.44 48.31 20.05 C 48.39 21.40 48.46 22.75 48.53 24.10 C 48.56 23.21 48.62 21.43 48.65 20.55 Z" />
</g>
<g id="#f4f4f4ff">
<path fill="#f4f4f4" opacity="1.00" d=" M 77.16 21.21 C 78.47 21.88 78.24 24.52 77.65 25.77 C 76.13 25.27 76.51 22.43 77.16 21.21 Z" />
<path fill="#f4f4f4" opacity="1.00" d=" M 86.28 29.31 C 87.80 29.48 87.10 31.85 85.84 31.88 C 84.33 31.73 85.05 29.34 86.28 29.31 Z" />
</g>
<g id="#f0f0f0ff">
<path fill="#f0f0f0" opacity="1.00" d=" M 25.44 24.95 C 26.17 24.20 26.95 23.50 27.77 22.86 C 29.30 24.76 26.98 27.36 25.44 24.95 Z" />
</g>
<g id="#f5f5f5ff">
<path fill="#f5f5f5" opacity="1.00" d=" M 26.19 31.08 C 23.57 30.77 24.33 27.81 26.76 29.06 C 26.62 29.56 26.34 30.57 26.19 31.08 Z" />
<path fill="#f5f5f5" opacity="1.00" d=" M 88.78 44.44 C 89.42 41.78 89.78 38.97 91.40 36.68 C 91.98 38.90 91.54 41.13 90.93 43.28 C 91.61 42.43 92.30 41.58 93.00 40.74 C 93.63 45.17 90.30 48.99 91.27 53.39 C 91.75 51.13 91.95 48.78 92.94 46.67 L 94.24 46.92 C 94.07 49.37 93.44 51.76 92.78 54.11 C 92.72 54.21 92.60 54.39 92.54 54.49 C 92.60 54.39 92.72 54.21 92.78 54.11 C 93.50 52.93 94.22 51.74 94.91 50.54 C 94.88 51.90 94.85 53.27 94.82 54.63 C 93.67 55.56 92.43 56.41 91.46 57.55 C 91.34 59.93 91.66 62.32 91.99 64.68 C 93.18 61.68 90.79 57.51 94.43 55.76 C 94.66 58.73 94.12 61.68 93.52 64.58 C 92.60 64.86 91.68 65.14 90.77 65.42 C 91.26 65.70 92.25 66.27 92.74 66.56 C 92.07 69.08 90.91 71.44 89.68 73.73 C 89.25 73.77 88.39 73.86 87.96 73.90 C 86.10 73.77 83.77 74.44 83.81 76.69 C 85.45 76.39 86.90 75.48 88.08 74.32 C 88.18 74.69 88.38 75.41 88.48 75.78 C 87.14 77.97 85.52 80.00 83.64 81.75 C 81.98 81.25 80.31 80.77 78.64 80.31 C 80.94 79.84 83.26 79.44 85.51 78.80 C 83.80 78.91 82.10 79.05 80.39 79.20 C 81.78 77.03 83.28 74.94 84.91 72.96 C 86.40 72.79 87.88 72.62 89.36 72.45 C 88.42 72.32 86.52 72.06 85.57 71.93 C 86.59 69.36 87.76 66.86 89.15 64.46 C 89.34 61.53 89.78 58.62 90.49 55.76 C 89.88 52.74 89.67 49.64 90.22 46.59 C 89.72 45.88 89.24 45.16 88.78 44.44 M 88.09 68.25 C 86.52 71.23 91.39 68.45 88.09 68.25 Z" />
</g>
<g id="#c9c9c9ff">
<path fill="#c9c9c9" opacity="1.00" d=" M 17.89 33.90 C 19.37 33.75 20.86 33.61 22.34 33.50 C 22.63 33.88 23.19 34.64 23.48 35.02 C 21.94 35.16 20.41 35.29 18.88 35.43 C 19.77 35.60 21.56 35.93 22.46 36.09 C 20.12 41.53 17.88 47.21 17.93 53.22 C 18.06 55.94 18.14 58.65 17.96 61.36 C 19.93 63.92 20.54 67.09 20.61 70.25 C 20.94 70.24 21.58 70.21 21.90 70.19 C 24.10 75.22 27.82 79.15 31.93 82.68 C 31.47 84.38 30.98 86.08 30.43 87.75 C 29.89 84.95 29.28 82.08 27.28 79.91 C 28.51 81.92 29.49 84.07 29.55 86.47 C 26.59 84.87 24.22 82.45 22.42 79.62 C 22.87 79.58 23.77 79.49 24.22 79.45 C 24.02 78.37 23.83 77.30 23.64 76.22 C 23.30 77.21 22.65 80.17 21.27 78.36 C 19.72 76.84 18.43 74.96 17.84 72.86 C 17.99 70.52 18.46 68.22 18.75 65.90 C 18.48 67.57 18.20 69.24 17.92 70.91 C 13.79 68.45 14.59 62.90 13.48 58.83 C 14.18 56.88 14.89 54.93 15.65 53.01 C 14.83 54.71 13.96 56.40 13.05 58.06 C 12.96 56.42 12.97 54.79 13.07 53.16 C 14.39 52.24 15.83 51.50 17.20 50.67 C 16.30 48.53 15.94 46.24 16.09 43.93 C 15.65 45.81 15.78 47.73 16.34 49.58 C 15.21 50.39 14.07 51.19 12.91 51.97 C 13.21 49.11 13.68 46.28 14.28 43.47 C 16.98 42.75 18.98 40.94 20.15 38.43 C 19.58 38.82 18.44 39.59 17.87 39.98 C 16.49 38.05 17.11 35.88 17.89 33.90 Z" />
</g>
<g id="#fcfdffff">
<path fill="#fcfdff" opacity="1.00" d=" M 35.17 35.00 C 44.70 36.78 55.08 33.36 64.06 37.88 C 74.72 43.40 75.79 59.76 67.24 67.64 C 63.71 70.95 58.83 72.48 54.05 72.48 C 47.64 72.54 41.23 72.43 34.83 72.71 C 35.01 69.80 39.98 70.93 39.58 67.91 C 39.65 58.62 39.68 49.33 39.57 40.05 C 40.08 36.87 34.26 38.37 35.17 35.00 M 45.01 37.87 C 45.00 40.17 45.00 42.48 45.02 44.79 C 44.98 52.91 45.00 61.03 45.01 69.15 C 51.49 71.01 60.19 70.59 64.42 64.57 L 64.69 64.91 C 67.73 58.17 68.01 49.60 63.65 43.37 C 59.29 37.71 51.49 37.73 45.01 37.87 Z" />
<path fill="#fcfdff" opacity="1.00" d=" M 57.03 90.29 C 62.31 89.53 67.51 88.26 72.09 85.41 C 73.05 86.04 74.02 86.68 74.98 87.31 C 73.26 87.20 71.53 87.15 69.81 87.15 C 71.65 87.59 73.51 87.98 75.37 88.37 C 73.10 90.03 70.60 91.32 67.99 92.33 C 66.00 91.10 63.83 90.22 61.56 89.67 L 61.49 90.56 C 63.38 91.02 65.61 91.17 66.20 93.42 C 63.35 91.73 59.45 92.59 57.03 90.29 M 67.25 90.08 C 67.43 93.36 70.28 88.55 67.25 90.08 Z" />
</g>
<g id="#ebebebff">
<path fill="#ebebeb" opacity="1.00" d=" M 16.26 39.25 C 18.04 38.62 18.72 41.64 16.86 41.95 C 14.91 42.76 14.76 39.78 16.26 39.25 Z" />
</g>
<g id="#b9b9b9ff">
<path fill="#b9b9b9" opacity="1.00" d=" M 92.54 54.49 C 92.60 54.39 92.72 54.21 92.78 54.11 C 92.72 54.21 92.60 54.39 92.54 54.49 Z" />
</g>
<g id="#bdbdbdff">
<path fill="#bdbdbd" opacity="1.00" d=" M 88.09 68.25 C 91.39 68.45 86.52 71.23 88.09 68.25 Z" />
</g>
<g id="#c3c3c3ff">
<path fill="#c3c3c3" opacity="1.00" d=" M 83.81 76.69 C 83.77 74.44 86.10 73.77 87.96 73.90 L 88.08 74.32 C 86.90 75.48 85.45 76.39 83.81 76.69 Z" />
</g>
<g id="#f3f4f6ff">
<path fill="#f3f4f6" opacity="1.00" d=" M 70.19 79.24 C 71.57 79.32 71.49 81.79 70.83 82.67 C 69.43 82.58 69.51 80.12 70.19 79.24 Z" />
</g>
<g id="#d0d0d0ff">
<path fill="#d0d0d0" opacity="1.00" d=" M 75.95 82.44 C 76.84 81.72 77.72 80.98 78.64 80.31 C 80.31 80.77 81.98 81.25 83.64 81.75 C 83.34 82.03 82.74 82.59 82.44 82.87 C 81.86 82.63 80.69 82.16 80.10 81.92 C 78.51 82.34 79.78 84.31 80.37 85.10 C 79.08 86.17 77.77 87.22 76.44 88.24 C 76.07 88.01 75.35 87.54 74.98 87.31 C 74.02 86.68 73.05 86.04 72.09 85.41 C 72.58 85.33 73.56 85.17 74.06 85.09 C 75.64 85.44 77.71 83.80 75.95 82.44 Z" />
</g>
<g id="#f1f1f1ff">
<path fill="#f1f1f1" opacity="1.00" d=" M 39.81 88.59 C 40.32 88.46 41.34 88.19 41.85 88.06 C 42.33 88.80 43.39 90.60 42.06 91.03 C 40.88 90.66 40.13 89.84 39.81 88.59 Z" />
</g>
<g id="#e4e4e4ff">
<path fill="#e4e4e4" opacity="1.00" d=" M 44.07 88.76 C 45.53 88.49 46.51 88.99 46.99 90.26 C 45.62 90.57 44.65 90.07 44.07 88.76 Z" />
</g>
<g id="#acacacff">
<path fill="#acacac" opacity="1.00" d=" M 67.25 90.08 C 70.28 88.55 67.43 93.36 67.25 90.08 Z" />
</g>
<g id="#fcfcfcff">
<path fill="#fcfcfc" opacity="1.00" d=" M 39.21 91.73 C 39.28 91.77 39.42 91.86 39.50 91.91 L 39.29 91.81 L 39.21 91.73 Z" />
</g>
<g id="#edededff">
<path fill="#ededed" opacity="1.00" d=" M 45.21 93.96 C 44.63 93.31 43.30 91.36 44.78 91.02 C 46.20 91.31 46.56 92.99 46.49 94.23 C 46.17 94.17 45.53 94.03 45.21 93.96 Z" />
</g>
<g id="#b1b1b1ff">
<path fill="#b1b1b1" opacity="1.00" d=" M 51.40 91.34 C 52.45 90.59 53.53 90.57 54.63 91.28 C 54.79 92.73 51.22 92.88 51.40 91.34 Z" />
</g>
</svg>
