<svg xmlns="http://www.w3.org/2000/svg" width="16" height="16" viewBox="0 0 16 16">
    <g fill="#FFF" fill-rule="evenodd">
        <path d="M4.572 12.329a.672.672 0 0 1-.476.2.672.672 0 0 1-.476-.2.7.7 0 0 1 0-.971.671.671 0 0 1 .476-.201c.177 0 .35.073.476.2a.7.7 0 0 1 0 .972z"/>
        <path fill-rule="nonzero" d="M6.573 15H1.62A.625.625 0 0 1 1 14.369V9.318c0-.349.277-.632.62-.632h4.953c.342 0 .62.283.62.632v5.05a.625.625 0 0 1-.62.632zm-.62-5.051H2.239v3.788h3.716V9.95z"/>
        <path d="M12.38 12.329a.67.67 0 0 1-.476.2.672.672 0 0 1-.476-.2.7.7 0 0 1 0-.971.671.671 0 0 1 .476-.201.67.67 0 0 1 .475.2.698.698 0 0 1 0 .972z"/>
        <path fill-rule="nonzero" d="M14.38 15H9.428a.625.625 0 0 1-.62-.631V9.318c0-.349.278-.632.62-.632h4.954c.342 0 .619.283.619.632v5.05a.625.625 0 0 1-.62.632zm-.618-5.051h-3.716v3.788h3.716V9.95z"/>
        <path d="M4.572 4.642a.672.672 0 0 1-.476.201.672.672 0 0 1-.476-.2.7.7 0 0 1 0-.972.671.671 0 0 1 .476-.2c.177 0 .35.073.476.2a.7.7 0 0 1 0 .971z"/>
        <path fill-rule="nonzero" d="M6.573 7.314H1.62A.625.625 0 0 1 1 6.682v-5.05c0-.35.277-.632.62-.632h4.953c.342 0 .62.283.62.631v5.051a.625.625 0 0 1-.62.632zm-.62-5.051H2.239V6.05h3.716V2.263z"/>
        <path d="M12.409 4.843h-.471a.697.697 0 0 1-.707-.686c0-.38.316-.686.707-.686h.47c.391 0 .707.307.707.686a.697.697 0 0 1-.706.686zM14.344 3.47c-.363 0-.657-.276-.657-.617v-.618h-1.53c-.363 0-.657-.276-.657-.617 0-.341.294-.618.656-.618h2.188c.362 0 .656.277.656.618v1.235c0 .341-.294.618-.656.618zM9.48 4.843a.666.666 0 0 1-.672-.659v-.878c0-.364.301-.659.673-.659.371 0 .673.295.673.659v.878a.666.666 0 0 1-.673.66zM12.24 7.314H11.03c-.335 0-.606-.308-.606-.687 0-.379.271-.686.606-.686h1.211c.335 0 .606.307.606.686 0 .38-.271.687-.606.687z"/>
    </g>
</svg>
