<svg xmlns="http://www.w3.org/2000/svg" width="30" height="30" viewBox="0 0 30 30">
    <g fill="#FFF" fill-rule="evenodd" stroke="#FFF">
        <circle cx="15" cy="15" r="13.636" fill-opacity=".1"/>
        <g fill-rule="nonzero" stroke-width=".2">
            <path d="M14.9 15.5c-.827 0-1.5.676-1.5 1.507 0 .413.17.811.468 1.095v1.361c0 .572.463 1.037 1.032 1.037s1.032-.465 1.032-1.037v-1.361c.297-.284.468-.682.468-1.095 0-.83-.673-1.507-1.5-1.507zm.53 2.073a.72.72 0 0 0-.225.52v1.37c0 .17-.137.307-.305.307a.307.307 0 0 1-.305-.307v-1.37a.72.72 0 0 0-.226-.52.776.776 0 0 1 .53-1.343.776.776 0 0 1 .532 1.343z"/>
            <path d="M19.308 13.649h-1.092v-2.866c0-1.81-1.488-3.283-3.316-3.283-1.828 0-3.316 1.473-3.316 3.283v2.866h-1.092c-.602 0-1.092.485-1.092 1.081v6.689c0 .596.49 1.081 1.092 1.081h8.816c.602 0 1.092-.485 1.092-1.081V14.73c0-.596-.49-1.081-1.092-1.081zm-6.996-2.866c0-1.413 1.161-2.562 2.588-2.562s2.588 1.15 2.588 2.562v2.866h-5.176v-2.866zm7.36 10.636c0 .198-.163.36-.364.36h-8.816a.363.363 0 0 1-.364-.36V14.73c0-.199.163-.36.364-.36h8.816c.2 0 .364.161.364.36v6.689z"/>
        </g>
    </g>
</svg>
