<svg xmlns="http://www.w3.org/2000/svg" width="16" height="16" viewBox="0 0 16 16">
    <g fill="#FFF" fill-rule="nonzero">
        <path d="M10.249 2.077v1.778a5.049 5.049 0 0 1 2.66 4.474c0 2.781-2.197 5.037-4.908 5.037-2.711 0-4.91-2.256-4.91-5.037 0-1.788.913-3.355 2.28-4.249V2.231C3.093 3.268 1.5 5.606 1.5 8.33 1.5 12.014 4.41 15 8 15c3.591 0 6.5-2.986 6.5-6.67 0-2.873-1.773-5.313-4.251-6.253z"/>
        <path d="M7.884 8.538c.804 0 .886-.397.886-.886V1.888c0-.49-.082-.888-.886-.888C7.083 1 7 1.398 7 1.888v5.764c0 .49.083.886.884.886z"/>
    </g>
</svg>
