<svg xmlns="http://www.w3.org/2000/svg" width="28" height="28" viewBox="0 0 28 28">
    <g fill="#8DA1AD" fill-rule="evenodd">
        <path d="M9.686 10.6c.383 0 .694.314.694.692v12.533s3.476-3.376 4.08-3.556c.606-.18 1.65.613 1.53 1.531-.12.918-5.61 5.6-6.832 5.6-1.223 0-6.823-5.107-7.102-5.749-.28-.641.535-1.513 1.399-1.382s4.48 3.556 4.48 3.556V11.292c0-.382.32-.692.694-.692h1.057zM19.686 16.8a.696.696 0 0 0 .694-.692V3.575s3.476 3.376 4.08 3.556c.606.18 1.65-.613 1.53-1.531-.12-.918-5.61-5.6-6.832-5.6-1.223 0-6.823 5.107-7.102 5.749-.28.641.535 1.513 1.399 1.382s4.48-3.556 4.48-3.556v12.533c0 .382.32.692.694.692h1.057z"/>
    </g>
</svg>
