<svg xmlns="http://www.w3.org/2000/svg" width="16" height="16" viewBox="0 0 16 16">
    <g fill="#FFF" fill-rule="nonzero">
        <path d="M11.062 5.516l-1.258-.045-.272 7.415 1.257.045zM7.371 5.493h1.258v7.415H7.371zM6.468 12.885L6.196 5.47l-1.258.046.273 7.415z"/>
        <path d="M.512 3.029c0 .346.28.626.627.626h.684l1.04 11.773c.03.324.301.572.627.572h8.998a.628.628 0 0 0 .627-.572l1.04-11.773h.706a.627.627 0 0 0 0-1.253H1.14a.627.627 0 0 0-.627.627zm11.4 11.718H4.067l-.98-11.092h9.805l-.98 11.092z"/>
        <path d="M10.056 0H5.944c-.578 0-1.048.469-1.048 1.044V3.03h1.258V1.253h3.692V3.03h1.258V1.044c0-.576-.47-1.044-1.048-1.044z"/>
    </g>
</svg>
