<svg xmlns="http://www.w3.org/2000/svg" width="40" height="40" viewBox="0 0 40 40">
    <g fill="#0BCCF7" fill-rule="nonzero" opacity=".6">
        <path d="M26.682 12.062h-8.94c-.789 0-1.428.646-1.428 1.443 0 .798.639 1.444 1.427 1.444h8.94c.79 0 1.427-.646 1.427-1.444 0-.797-.638-1.443-1.426-1.443zM30.106 19.038H17.74c-.788 0-1.427.646-1.427 1.443s.639 1.443 1.427 1.443h12.365c.788 0 1.426-.646 1.426-1.443s-.638-1.443-1.426-1.443z"/>
        <path d="M36.573 3.018H11.321c-.788 0-1.427.646-1.427 1.443v13.615h-2.52C4.41 18.076 2 20.515 2 23.512v8.034c0 2.998 2.41 5.436 5.374 5.436.242 0 .481-.016.715-.048h23.539c3.513 0 6.372-2.892 6.372-6.446V4.46c0-.797-.639-1.443-1.427-1.443zM9.894 31.546a2.547 2.547 0 0 1-2.032 2.502h-.488v.048c-1.39 0-2.52-1.144-2.52-2.55v-8.034c0-1.406 1.13-2.55 2.52-2.55h2.52v10.584zm25.253-1.058c0 1.93-1.612 3.56-3.52 3.56H12.145c.386-.75.604-1.6.604-2.502V5.904h22.399v24.584z"/>
        <path d="M26.682 25.581h-8.94c-.789 0-1.428.646-1.428 1.443 0 .798.639 1.444 1.427 1.444h8.94c.79 0 1.427-.646 1.427-1.444 0-.797-.638-1.443-1.426-1.443z"/>
    </g>
</svg>
