<svg xmlns="http://www.w3.org/2000/svg" width="16" height="16" viewBox="0 0 16 16">
    <g fill="#032E49" fill-rule="nonzero" stroke="#032E49" stroke-width=".4">
        <path d="M14.754 5.466V3.409c0-1.32-.98-2.356-2.228-2.356H2.727C1.48 1.053.5 2.089.5 3.409v8.2c0 1.32.98 2.357 2.227 2.357h9.8c1.247 0 2.227-1.037 2.227-2.357V9.647a1.66 1.66 0 0 0 .712-1.337V6.802a1.66 1.66 0 0 0-.712-1.336zm-.179 2.844c0 .377-.267.66-.623.66H9.408c-.356 0-.623-.283-.623-.66V6.802c0-.377.267-.66.623-.66h4.544c.356 0 .623.283.623.66V8.31zm-2.049 4.713H2.727c-.713 0-1.336-.66-1.336-1.414v-8.2c0-.754.623-1.414 1.336-1.414h9.8c.712 0 1.336.66 1.336 1.414V5.2H9.408c-.801 0-1.514.755-1.514 1.603V8.31c0 .849.713 1.603 1.514 1.603h4.455v1.696c0 .754-.624 1.414-1.337 1.414z"/>
        <path d="M9.498 7.18c-.09.094-.09.282-.09.376 0 .095 0 .189.09.283.089.094.267.189.356.189.089 0 .178-.095.267-.189.09 0 .178-.188.178-.283 0-.188-.089-.282-.178-.377a.414.414 0 0 0-.623 0z"/>
    </g>
</svg>
