<svg xmlns="http://www.w3.org/2000/svg" width="40" height="40" viewBox="0 0 40 40">
    <g fill="#0976FF" fill-rule="nonzero" opacity=".6">
        <path d="M27.968 20.306a1.113 1.113 0 0 0-.899-.758l-4.269-.62-1.912-3.941a1.113 1.113 0 0 0-2.004 0l-1.912 3.94-4.341.62a1.113 1.113 0 0 0-.611 1.908l3.15 3.008-.794 4.316a1.113 1.113 0 0 0 1.606 1.19l3.9-2.015 3.827 2.012a1.113 1.113 0 0 0 1.615-1.17l-.731-4.333 3.094-3.016c.303-.296.412-.738.281-1.141zm-5.347 2.97a1.113 1.113 0 0 0-.321.982l.455 2.69-2.35-1.235a1.113 1.113 0 0 0-1.03-.003l-2.398 1.239.492-2.675a1.113 1.113 0 0 0-.326-1.006l-1.928-1.84 2.658-.381c.366-.053.683-.284.844-.616l1.169-2.409 1.169 2.409c.16.332.476.562.841.615l2.621.381-1.896 1.849z"/>
        <path d="M35.66 3.227h-1.113V2.113a1.113 1.113 0 0 0-2.227 0v1.114h-4.527V2.113a1.113 1.113 0 0 0-2.227 0v1.114h-4.453V2.113a1.113 1.113 0 0 0-2.226 0v1.114h-4.528V2.113a1.113 1.113 0 0 0-2.226 0v1.114H7.68V2.113a1.113 1.113 0 0 0-2.227 0v1.114H4.34A3.344 3.344 0 0 0 1 6.567V35.66A3.344 3.344 0 0 0 4.34 39h31.32A3.344 3.344 0 0 0 39 35.66V6.566a3.344 3.344 0 0 0-3.34-3.34zm1.113 32.433c0 .614-.499 1.113-1.113 1.113H4.34c-.614 0-1.113-.499-1.113-1.113v-1.113h33.546v1.113zm0-3.34H3.227V12.133h33.546V32.32zm0-22.414H3.227v-3.34c0-.613.499-1.113 1.113-1.113h1.113v1.113a1.113 1.113 0 0 0 2.227 0V5.453h4.453v1.113a1.113 1.113 0 0 0 2.226 0V5.453h4.528v1.113a1.113 1.113 0 0 0 2.226 0V5.453h4.453v1.113a1.113 1.113 0 0 0 2.227 0V5.453h4.527v1.113a1.113 1.113 0 0 0 2.227 0V5.453h1.113c.614 0 1.113.5 1.113 1.113v3.34z"/>
    </g>
</svg>
