<svg xmlns="http://www.w3.org/2000/svg" width="16" height="16" viewBox="0 0 16 16">
    <g fill="#FFF" fill-rule="nonzero" stroke="#FFF" stroke-width=".3">
        <path d="M12.9 3.804h-.385v-.813c0-1.159-.992-2.102-2.21-2.102H5.661c-1.22 0-2.211.943-2.211 2.102v.813H3.1c-1.22 0-2.212.943-2.212 2.102v3.39c0 1.158.992 2.101 2.211 2.101h.347v2.665c0 .577.497 1.05 1.104 1.05h6.857c.608 0 1.104-.473 1.104-1.05v-2.665h.388c1.219 0 2.211-.943 2.211-2.102v-3.39c0-1.158-.992-2.1-2.211-2.1zm-8.615-.813c0-.72.617-1.306 1.374-1.306h4.639c.757 0 1.374.586 1.374 1.306v.813H4.285v-.813zm7.39 11.077c0 .138-.121.253-.267.253H4.551a.262.262 0 0 1-.266-.253V9.673h7.39v4.395zm2.599-4.77c0 .72-.617 1.306-1.374 1.306h-.385v-.931h.552a.407.407 0 0 0 .42-.398.407.407 0 0 0-.42-.398H2.833a.407.407 0 0 0-.418.398c0 .22.186.398.418.398h.618v.931H3.1c-.758 0-1.375-.586-1.375-1.306v-3.39c0-.719.617-1.305 1.374-1.305h9.8c.757 0 1.374.586 1.374 1.306v3.39z"/>
        <path d="M12.98 5.265h-.859c-.235 0-.423.316-.423.711 0 .395.188.711.423.711h.86c.235 0 .423-.316.423-.71 0-.396-.188-.712-.423-.712z"/>
    </g>
</svg>
