<?xml version="1.0" encoding="UTF-8"?>
<svg width="22px" height="22px" viewBox="0 0 22 22" version="1.1" xmlns="http://www.w3.org/2000/svg" xmlns:xlink="http://www.w3.org/1999/xlink">
    <!-- Generator: Sketch 58 (84663) - https://sketch.com -->
    <title>loading-spinner</title>
    <desc>Created with Sketch.</desc>
    <g id="v2" stroke="none" stroke-width="1" fill="none" fill-rule="evenodd">
        <g id="loading-spinner" fill="#7F848E" fill-rule="nonzero">
            <path d="M2.58688571,5.20174286 L6.468,7.4426 C6.72641791,7.58499519 6.88768553,7.85594887 6.88964415,8.15099537 C6.89156735,8.44604188 6.73387837,8.71909376 6.47735618,8.86487638 C6.220834,9.01065901 5.90554839,9.00640055 5.65305714,8.85374286 L1.77194286,6.6132 C1.38633697,6.38625651 1.25581618,5.8908629 1.47953986,5.50338005 C1.70326354,5.1158972 2.19755278,4.98125451 2.58688571,5.20174286 Z" id="Indeterminate-Spinner-path" opacity="0.2"></path>
            <path d="M16.5,1.47368571 C16.8897497,1.69873626 17.0232806,2.19712038 16.7982571,2.58688571 L14.5574,6.468 C14.4150048,6.72641791 14.1440511,6.88768553 13.8490046,6.88964415 C13.5539581,6.89156735 13.2809062,6.73387837 13.1351236,6.47735618 C12.989341,6.220834 12.9935994,5.90554839 13.1462571,5.65305714 L15.3871143,1.77194286 C15.6121561,1.38238167 16.1103047,1.24887615 16.5,1.47368571 L16.5,1.47368571 Z" id="Indeterminate-Spinner-path" opacity="0.45"></path>
            <path d="M8.55548571,15.2340571 C8.94523543,15.4591077 9.07876636,15.9574918 8.85374286,16.3472571 L6.61288571,20.2283714 C6.46861339,20.483124 6.1987767,20.6409114 5.90600937,20.6417215 C5.61324204,20.6425254 5.34253956,20.486228 5.19686497,20.2322747 C5.05119038,19.9783215 5.05293245,19.6657424 5.20142857,19.4134286 L7.44228571,15.5323143 C7.55029975,15.3450853 7.72829598,15.20846 7.93708396,15.1525199 C8.14587194,15.0965799 8.36833267,15.1259116 8.55548571,15.2340571 Z" id="Indeterminate-Spinner-path" opacity="0.03"></path>
            <path d="M6.6132,1.77194286 L8.85405714,5.65305714 C9.00671484,5.90554839 9.0109733,6.220834 8.86519067,6.47735618 C8.71940804,6.73387837 8.44635616,6.89156735 8.15130966,6.88964415 C7.85626316,6.88768553 7.58530947,6.72641791 7.44291429,6.468 L5.20174286,2.58688571 C4.98125451,2.19755278 5.1158972,1.70326354 5.50338005,1.47953986 C5.8908629,1.25581618 6.38625651,1.38633697 6.6132,1.77194286 Z" id="Indeterminate-Spinner-path" opacity="0.25"></path>
            <path d="M20.5263143,5.5 C20.63436,5.68712474 20.663636,5.90950942 20.6077004,6.11822159 C20.5517649,6.32693375 20.4152008,6.50487274 20.2280571,6.61288571 L16.3469429,8.85374286 C16.0944516,9.00640055 15.779166,9.01065901 15.5226438,8.86487638 C15.2661216,8.71909376 15.1084327,8.44604188 15.1103559,8.15099537 C15.1123145,7.85594887 15.2735821,7.58499519 15.532,7.4426 L19.4131143,5.20174286 C19.8028796,4.97671936 20.3012637,5.11025028 20.5263143,5.5 L20.5263143,5.5 Z" id="Indeterminate-Spinner-path" opacity="0.55"></path>
            <path d="M6.76625714,13.4445143 C6.8743029,13.631639 6.90357887,13.8540237 6.8476433,14.0627359 C6.79170774,14.271448 6.65514367,14.449387 6.468,14.5574 L2.58688571,16.7982571 C2.19827569,17.0123917 1.70976886,16.8762858 1.48787317,16.4920546 C1.26597749,16.1078233 1.39224536,15.6166816 1.77194286,15.3871143 L5.65305714,13.1462571 C6.04282248,12.9212336 6.5412066,13.0547646 6.76625714,13.4445143 Z" id="Indeterminate-Spinner-path" opacity="0.07"></path>
            <path d="M0.628571429,10.1847429 L5.48051429,10.1847429 C5.8276647,10.1847429 6.10908571,10.4661639 6.10908571,10.8133143 L6.10908571,11.1866857 C6.10908571,11.5338361 5.8276647,11.8152571 5.48051429,11.8152571 L0.628571429,11.8152571 C0.281421014,11.8152571 0,11.5338361 0,11.1866857 L0,10.8133143 C0,10.4661639 0.281421014,10.1847429 0.628571429,10.1847429 L0.628571429,10.1847429 Z" id="Indeterminate-Spinner-path" opacity="0.12"></path>
            <path d="M10.8133143,0 L11.1866857,0 C11.5338361,0 11.8152571,0.281421014 11.8152571,0.628571429 L11.8152571,5.48051429 C11.8152571,5.8276647 11.5338361,6.10908571 11.1866857,6.10908571 L10.8133143,6.10908571 C10.4661639,6.10908571 10.1847429,5.8276647 10.1847429,5.48051429 L10.1847429,0.628571429 C10.1847429,0.281421014 10.4661639,0 10.8133143,0 Z" id="Indeterminate-Spinner-path" opacity="0.35"></path>
            <path d="M16.5198,10.1847429 L21.3714286,10.1847429 C21.718579,10.1847429 22,10.4661639 22,10.8133143 L22,11.1866857 C22,11.5338361 21.718579,11.8152571 21.3714286,11.8152571 L16.5198,11.8152571 C16.1726496,11.8152571 15.8912286,11.5338361 15.8912286,11.1866857 L15.8912286,10.8133143 C15.8912286,10.4661639 16.1726496,10.1847429 16.5198,10.1847429 Z" id="Indeterminate-Spinner-path" opacity="0.6"></path>
            <path d="M16.3469429,13.1462571 L20.2280571,15.3871143 C20.4864751,15.5295095 20.6477427,15.8004632 20.6497013,16.0955097 C20.6516245,16.3905562 20.4939355,16.663608 20.2374133,16.8093907 C19.9808911,16.9551733 19.6656055,16.9509148 19.4131143,16.7982571 L15.532,14.5574 C15.2735821,14.4150048 15.1123145,14.1440511 15.1103559,13.8490046 C15.1084327,13.5539581 15.2661216,13.2809062 15.5226438,13.1351236 C15.779166,12.989341 16.0944516,12.9935994 16.3469429,13.1462571 L16.3469429,13.1462571 Z" id="Indeterminate-Spinner-path" opacity="0.7"></path>
            <path d="M16.7982571,19.4134286 C16.9509148,19.6659198 16.9551733,19.9812054 16.8093907,20.2377276 C16.663608,20.4942498 16.3905562,20.6519388 16.0955097,20.650033 C15.8004632,20.648057 15.5295095,20.4867893 15.3871143,20.2283714 L13.1462571,16.3472571 C12.9935994,16.0947659 12.989341,15.7794803 13.1351236,15.5229581 C13.2809062,15.2664359 13.5539581,15.1087469 13.8490046,15.1106527 C14.1440511,15.1126288 14.4150048,15.2738964 14.5574,15.5323143 L16.7982571,19.4134286 Z" id="Indeterminate-Spinner-path" opacity="0.8"></path>
            <path d="M10.8133143,15.8912286 L11.1866857,15.8912286 C11.5338361,15.8912286 11.8152571,16.1726496 11.8152571,16.5198 L11.8152571,21.3714286 C11.8152571,21.718579 11.5338361,22 11.1866857,22 L10.8133143,22 C10.4661639,22 10.1847429,21.718579 10.1847429,21.3714286 L10.1847429,16.5198 C10.1847429,16.1726496 10.4661639,15.8912286 10.8133143,15.8912286 Z" id="Indeterminate-Spinner-path"></path>
        </g>
    </g>
</svg>