<svg xmlns="http://www.w3.org/2000/svg" xmlns:xlink="http://www.w3.org/1999/xlink" width="74" height="44" viewBox="0 0 74 44">
    <defs>
        <path id="b" d="M61.139 5C65.459 5 69 9.032 69 13.95v15.775c0 4.925-3.54 8.949-7.861 8.949H12.86C8.541 38.674 5 34.65 5 29.724V13.95C5 9.032 8.54 5 12.861 5H61.14zm-.7 3.674h-46.17c-3.823 0-5.577 1.456-5.577 5.3V30.06c0 3.85 1.754 4.942 5.576 4.942h46.17c3.823 0 4.87-1.092 4.87-4.942V13.974c0-3.844-1.047-5.3-4.87-5.3z"/>
        <filter id="a" width="123.4%" height="144.5%" x="-11.7%" y="-22.3%" filterUnits="objectBoundingBox">
            <feOffset in="SourceAlpha" result="shadowOffsetOuter1"/>
            <feGaussianBlur in="shadowOffsetOuter1" result="shadowBlurOuter1" stdDeviation="2.5"/>
            <feColorMatrix in="shadowBlurOuter1" values="0 0 0 0 0 0 0 0 0 0.964705882 0 0 0 0 0.823529412 0 0 0 0.7 0"/>
        </filter>
        <path id="d" d="M23.822 24.074l1.668 1.847-2.89 2.204-1.185-2.204c-.175-.315-.448-.932-.832-1.847-.42 1.006-.7 1.618-.839 1.847l-1.202 2.204-2.97-2.204 1.796-1.847c.506-.508.996-.944 1.48-1.301a20.806 20.806 0 0 1-1.944-.292l-2.488-.411 1.154-3.444 2.231 1.031c.235.108.82.447 1.75 1.01-.2-.915-.327-1.595-.385-2.04l-.317-2.466h3.543l-.287 2.465c-.062.6-.2 1.28-.403 2.04.408-.208.678-.346.806-.422.448-.254.793-.429 1.026-.541l2.232-1.077 1.106 3.444-2.468.524c-.452.088-1.122.145-2.012.179.604.48 1.076.91 1.43 1.301z"/>
        <filter id="c" width="220.4%" height="225.4%" x="-60.2%" y="-62.7%" filterUnits="objectBoundingBox">
            <feOffset in="SourceAlpha" result="shadowOffsetOuter1"/>
            <feGaussianBlur in="shadowOffsetOuter1" result="shadowBlurOuter1" stdDeviation="2.5"/>
            <feColorMatrix in="shadowBlurOuter1" values="0 0 0 0 0 0 0 0 0 0.964705882 0 0 0 0 0.823529412 0 0 0 0.7 0"/>
        </filter>
        <path id="f" d="M40.176 24.074l1.671 1.847-2.89 2.203-1.184-2.203c-.174-.315-.448-.932-.83-1.847-.422 1.006-.7 1.618-.838 1.847L34.9 28.124l-2.969-2.203 1.796-1.847a13 13 0 0 1 1.48-1.301 20.924 20.924 0 0 1-1.944-.292l-2.488-.411 1.155-3.444 2.232 1.031c.232.108.82.447 1.748 1.01-.204-.915-.331-1.595-.386-2.04l-.318-2.463h3.544l-.288 2.462a14 14 0 0 1-.4 2.04c.405-.208.675-.346.804-.422.446-.254.793-.429 1.026-.541l2.233-1.077 1.108 3.444-2.471.524c-.452.088-1.12.145-2.01.179.598.48 1.072.91 1.424 1.301z"/>
        <filter id="e" width="220.4%" height="225.4%" x="-60.2%" y="-62.7%" filterUnits="objectBoundingBox">
            <feOffset in="SourceAlpha" result="shadowOffsetOuter1"/>
            <feGaussianBlur in="shadowOffsetOuter1" result="shadowBlurOuter1" stdDeviation="2.5"/>
            <feColorMatrix in="shadowBlurOuter1" values="0 0 0 0 0 0 0 0 0 0.964705882 0 0 0 0 0.823529412 0 0 0 0.7 0"/>
        </filter>
        <path id="h" d="M58.502 27.194c0 .758-.61 1.378-1.355 1.378h-7.583a1.37 1.37 0 0 1-1.355-1.378v-4.646c0-.758.61-1.377 1.355-1.377h.183v-1.788c0-2.024 1.618-3.671 3.606-3.671 1.99 0 3.61 1.646 3.61 3.671v1.788h.182c.744 0 1.356.62 1.356 1.377v4.646zm-5.149-9.645c-.992 0-1.8.823-1.8 1.835v1.788h3.604v-1.788c0-1.012-.811-1.835-1.804-1.835z"/>
        <filter id="g" width="245.7%" height="216.6%" x="-72.9%" y="-58.3%" filterUnits="objectBoundingBox">
            <feOffset in="SourceAlpha" result="shadowOffsetOuter1"/>
            <feGaussianBlur in="shadowOffsetOuter1" result="shadowBlurOuter1" stdDeviation="2.5"/>
            <feColorMatrix in="shadowBlurOuter1" values="0 0 0 0 0 0 0 0 0 0.964705882 0 0 0 0 0.823529412 0 0 0 0.7 0"/>
        </filter>
    </defs>
    <g fill="none" fill-rule="evenodd">
        <g fill-rule="nonzero">
            <use fill="#000" filter="url(#a)" xlink:href="#b"/>
            <use fill="#00F6D2" fill-rule="evenodd" xlink:href="#b"/>
        </g>
        <g>
            <use fill="#000" filter="url(#c)" xlink:href="#d"/>
            <use fill="#00F6D2" xlink:href="#d"/>
        </g>
        <g>
            <use fill="#000" filter="url(#e)" xlink:href="#f"/>
            <use fill="#00F6D2" xlink:href="#f"/>
        </g>
        <g>
            <use fill="#000" filter="url(#g)" xlink:href="#h"/>
            <use fill="#00F6D2" xlink:href="#h"/>
        </g>
    </g>
</svg>
