<svg xmlns="http://www.w3.org/2000/svg" width="28" height="28" viewBox="0 0 28 28">
    <g fill="none" fill-rule="evenodd">
        <circle cx="12" cy="12" r="13" fill="#1C435B" stroke="#2E9AD0" stroke-width="2" transform="translate(2 2)"/>
        <path fill="#FFF" fill-rule="nonzero" d="M21.23 18.973a.724.724 0 0 0-.497.193l-1.359-1.229 1.045-3.38h.037c.137 0 .26-.052.368-.158a.547.547 0 0 0 .157-.402.557.557 0 0 0-.157-.396.517.517 0 0 0-.368-.159h-.037l-.915-2.955a.52.52 0 0 0 .179-.193.598.598 0 0 0 .07-.271.557.557 0 0 0-.157-.397.508.508 0 0 0-.72-.027L16.463 7.77l.033-.096c.002-.031.004-.07.004-.113a.557.557 0 0 0-.157-.397.507.507 0 0 0-.369-.164.607.607 0 0 0-.335.119.479.479 0 0 0-.184.306h-2.928a.584.584 0 0 0-.184-.3.495.495 0 0 0-.325-.125.494.494 0 0 0-.379.164.552.552 0 0 0-.157.397c0 .042.003.08.012.113.008.035.015.066.026.096L9.106 9.6a.657.657 0 0 0-.152-.102.8.8 0 0 0-.19-.035.494.494 0 0 0-.378.164.551.551 0 0 0-.157.397.5.5 0 0 0 .07.271.454.454 0 0 0 .18.193h.01l-.915 2.938H7.536a.494.494 0 0 0-.38.165.55.55 0 0 0-.156.396c0 .158.051.291.157.396.1.11.227.164.379.164H7.563l.925 2.967a.498.498 0 0 0-.19.193.522.522 0 0 0-.07.271c0 .159.052.292.158.397.1.11.227.164.378.164a.545.545 0 0 0 .19-.035.55.55 0 0 0 .151-.09l2.414 1.817c-.011.035-.018.07-.026.102a.54.54 0 0 0 .146.504.513.513 0 0 0 .704.045.482.482 0 0 0 .183-.306h2.928a.436.436 0 0 0 .184.306.51.51 0 0 0 .704-.045.544.544 0 0 0 .157-.397l-.003-.107a2.006 2.006 0 0 1-.034-.102l2.755-2.078 1.347 1.217a.632.632 0 0 0-.08.193.68.68 0 0 0-.027.22.75.75 0 0 0 .228.567c.147.157.33.238.546.238a.73.73 0 0 0 .542-.238.813.813 0 0 0 .227-.566.853.853 0 0 0-.227-.578.735.735 0 0 0-.542-.232zm-1.92-8.237l.86 2.797a.453.453 0 0 0-.146.141.511.511 0 0 0-.087.187h-.443a.548.548 0 0 0-.125-.25.829.829 0 0 0-.228-.158l.169-2.717zm-.25-.182l-.184 2.888h-.014a.057.057 0 0 0-.023.012l-1.098-2.186a.484.484 0 0 0 .135-.18.682.682 0 0 0 .049-.233l-.004-.04a.069.069 0 0 1-.003-.056l.888-.397c.03.043.067.081.119.114a.173.173 0 0 0 .13.068l.006.01zm-2.992 2.9a.536.536 0 0 0-.092-.007c-.026 0-.052.001-.076.003a.266.266 0 0 1-.081.015l-1.462-2.66a.3.3 0 0 0 .07-.091c.02-.031.039-.068.06-.102l2.365.311c.003.08.026.146.065.198.03.066.076.118.13.159l-.98 2.173zm1.217-2.05l.055.003c.01.009.026.012.048.004a.129.129 0 0 0 .06-.004c.018-.002.04-.012.07-.023l1.099 2.191a.411.411 0 0 0-.103.13.298.298 0 0 0-.054.153h-1.97c-.022-.052-.045-.103-.065-.153a.94.94 0 0 0-.109-.13l.97-2.171zM15.597 13.6a.404.404 0 0 0-.081.12.952.952 0 0 0-.06.14h-2.928a.346.346 0 0 0-.054-.14c-.03-.042-.058-.082-.087-.12l1.473-2.66.059.003a.113.113 0 0 0 .076.004.173.173 0 0 0 .07-.004.557.557 0 0 1 .07-.004l1.462 2.661zm-3.431-.135a.246.246 0 0 1-.076-.016.67.67 0 0 0-.07-.004c-.023 0-.041.003-.055.004-.022.008-.04.012-.049.004l-.98-2.175a.557.557 0 0 0 .196-.356l2.365-.329a.375.375 0 0 0 .06.12.18.18 0 0 0 .07.09l-1.461 2.662zm-.488.113a.378.378 0 0 0-.108.119.314.314 0 0 0-.06.164H9.552c-.021-.048-.044-.098-.064-.147a.709.709 0 0 0-.109-.125l1.099-2.185.06.003c.018.009.04.012.07.004a.11.11 0 0 0 .054-.004.355.355 0 0 1 .054-.003l.963 2.174zm-2.126.56h1.942c.015.066.04.12.076.165.026.05.061.089.109.118l-.98 2.174h-.162c-.023.004-.043.012-.06.016l-1.099-2.202a.43.43 0 0 0 .109-.125 3.12 3.12 0 0 0 .065-.147v.001zm2.365.408l.048.004a.045.045 0 0 0 .054.003c.026.008.05.004.076-.003a.31.31 0 0 0 .07-.016l1.462 2.65a.286.286 0 0 0-.07.096 2.39 2.39 0 0 1-.06.107l-2.365-.31a1.125 1.125 0 0 0-.065-.199 1.018 1.018 0 0 0-.13-.158l.98-2.174zm.47-.147c.03-.031.057-.074.087-.119a.315.315 0 0 0 .054-.142h2.928c.002.054.022.101.054.142a.568.568 0 0 0 .087.119l-1.461 2.65a.15.15 0 0 1-.065-.004.247.247 0 0 0-.152 0 .204.204 0 0 1-.07.016v-.012l-1.462-2.65zm3.432.136c.03.008.054.015.075.015.02.012.041.016.071.004.019.008.043.003.065-.004a.355.355 0 0 1 .054-.003h-.015l.98 2.174a.701.701 0 0 0-.125.158.473.473 0 0 0-.054.198l-2.381.312a.286.286 0 0 1-.049-.108l-.065-.096 1.444-2.65zm.487-.114a.503.503 0 0 0 .108-.118.668.668 0 0 0 .076-.165h1.97c.019.054.04.104.065.148a.21.21 0 0 0 .108.113l-1.125 2.214c-.023-.009-.042-.012-.06-.016h-.162l-.98-2.176zm.011-6.437L18.72 9.82a.416.416 0 0 0-.022.096.413.413 0 0 0-.015.107c-.003.024-.002.04.003.046a.106.106 0 0 1 .012.05v-.015l-.893.414a.89.89 0 0 0-.179-.159.494.494 0 0 0-.238-.062h-.049c-.026.004-.044.012-.054.016h.012l-.99-2.31v-.004c0-.008.001-.012.01-.012v-.002zm-.546.096c.03.016.06.028.097.028.03.008.061.012.098.012.015.008.033.003.054-.004a.242.242 0 0 1 .049-.004l.995 2.31a.246.246 0 0 0-.102.102.655.655 0 0 0-.07.13l-2.377-.328a.523.523 0 0 0-.103-.272L15.77 8.08zm-3.242-.379h2.928a.205.205 0 0 0 .037.108c.02.042.04.077.065.107L14.174 9.87a.533.533 0 0 1-.081-.016 1.537 1.537 0 0 0-.098-.003c-.04 0-.077.002-.108.003a.387.387 0 0 0-.092.035v-.016l-1.37-1.953c.019-.03.044-.064.065-.102a.28.28 0 0 0 .038-.113V7.7zm-.51.42c.03 0 .063-.003.104-.013a.25.25 0 0 0 .092-.027l1.374 1.97a.32.32 0 0 0-.08.125.46.46 0 0 0-.039.147l-2.376.329-.065-.13a1.09 1.09 0 0 0-.092-.103l.99-2.31c.003 0 .016.003.039.004a.045.045 0 0 0 .054.004v.003zm-.34-.137v.012c0 .008.003.012.015.004l-.996 2.31c-.022-.009-.037-.012-.043-.016h-.05c-.09 0-.17.02-.237.062a.583.583 0 0 0-.179.159l-.904-.414c.007-.002.013-.015.017-.04v-.05a7.581 7.581 0 0 0-.017-.108.401.401 0 0 1-.021-.085l2.415-1.834zm-2.495 2.378l.904.396a.13.13 0 0 0-.015.057v.057a.394.394 0 0 0 .049.215c.03.08.073.14.135.181l-1.099 2.186h-.027l-.195-2.91a.44.44 0 0 0 .146-.08.43.43 0 0 0 .103-.101h-.001zm-.498 6.902l-.871-2.797a.497.497 0 0 0 .146-.142.584.584 0 0 0 .086-.187h.471a.56.56 0 0 0 .13.238.493.493 0 0 0 .211.159h.01l-.183 2.729zm-.168-3.403h-.47a.469.469 0 0 0-.076-.198 1.673 1.673 0 0 0-.146-.142l.86-2.785.184 2.729a.596.596 0 0 0-.352.396zm.417 3.595l.195-2.91H9.156l1.099 2.185a.497.497 0 0 0-.135.182.47.47 0 0 0-.05.232v.045c0 .016.004.031.016.051l-.904.397a1.02 1.02 0 0 0-.108-.114c-.04-.02-.088-.045-.141-.068h.002zm2.744 2.56l-2.414-1.818a.398.398 0 0 1 .022-.096c.006-.032.012-.071.016-.114v-.05a6.354 6.354 0 0 1-.016-.057v.015l.893-.413a.53.53 0 0 0 .416.22h.055a.106.106 0 0 0 .048-.015l.996 2.31-.015.015-.001.002zm.536-.097a.258.258 0 0 1-.092-.027c-.04-.003-.075-.009-.103-.012-.022 0-.04.002-.054.003-.023.009-.04.012-.049.004h.011l-.99-2.31c.03-.027.06-.06.092-.102.019-.035.043-.08.065-.13h.011l2.365.311a.36.36 0 0 0 .038.153c.019.05.045.095.082.136l-.239.328-1.137 1.646zm3.242.38h-2.928a.706.706 0 0 0-.038-.114.734.734 0 0 0-.065-.102l1.369-1.982c.03.023.06.035.092.035.03.008.068.012.108.003.03.004.063.003.103-.003.03 0 .063-.012.103-.035h-.011l1.37 1.982a2.613 2.613 0 0 0-.066.107.322.322 0 0 0-.038.108zm.611-.409c-.022.004-.04.003-.049-.003a.536.536 0 0 0-.054-.004l-.097.012a.27.27 0 0 1-.098.027l-1.375-1.97c.03-.041.061-.086.087-.136a.476.476 0 0 0 .033-.153l2.376-.311c.019.05.04.092.07.125a.503.503 0 0 0 .087.107l-.952 2.225-.028.081zm.25.125h-.012V20l.026-.068.963-2.242c.002.011.019.015.044.015h.048c.082 0 .163-.02.238-.057a.447.447 0 0 0 .179-.152v-.012l1.153.52-2.64 2.011zm1.596-2.774a.095.095 0 0 1 .003-.051.2.2 0 0 0 .003-.045.62.62 0 0 0-.048-.227.956.956 0 0 0-.136-.186l1.115-2.197h.019l.2 3.238-1.156-.532zm1.228-2.723a.593.593 0 0 0 .222-.147.518.518 0 0 0 .114-.233h.46a.449.449 0 0 0 .086.187c.034.061.084.11.146.142l-.86 2.797-.168-2.746z"/>
    </g>
</svg>
