<svg xmlns="http://www.w3.org/2000/svg" width="24" height="26" viewBox="0 0 24 26">
    <path fill="#000" fill-rule="nonzero" d="M0 25.01h3.906L9.512 3.722h7.878c1.871 0 2.773.515 2.773 1.251 0 1.734-.738 2.238-4.79 2.238l-.986 3.76c4.831-.197 5.02 1.93 4.74 2.901-.278.97-1.262 1.472-2.384 1.887-1.121.415-2.603.452-5.262.452l2.993-11.226-3.809-.012L6.554 20c5.342.098 8.893.219 11.68-.742 2.789-.96 4.042-3.251 4.347-4.75.304-1.5.534-5.115-1.269-5.574 2.222-.893 2.413-2.544 2.298-4.643C23.437 1.143 20.144 0 17.733 0H6.152L0 25.01z"/>
</svg>
