<svg xmlns="http://www.w3.org/2000/svg" width="24" height="25" viewBox="0 0 24 25">
    <path fill="#000" fill-rule="nonzero" d="M0 24.592h4.327l5.261-20.56h6.853c1.178 0 1.931.395 2.258 1.186.39 1.15-.69 1.725-3.241 1.725l-1.359 4.315c1.733-.075 3.252-.264 3.827.518.576.783-.776 2.655-1.23 3.013-1.246.984-3.387.65-4.633.778l3.003-10.704h-4.525L6.486 20c5.044.098 9.062.346 10.882-.554 1.82-.901 3.66-2.386 4.492-4.657.831-2.27.782-4.834-.649-5.845 2.001-1.243 2.32-3.193 1.608-5.791C22.106.555 18.973 0 16.696 0H5.761L0 24.592z"/>
</svg>
