<svg xmlns="http://www.w3.org/2000/svg" width="22" height="27" viewBox="0 0 22 27">
    <path fill="#000" fill-rule="nonzero" d="M0 26.243h4.734V4.17h6.918c1.883 0 3.906.224 3.965 1.494.058 1.27-.059 1.962-4.136 1.962v4.409c4.305-.193 4.906.552 4.906 2.035 0 1.482-1.793 1.408-5.672 1.403V5.15H5.773V20c5.375.109 8.35.056 10.188-.355 1.838-.41 5.072-.998 5.072-4.687 0-1.549-.327-2.81-.779-3.603-.472-.83-1.013-1.7-2.455-2.282 2.204-1.242 2.57-1.96 2.455-4.283-.088-1.775-1.37-3.4-3.24-4.16C15.211-.1 12.841 0 11.651 0H0v26.243z"/>
</svg>
