<svg xmlns="http://www.w3.org/2000/svg" width="23" height="28" viewBox="0 0 23 28">
    <path fill="#000" fill-rule="nonzero" d="M0 27.196h1.699L8.109 1.32h9.559c1.848 0 3.822.974 3.523 3.648-.3 2.674-2.45 2.964-6.225 3.243l-.432 1.546c4.304-.194 5.949 2.077 5.742 3.841-.206 1.764-.852 3.478-3.054 4.267-2.027.725-5.072.7-8.501.7l3.476-14.262h-1.591L6.711 20c5.375.109 8.503.09 10.215-.339 1.713-.428 4.22-2.03 4.698-4.813.477-2.784 0-4.626-2.791-5.78 3.741-1.106 3.855-3.044 3.802-4.945C22.582 2.223 21 0 18.575 0H6.71L0 27.196z"/>
</svg>
