<svg xmlns="http://www.w3.org/2000/svg" width="22" height="25" viewBox="0 0 22 25">
    <path fill="#000" fill-rule="nonzero" d="M0 25h2.366L8.06 2.078h8.667c1.768 0 3.09 1.509 3.09 2.263 0 2.715-2.037 3.457-5.863 3.457l-.662 2.298c4.563-.202 6.193 1.334 5.517 4.174-.676 2.841-4.166 3.45-10.18 3.45l3.517-14.022H9.863L5.758 19.796c5.044.1 9.458-.136 10.97-.724 1.51-.587 3.977-2.507 4.33-4.802.352-2.294.23-4.97-2.563-5.37 2.44-.89 3.607-2.409 3.498-4.56C21.83 1.116 19.003 0 16.727 0H5.792L0 25z"/>
</svg>
