<svg xmlns="http://www.w3.org/2000/svg" width="19" height="27" viewBox="0 0 19 27">
    <path fill="#000" fill-rule="nonzero" d="M.5 27h3.387L3.743 3.315h8.41c1.882 0 2.445 1.221 2.445 2.39 0 1.17-.534 2.58-4.611 2.58v3.335c4.304-.193 5.376.623 5.376 3.02 0 2.397-3.052 2.397-6.931 2.392V4.833H5.234V20c5.375.109 8.01-.04 9.239-.406 1.23-.365 4.027-.892 4.027-4.581 0-1.55-.285-2.6-.737-3.393-.472-.83-1.142-1.378-2.585-1.96 2.205-1.242 2.7-2.65 2.585-4.972C17.59 1.204 14.578 0 12.153 0H.5v27z"/>
</svg>
