<?xml version="1.0" encoding="UTF-8" standalone="no"?>
<svg
   xmlns:dc="http://purl.org/dc/elements/1.1/"
   xmlns:cc="http://creativecommons.org/ns#"
   xmlns:rdf="http://www.w3.org/1999/02/22-rdf-syntax-ns#"
   xmlns:svg="http://www.w3.org/2000/svg"
   xmlns="http://www.w3.org/2000/svg"
   xmlns:sodipodi="http://sodipodi.sourceforge.net/DTD/sodipodi-0.dtd"
   xmlns:inkscape="http://www.inkscape.org/namespaces/inkscape"
   width="18"
   height="20"
   viewBox="0 0 18 20"
   version="1.1"
   id="svg4685"
   sodipodi:docname="g-bold.svg"
   inkscape:version="0.92.4 (5da689c313, 2019-01-14)">
  <metadata
     id="metadata4691">
    <rdf:RDF>
      <cc:Work
         rdf:about="">
        <dc:format>image/svg+xml</dc:format>
        <dc:type
           rdf:resource="http://purl.org/dc/dcmitype/StillImage" />
        <dc:title></dc:title>
      </cc:Work>
    </rdf:RDF>
  </metadata>
  <defs
     id="defs4689" />
  <sodipodi:namedview
     pagecolor="#ffffff"
     bordercolor="#666666"
     borderopacity="1"
     objecttolerance="10"
     gridtolerance="10"
     guidetolerance="10"
     inkscape:pageopacity="0"
     inkscape:pageshadow="2"
     inkscape:window-width="3840"
     inkscape:window-height="2066"
     id="namedview4687"
     showgrid="false"
     inkscape:zoom="4.17193"
     inkscape:cx="59.465688"
     inkscape:cy="58.132731"
     inkscape:window-x="3829"
     inkscape:window-y="-11"
     inkscape:window-maximized="1"
     inkscape:current-layer="svg4685" />
  <path
     d="M 13.176721,35.121161 V -5.681196 h 86.602817 c 0.16348,-4.344153 0.116411,-4.484281 0,-7.438775 H 13.165045 V -53.268366 H 140.57021 c 0,24.920498 0,55.820047 -2.74428,72.48432 -3.42161,20.751506 -15.32132,35.045172 -22.78347,43.067846 -7.4738,8.022674 -21.685731,17.329911 -34.239404,22.421445 -12.518631,5.138244 -25.013919,6.481195 -37.766112,6.481195 -16.18548,0 -30.654314,-3.071266 -43.40650902,-9.225487 A 98.374075,98.374075 0 0 1 -32.8573,57.110525 109.54976,109.54976 0 0 1 -53.18841,21.142793 129.00503,129.00503 0 0 1 -60.171755,-21.049224 c 0,-16.255542 2.172077,-31.728674 6.527911,-46.431067 4.344153,-14.690715 10.82535,-27.559687 19.420238,-38.606919 a 94.940793,94.940793 0 0 1 32.1841082,-26.43861 c 12.8456178,-6.56295 27.8749908,-9.84442 45.0764418,-9.84442 11.736221,0 22.491512,0.77074 32.919811,3.58509 10.416636,2.81436 20.658087,7.12348 28.844255,13.16092 8.19783,6.04912 16.72266,14.94763 22.29299,24.21983 5.55864,9.283883 11.46763,25.586137 13.49957,38.7237 H 96.591489 c -1.401338,-8.548173 -10.101327,-24.32493 -15.765079,-28.283713 -5.675416,-3.958789 -9.097024,-6.504555 -16.278901,-8.489786 a 75.730753,75.730753 0 0 0 -21.510565,-2.942821 c -13.14924,0 -16.582523,1.28457 -25.994858,6.703082 -9.4123358,5.418517 -11.4442795,7.053411 -17.41165102,15.916889 -5.96737498,8.851798 -9.91448198,16.465744 -12.74051698,27.828277 -2.837718,11.350854 -3.690197,17.563462 -3.690197,29.439822 0,11.677834 1.284561,18.5794356 4.519321,29.3113678 3.2464426,10.7435992 7.7891139,18.1239862 14.0601132,26.3568622 6.2709958,8.232875 11.0939408,9.575826 20.2960738,14.468836 6.130865,3.269803 13.943336,4.71785 23.425736,4.355834 8.501466,-0.397006 15.648303,-1.856777 21.463859,-4.355834 5.792203,-2.499059 12.00481,-6.668041 18.614467,-12.506955 z"
     id="path4683"
     inkscape:connector-curvature="0"
     style="fill:#000000;fill-rule:nonzero;stroke-width:11.67783451" />
</svg>
