<svg xmlns="http://www.w3.org/2000/svg" width="20" height="21" viewBox="0 0 20 21">
    <path fill="#000" fill-rule="nonzero" d="M7.719 15.496l.977-3.94h5.335l.12-.37H8.81l.772-3.82h9.455c-.327 2.907-.572 4.667-.735 5.28a42.568 42.568 0 0 1-.856 2.85c-.536 1.53-1.08 2.357-1.827 3.157-.746.801-2.154 1.545-3.19 1.967-1.037.422-1.803.38-3.14.38-1.337 0-2.647-.1-3.797-.615-.32-.143-1.783-.724-2.821-1.732-.945-.916-1.475-2.239-1.682-2.862-.533-1.61-.459-3.617-.397-4.234.184-1.853.889-3.62 1.1-4.335.181-.611.872-2.266 1.995-3.508.531-.588 1.464-1.799 2.923-2.314C8.195.84 10.317 1 11.057 1c.97 0 2.453.168 3.314.4.86.232 1.64.765 2.318 1.264.34.25.585.55.87.842.283.29.514.612.743.994.144.24.389.925.735 2.057h-4.27c-.387-.603-.703-.993-.946-1.172-.916-.675-1.85-.823-2.265-.885-.592-.089-1.786-.086-2.746.24-.787.266-1.36.798-1.786 1.25-.947 1.005-1.345 1.884-1.532 2.437a27.543 27.543 0 0 0-.817 2.915c-.254 1.188-.132 2.453 0 2.892.056.183.41 1.105 1.205 1.719.898.693 2.264 1.079 2.616 1.167 1.185.298 3.09.11 3.789-.553.39-.37.614-.727.673-1.071h-5.24z"/>
</svg>
