<svg xmlns="http://www.w3.org/2000/svg" width="18" height="20" viewBox="0 0 18 20">
    <path fill="#000" fill-rule="nonzero" d="M8.441 15.352v-3.98h5.133c.015-.372.01-.238 0-.492H8.441V6.903h9.15c0 2.134.067 5.356-.169 6.782-.293 1.778-1.378 3.154-2.017 3.841-.64.687-1.857 1.484-2.932 1.92-1.074.438-2.143.554-3.235.554-1.386 0-2.625-.263-3.717-.79a8.424 8.424 0 0 1-2.782-2.128 9.381 9.381 0 0 1-1.741-3.08A11.047 11.047 0 0 1 .4 10.389c0-1.392.186-2.717.559-3.976.372-1.258.927-2.36 1.663-3.306A8.13 8.13 0 0 1 5.378.843C6.478.281 7.765 0 9.238 0c1.005 0 1.926.066 2.819.307.892.241 1.769.61 2.47 1.127.352.26 1.267 1.003 1.925 1.914.655.907 1.053 1.982 1.14 2.543h-4.71c-.203-.312-.46-.73-.825-1.02-.181-.144-.892-.907-2.23-.907-1.339 0-2.752.582-3.534 1.292-.783.71-1.108 1.7-1.351 2.673-.243.972-.254 1.37-.254 2.388 0 .45-.006 1.348.254 2.17.317 1 .938 1.93 1.294 2.329.557.623 1.385.962 1.656 1.038.387.108 2.256.32 3.002 0 .496-.215.836-.382 1.019-.502H8.44z"/>
</svg>
