<svg xmlns="http://www.w3.org/2000/svg" width="20" height="20" viewBox="0 0 20 20">
    <path fill="#000" fill-rule="nonzero" d="M8.096 15.12l1.341-4.133h4.164l.19-.47H9.436l1.003-4.168h8.615c-.503 2.891-.836 4.641-.998 5.251a42.338 42.338 0 0 1-.851 2.834c-.533 1.521-1.075 2.344-1.817 3.14-.742.797-2.143 1.537-3.174 1.957-1.03.42-1.808.469-3.138.469-1.33 0-2.617-.191-3.76-.703-.32-.143-1.774-.72-2.807-1.722-.94-.912-1.467-2.227-1.672-2.848-.53-1.6-.457-3.597-.396-4.21.184-1.843.885-3.601 1.095-4.312.18-.608.867-2.253 1.984-3.49C4.624 1.496 6.154.684 6.678.416c1.056-.54 2.76-.398 4.173-.398.965 0 2.44.166 3.296.398.856.23 1.632.76 2.306 1.257.337.25.582.547.865.837.282.29.511.609.74.989.142.238.475 1.025.997 2.362h-4.74c-.42-.533-.75-.889-.992-1.067a4.235 4.235 0 0 0-2.05-.805c-1.065-.058-1.916.02-2.552.236-.782.265-1.307.608-1.731 1.058-.942 1-1.274 1.728-1.46 2.278-.185.55-.539 1.526-.797 2.732-.252 1.181-.131 2.314 0 2.75.055.183.52 1.075 1.312 1.685.893.69 1.518.91 1.868.997.71.178 1.813.206 2.527.156.476-.034 1.02-.287 1.632-.76H8.096z"/>
</svg>
