<svg xmlns="http://www.w3.org/2000/svg" width="18" height="20" viewBox="0 0 18 20">
    <path fill="#000" fill-rule="nonzero" d="M15.604 13.445H7.482v-1.453h8.298c.015-.372.01-1.533 0-1.787H7.482V8.782h9.782c0 2.134.146 3.254-.154 4.798-.301 1.543-.97 2.925-1.61 3.612-.17.183-1.01 1.35-2.575 2.05-1.565.7-2.5.758-3.588.758-1.386 0-2.667-.232-3.76-.759-1.09-.526-2.1-1.247-2.862-2.14-.762-.892-1.32-1.972-1.719-3.132-.398-1.16-.603-2.601-.603-3.85 0-1.393.23-2.655.603-3.913s1.075-2.39 1.812-3.335c.736-.946 1.67-1.549 2.77-2.111C6.678.198 7.965 0 9.438 0c1.005 0 1.915.177 2.807.418.893.241 1.435.479 2.305 1.115.58.424 1.097.977 1.55 1.658.252.417.431.747.54.991.14.315.27.717.381 1.044h-1.78a4.235 4.235 0 0 0-.54-1.14 5.886 5.886 0 0 0-1.027-1.147c-.9-.768-1.72-1.087-2.334-1.257a7.658 7.658 0 0 0-2.003-.268c-1.126 0-2.622.37-3.428.833-.805.465-1.619 1.267-2.13 2.026-.27.4-.94 1.674-1.294 3.16-.163.684-.447 2.265-.331 3.673.11 1.338.246 1.827.561 2.717.315.89.788 1.674 1.325 2.38.537.705 1.577 1.44 2.365 1.86.789.419 1.892.608 2.932.608.274 0 1.778-.167 3.003-.757 1.107-.534 1.948-1.485 2.124-1.711.39-.503.747-1.109.927-1.64.192-.56.196-1.036.213-1.118z"/>
</svg>
