<svg xmlns="http://www.w3.org/2000/svg" width="19" height="20" viewBox="0 0 19 20">
    <path fill="#000" fill-rule="nonzero" d="M14.335 13.681H6.646l.64-2.142H14.9c.198-.523.294-.87.287-1.039H7.551l.512-2.066h10.011a190.96 190.96 0 0 1-.815 3.25c-.332 1.248-.655 2.349-.865 2.948-.556 1.586-1.128 2.263-1.902 3.093-.773.83-1.74 1.309-2.815 1.746-1.074.437-2.431.347-3.818.347-1.386 0-2.031-.176-3.223-.71-.636-.284-1.734-.996-2.624-1.972C1.233 16.28.63 15.174.443 14.632c-.398-1.16-.516-2.631-.4-3.791.19-1.92.847-3.688 1.067-4.429.372-1.258.927-2.36 1.663-3.306A8.13 8.13 0 0 1 5.53.843C6.629.281 7.916 0 9.389 0c1.005 0 2.954.12 3.846.361.893.241 1.69.62 2.391 1.138.352.26.676.528.97.83.295.301.56.637.798 1.034.477.794.807 1.352.98 2.477h-2.469c-.121-.732-1.266-2.222-1.752-2.56-.485-.34-1.187-.714-1.802-.884-.615-.17-2.27-.254-2.962-.254-1.127 0-2.093.232-2.899.696a5.896 5.896 0 0 0-1.975 1.834c-.511.759-1.128 1.928-1.322 2.5-.16.478-.592 1.803-.86 3.06-.264 1.231-.138 2.505 0 2.96.276.92.788 1.672 1.325 2.377.537.705 1.604 1.525 2.832 1.834 1.23.309 3.013.313 4.08.095.581-.119 1.649-.493 2.373-1.18.607-.575.919-1.465 1.031-1.686a4.48 4.48 0 0 0 .361-.95z"/>
</svg>
