<svg xmlns="http://www.w3.org/2000/svg" width="19" height="20" viewBox="0 0 19 20">
    <path fill="#000" fill-rule="nonzero" d="M5.802 15.033l.932-3.03h7.24c.248-.509.368-.848.361-1.017h-7.29l.709-2.988 10.509.087c-.41 1.847-.7 3.087-.869 3.723-.332 1.249-.864 2.774-1.074 3.373-.556 1.585-1.051 1.81-1.825 2.64-.774.83-1.744 1.213-2.818 1.65-1.074.437-2.431.347-3.818.347-1.386 0-2.031-.176-3.223-.71-.636-.284-1.734-.996-2.624-1.972C1.233 16.28.63 15.174.443 14.632c-.398-1.16-.516-2.631-.4-3.791.19-1.92.847-3.688 1.067-4.429.372-1.258.927-2.36 1.663-3.306A8.13 8.13 0 0 1 5.53.843C6.629.281 7.916 0 9.389 0c1.005 0 2.954.12 3.846.361.893.241 1.69.62 2.391 1.138.352.26.676.528.97.83.295.301.56.637.798 1.034.477.794.926 2.032 1.1 3.157h-3.308c-.12-.732-.632-1.697-1.212-2.316a3.966 3.966 0 0 0-1.465-.932c-.933-.318-2.053-.368-2.713-.368-1.126 0-1.946.154-2.752.618-.806.464-1.325.893-1.836 1.651-.511.759-1.073 1.863-1.267 2.436a28.094 28.094 0 0 0-.735 2.788c-.263 1.232-.137 2.241 0 2.696.123.405.485 1.182 1.086 1.829.765.82 1.845 1.5 2.532 1.672 1.23.308 2.626.335 3.693.116.581-.118 1.176-.295 1.9-.982.405-.383.574-.615.506-.695h-7.12z"/>
</svg>
