<svg xmlns="http://www.w3.org/2000/svg" width="18" height="20" viewBox="0 0 18 20">
    <path fill="#000" fill-rule="nonzero" d="M13.763 15.03H6.948v-3.007h7.68c.014-.372.01-.702 0-.955h-7.68V8.052h10.744c0 2.134 0 4.36-.236 5.786-.293 1.777-1.312 3.001-1.951 3.688-.64.687-1.857 1.484-2.932 1.92-1.074.438-2.143.554-3.235.554-1.386 0-2.625-.263-3.717-.79a8.424 8.424 0 0 1-2.782-2.128 9.381 9.381 0 0 1-1.741-3.08A11.047 11.047 0 0 1 .5 10.389c0-1.392.186-2.717.559-3.976.372-1.258.927-2.36 1.663-3.306A8.13 8.13 0 0 1 5.478.843C6.578.281 7.865 0 9.338 0c1.005 0 1.954.12 2.846.361.893.241 1.69.62 2.392 1.138.702.518 1.422 1.207 1.899 2.001.476.795.957 1.883 1.13 3.008h-3.28c-.121-.732-1.122-2.172-1.607-2.511-.486-.34-.899-.56-1.514-.73a6.654 6.654 0 0 0-1.866-.257c-1.126 0-1.388.026-2.194.49-.805.464-1.266.703-1.777 1.462-.512.759-.99 1.701-1.233 2.674-.242.973-.315 1.647-.315 2.665 0 1 .118 1.744.395 2.663.278.92.727 1.585 1.264 2.29.537.705.917.898 1.706 1.318.788.42 1.413.51 2.452.51.97 0 1.407-.189 2.152-.51.745-.322 1.106-.587 1.617-1.15.34-.374.46-.505.358-.391z"/>
</svg>
