<svg xmlns="http://www.w3.org/2000/svg" width="19" height="21" viewBox="0 0 19 21">
    <path fill="#000" fill-rule="nonzero" d="M15.986 13.518H7.884l.297-1.078h8.031c.474-1.382.707-2.158.7-2.327H8.763l.274-.985h9.329a76.834 76.834 0 0 1-.674 2.846 49.208 49.208 0 0 1-.931 3.108c-.556 1.586-.955 2.02-1.728 2.85-.774.83-1.677 1.27-2.752 1.707-1.074.437-2.335.38-3.722.38-1.386 0-2.031-.177-3.223-.71-.636-.285-1.734-.997-2.624-1.973-.779-.855-1.382-1.962-1.569-2.504C.96 14.3.54 12.865.701 11.196c.189-1.965.99-4.183 1.109-4.584.372-1.258.927-2.36 1.663-3.306A8.13 8.13 0 0 1 6.23 1.043c1.1-.562 2.557-.928 4.03-.928 1.434 0 2.784.205 3.676.446.893.241 1.69.62 2.391 1.138.352.26.676.528.97.83.295.301 1.305 1.552 1.478 2.677h-1.477c-.06-.363-.61-1.534-1.58-2.344-.465-.388-1.441-1.083-2.632-1.375-1.336-.327-2.89-.228-3.257-.228-.597 0-2.31.28-3.6 1.048-1.143.68-1.895 1.835-2.135 2.191-.248.369-.971 1.684-1.38 2.916-.41 1.232-.72 2.674-.814 3.485-.205 1.775.097 3.114.131 3.229.278.919.906 1.75 1.443 2.455.537.705 2.254 1.795 3.483 2.104 1.23.309 3.328.28 4.395.061.303-.061 1.815-.438 2.823-1.412.93-.899 1.371-2.398 1.425-2.504.236-.46.371-1.237.387-1.314z"/>
</svg>
