<?xml version="1.0" encoding="UTF-8" standalone="no"?>
<svg
   xmlns:dc="http://purl.org/dc/elements/1.1/"
   xmlns:cc="http://creativecommons.org/ns#"
   xmlns:rdf="http://www.w3.org/1999/02/22-rdf-syntax-ns#"
   xmlns:svg="http://www.w3.org/2000/svg"
   xmlns="http://www.w3.org/2000/svg"
   xmlns:sodipodi="http://sodipodi.sourceforge.net/DTD/sodipodi-0.dtd"
   xmlns:inkscape="http://www.inkscape.org/namespaces/inkscape"
   width="18"
   height="20"
   viewBox="0 0 18 20"
   version="1.1"
   id="svg4765"
   sodipodi:docname="g-thin.svg"
   inkscape:version="0.92.4 (5da689c313, 2019-01-14)">
  <metadata
     id="metadata4771">
    <rdf:RDF>
      <cc:Work
         rdf:about="">
        <dc:format>image/svg+xml</dc:format>
        <dc:type
           rdf:resource="http://purl.org/dc/dcmitype/StillImage" />
        <dc:title></dc:title>
      </cc:Work>
    </rdf:RDF>
  </metadata>
  <defs
     id="defs4769" />
  <sodipodi:namedview
     pagecolor="#ffffff"
     bordercolor="#666666"
     borderopacity="1"
     objecttolerance="10"
     gridtolerance="10"
     guidetolerance="10"
     inkscape:pageopacity="0"
     inkscape:pageshadow="2"
     inkscape:window-width="3840"
     inkscape:window-height="2066"
     id="namedview4767"
     showgrid="false"
     inkscape:zoom="11.8"
     inkscape:cx="9"
     inkscape:cy="10"
     inkscape:window-x="3829"
     inkscape:window-y="-11"
     inkscape:window-maximized="1"
     inkscape:current-layer="svg4765" />
  <path
     d="M 52.246006,18.900309 H 9.5828516 V 13.646378 H 52.256277 c 0.0719,-1.91052 0.05136,-10.2459369 0,-11.5504307 H 9.5777167 V -3.1785281 H 58.408975 c 0,10.9598137 0.570075,16.0083131 -0.975804,23.9380001 -1.540742,7.929687 -6.317043,16.249695 -9.593687,19.772858 A 35.282999,35.282999 0 0 1 35.4211,49.247797 c -6.229734,2.60899 -12.187271,4.057288 -17.903425,4.057288 -7.118229,0 -12.9627792,-1.350717 -18.5710807,-4.057288 A 43.264044,43.264044 0 0 1 -15.341223,38.318798 48.179011,48.179011 0 0 1 -24.282664,22.50051 56.735267,56.735267 0 0 1 -27.359013,3.9448381 c 0,-7.1490451 0.955261,-13.9539901 2.870917,-20.4199721 1.91052,-6.460846 4.760893,-12.120506 8.540848,-16.978979 a 41.754116,41.754116 0 0 1 14.1542865,-11.627469 c 5.6493882,-2.886324 12.2591725,-3.903215 19.8242175,-3.903215 5.161486,0 9.835071,0.914175 14.416212,2.151905 4.586276,1.232593 7.369884,2.454915 11.838036,5.721288 2.978769,2.177584 5.633981,5.017685 7.960502,8.520306 1.633186,2.377879 3.076349,5.387462 4.32435,9.02875 h -7.051464 c -0.616296,-3.759411 -3.759411,-8.03754 -8.386774,-11.981839 -4.622227,-3.944302 -10.379468,-5.84455 -13.537989,-6.717637 a 37.779001,37.779001 0 0 0 -10.08159,-1.304495 c -5.782919,0 -13.5379889,2.126224 -17.6774503,4.509239 -4.1394614,2.383015 -9.5577376,7.344205 -12.1821357,11.242283 -1.386668,2.054323 -4.858474,8.792502 -6.67655,16.424313 -0.837136,3.5077565 -2.270027,12.13077664 -1.674273,19.3619949 0.564939,6.8768461 1.402075,9.5371941 3.019855,14.1080631 1.617779,4.570869 4.832795,8.910626 7.590723,12.531371 2.7630643,3.620744 7.6215389,7.488008 11.6736906,9.639911 4.0470169,2.15704 11.1036174,3.533435 16.4448574,3.533435 2.680891,0 9.984009,-1.011754 16.126435,-3.949436 5.269339,-2.516546 9.496108,-6.77413 11.401493,-9.22391 4.118918,-5.315561 5.238524,-10.384603 5.829143,-12.105099 0.205431,-0.590618 0.693334,-2.783608 0.862815,-3.605337 z"
     id="path4763"
     inkscape:connector-curvature="0"
     style="fill:#000000;fill-rule:nonzero;stroke-width:5.13580751" />
</svg>
