<?xml version="1.0" encoding="UTF-8" standalone="no"?>
<!-- Created with Inkscape (http://www.inkscape.org/) -->

<svg
   xmlns:dc="http://purl.org/dc/elements/1.1/"
   xmlns:cc="http://creativecommons.org/ns#"
   xmlns:rdf="http://www.w3.org/1999/02/22-rdf-syntax-ns#"
   xmlns:svg="http://www.w3.org/2000/svg"
   xmlns="http://www.w3.org/2000/svg"
   xmlns:sodipodi="http://sodipodi.sourceforge.net/DTD/sodipodi-0.dtd"
   xmlns:inkscape="http://www.inkscape.org/namespaces/inkscape"
   width="210mm"
   height="297mm"
   viewBox="0 0 210 297"
   version="1.1"
   id="svg8"
   inkscape:version="0.92.4 (5da689c313, 2019-01-14)"
   sodipodi:docname="q-bold.svg">
  <defs
     id="defs2" />
  <sodipodi:namedview
     id="base"
     pagecolor="#ffffff"
     bordercolor="#666666"
     borderopacity="1.0"
     inkscape:pageopacity="0.0"
     inkscape:pageshadow="2"
     inkscape:zoom="1.4"
     inkscape:cx="81.193896"
     inkscape:cy="490.2902"
     inkscape:document-units="mm"
     inkscape:current-layer="layer1"
     showgrid="false"
     inkscape:window-width="3840"
     inkscape:window-height="2066"
     inkscape:window-x="3829"
     inkscape:window-y="-11"
     inkscape:window-maximized="1" />
  <metadata
     id="metadata5">
    <rdf:RDF>
      <cc:Work
         rdf:about="">
        <dc:format>image/svg+xml</dc:format>
        <dc:type
           rdf:resource="http://purl.org/dc/dcmitype/StillImage" />
        <dc:title></dc:title>
      </cc:Work>
    </rdf:RDF>
  </metadata>
  <g
     inkscape:label="Layer 1"
     inkscape:groupmode="layer"
     id="layer1">
    <g
       id="Page-1"
       transform="matrix(8.5410785,0,0,8.5410785,1.1205228,26.351284)"
       style="fill:none;fill-rule:evenodd;stroke:none;stroke-width:1">
      <g
         transform="translate(-505,-216)"
         id="currency-symbol-qtum"
         style="fill:#000000">
        <g
           transform="translate(505,216)"
           id="Group">
          <path
             id="Combined-Shape"
             d="M 11,0 C 17.075132,0 22,4.7010101 22,10.5 22,16.29899 17.075132,21 11,21 4.9248677,21 0,16.29899 0,10.5 0,4.7010101 4.9248677,0 11,0 Z m 0,3.6 c -4.0869072,0 -7.4,3.1060246 -7.4,6.9375 0,3.831475 3.3130928,6.9375 7.4,6.9375 4.086907,0 7.4,-3.106025 7.4,-6.9375 C 18.4,6.7060246 15.086907,3.6 11,3.6 Z"
             inkscape:connector-curvature="0" />
          <path
             id="path92"
             d="m 10.057511,13 c 3.145868,0 5.962397,1.276219 7.852039,3.287828 0.478582,0.509471 -0.994459,0.779422 -3.179152,0.85747 -1.336194,-0.811124 -2.933677,-1.284989 -4.672887,-1.284989 -1.4533307,0 -2.8345504,0.29594 -4.0575688,0.828252 C 3.8701943,16.377197 2.5086697,15.929019 3.1666509,15.392814 4.9919728,13.905313 7.4079307,13 10.057511,13 Z"
             inkscape:connector-curvature="0" />
          <polygon
             points="22.810001,20.988776 20.335633,20.967872 20.267384,15.307188 22.84552,14.699296 "
             transform="rotate(-35,21.556452,17.844036)"
             id="Rectangle" />
          <polygon
             points="20.52924,22.719743 17.989047,22.746756 17.822599,17.923779 20.455178,17.93778 "
             transform="rotate(-35,19.17592,20.335267)"
             id="polygon95" />
          <polygon
             points="22.457002,20.982277 20.902274,20.967296 20.847345,15.306612 22.402073,15.321593 "
             transform="rotate(-35,21.652174,18.144444)"
             id="polygon97" />
        </g>
      </g>
    </g>
  </g>
</svg>
