<?xml version="1.0" encoding="UTF-8" standalone="no"?>
<!-- Created with Inkscape (http://www.inkscape.org/) -->

<svg
   xmlns:dc="http://purl.org/dc/elements/1.1/"
   xmlns:cc="http://creativecommons.org/ns#"
   xmlns:rdf="http://www.w3.org/1999/02/22-rdf-syntax-ns#"
   xmlns:svg="http://www.w3.org/2000/svg"
   xmlns="http://www.w3.org/2000/svg"
   xmlns:sodipodi="http://sodipodi.sourceforge.net/DTD/sodipodi-0.dtd"
   xmlns:inkscape="http://www.inkscape.org/namespaces/inkscape"
   width="210mm"
   height="297mm"
   viewBox="0 0 210 297"
   version="1.1"
   id="svg8"
   inkscape:version="0.92.4 (5da689c313, 2019-01-14)"
   sodipodi:docname="q-bold-italic.svg">
  <defs
     id="defs2" />
  <sodipodi:namedview
     id="base"
     pagecolor="#ffffff"
     bordercolor="#666666"
     borderopacity="1.0"
     inkscape:pageopacity="0.0"
     inkscape:pageshadow="2"
     inkscape:zoom="1.4"
     inkscape:cx="303.08493"
     inkscape:cy="551.80343"
     inkscape:document-units="mm"
     inkscape:current-layer="layer1"
     showgrid="false"
     inkscape:window-width="3840"
     inkscape:window-height="2066"
     inkscape:window-x="3829"
     inkscape:window-y="-11"
     inkscape:window-maximized="1" />
  <metadata
     id="metadata5">
    <rdf:RDF>
      <cc:Work
         rdf:about="">
        <dc:format>image/svg+xml</dc:format>
        <dc:type
           rdf:resource="http://purl.org/dc/dcmitype/StillImage" />
        <dc:title></dc:title>
      </cc:Work>
    </rdf:RDF>
  </metadata>
  <g
     inkscape:label="Layer 1"
     inkscape:groupmode="layer"
     id="layer1">
    <g
       id="Page-1"
       transform="matrix(8.7011605,0,0,8.7011605,8.5461391,63.703476)"
       style="fill:none;fill-rule:evenodd;stroke:none;stroke-width:1">
      <g
         transform="translate(-507,-264)"
         id="currency-symbol-qtum"
         style="fill:#000000">
        <g
           transform="translate(507,264)"
           id="Group-6">
          <path
             id="Q"
             d="M 12.371287,0 C 17.517327,0 21,3.2156863 21,7.9738562 21,12.732026 18.175386,16.709322 16.231253,18.057084 14.287121,19.404845 10.863861,20 8.7326733,20 3.7165842,20 0,16.522876 0,11.843137 0,5.3856209 6.0556931,0 12.371287,0 Z M 11.729703,3.6 C 7.5794554,3.6 3.6,7.0302262 3.6,11.143167 c 0,2.980634 2.4423267,5.195294 5.7386139,5.195294 1.4004951,0 3.6500651,-0.379067 4.9276381,-1.237488 C 15.543825,14.242553 17.4,11.709321 17.4,8.678733 17.4,5.6481448 15.111386,3.6 11.729703,3.6 Z"
             inkscape:connector-curvature="0"
             style="fill-rule:nonzero" />
          <path
             id="Combined-Shape"
             d="m 8.0575113,12 c 3.1458677,0 5.9623967,1.276219 7.8520387,3.287828 0.453079,0.482323 -0.207529,1.618793 -2.20067,1.712172 -0.03451,0.0016 -0.06926,0.0031 -0.104244,0.0046 -1.510582,-1.187922 -3.438927,-1.919794 -5.5471247,-1.919794 -1.4574467,0 -2.8368643,0.329098 -4.0547219,0.908405 C 1.8833543,15.501807 0.53451186,14.90796 1.1666509,14.392814 2.9919728,12.905313 5.4079307,12 8.0575113,12 Z"
             inkscape:connector-curvature="0" />
          <polygon
             points="21.153872,19.913489 18.471593,19.919161 18.249481,14.412779 20.971575,14.151409 "
             transform="rotate(-35,19.701676,17.035285)"
             id="Rectangle" />
          <polygon
             points="18.744812,21.718574 15.964209,21.825779 15.593614,17.304062 18.498026,16.912649 "
             transform="rotate(-35,17.169213,19.369214)"
             id="polygon145" />
        </g>
      </g>
    </g>
  </g>
</svg>
