<?xml version="1.0" encoding="UTF-8" standalone="no"?>
<!-- Created with Inkscape (http://www.inkscape.org/) -->

<svg
   xmlns:dc="http://purl.org/dc/elements/1.1/"
   xmlns:cc="http://creativecommons.org/ns#"
   xmlns:rdf="http://www.w3.org/1999/02/22-rdf-syntax-ns#"
   xmlns:svg="http://www.w3.org/2000/svg"
   xmlns="http://www.w3.org/2000/svg"
   xmlns:sodipodi="http://sodipodi.sourceforge.net/DTD/sodipodi-0.dtd"
   xmlns:inkscape="http://www.inkscape.org/namespaces/inkscape"
   width="210mm"
   height="297mm"
   viewBox="0 0 210 297"
   version="1.1"
   id="svg8"
   inkscape:version="0.92.4 (5da689c313, 2019-01-14)"
   sodipodi:docname="q-regular-italic.svg">
  <defs
     id="defs2" />
  <sodipodi:namedview
     id="base"
     pagecolor="#ffffff"
     bordercolor="#666666"
     borderopacity="1.0"
     inkscape:pageopacity="0.0"
     inkscape:pageshadow="2"
     inkscape:zoom="1.4"
     inkscape:cx="303.08493"
     inkscape:cy="203.73018"
     inkscape:document-units="mm"
     inkscape:current-layer="layer1"
     showgrid="false"
     inkscape:window-width="3840"
     inkscape:window-height="2066"
     inkscape:window-x="3829"
     inkscape:window-y="-11"
     inkscape:window-maximized="1" />
  <metadata
     id="metadata5">
    <rdf:RDF>
      <cc:Work
         rdf:about="">
        <dc:format>image/svg+xml</dc:format>
        <dc:type
           rdf:resource="http://purl.org/dc/dcmitype/StillImage" />
        <dc:title></dc:title>
      </cc:Work>
    </rdf:RDF>
  </metadata>
  <g
     inkscape:label="Layer 1"
     inkscape:groupmode="layer"
     id="layer1">
    <g
       id="Page-1"
       transform="matrix(9.0421546,0,0,9.0421546,6.5470358,68.627919)"
       style="fill:none;fill-rule:evenodd;stroke:none;stroke-width:1">
      <g
         transform="translate(-112,-159)"
         id="currency-symbol-qtum"
         style="fill:#000000">
        <g
           transform="translate(112,159)"
           id="Group-2">
          <path
             id="Q"
             d="M 12.371287,0 C 17.517327,0 21,3.2156863 21,7.9738562 21,12.732026 18.175386,16.709322 16.231253,18.057084 14.287121,19.404845 10.863861,20 8.7326733,20 3.7165842,20 0,16.522876 0,11.843137 0,5.3856209 6.0556931,0 12.371287,0 Z M 12.014852,2 C 6.9022277,2 2,6.3084967 2,11.47451 2,15.218301 5.0086634,18 9.0693069,18 10.794555,18 13.565764,17.523876 15.139586,16.445667 16.713408,15.367458 19,12.185621 19,8.379085 19,4.572549 16.180693,2 12.014852,2 Z"
             inkscape:connector-curvature="0"
             style="fill-rule:nonzero" />
          <path
             id="Combined-Shape"
             d="m 8.0575113,13 c 3.1458677,0 5.9623967,1.276219 7.8520387,3.287828 0.402396,0.428368 -0.574927,0.687405 -2.194908,0.805415 -1.52625,-1.240326 -3.497306,-2.008482 -5.6571307,-2.008482 -1.8594788,0 -3.591943,0.535702 -5.0239152,1.443265 C 1.4826752,16.229952 0.61506707,15.842313 1.1666509,15.392814 2.9919728,13.905313 5.4079307,13 8.0575113,13 Z"
             inkscape:connector-curvature="0" />
          <polygon
             points="18.560548,20.079242 18.492299,14.418558 20.424049,14.433539 20.492299,20.094223 "
             transform="rotate(-35,19.492299,17.25639)"
             id="Rectangle" />
          <polygon
             points="16.092223,21.867498 16.036034,17.23603 17.979845,17.25101 18.036034,21.882479 "
             transform="rotate(-35,17.036034,19.559254)"
             id="polygon443" />
        </g>
      </g>
    </g>
  </g>
</svg>
