<?xml version="1.0" encoding="UTF-8" standalone="no"?>
<!-- Created with Inkscape (http://www.inkscape.org/) -->

<svg
   xmlns:dc="http://purl.org/dc/elements/1.1/"
   xmlns:cc="http://creativecommons.org/ns#"
   xmlns:rdf="http://www.w3.org/1999/02/22-rdf-syntax-ns#"
   xmlns:svg="http://www.w3.org/2000/svg"
   xmlns="http://www.w3.org/2000/svg"
   xmlns:sodipodi="http://sodipodi.sourceforge.net/DTD/sodipodi-0.dtd"
   xmlns:inkscape="http://www.inkscape.org/namespaces/inkscape"
   width="210mm"
   height="297mm"
   viewBox="0 0 210 297"
   version="1.1"
   id="svg8"
   inkscape:version="0.92.4 (5da689c313, 2019-01-14)"
   sodipodi:docname="q-semibold.svg">
  <defs
     id="defs2" />
  <sodipodi:namedview
     id="base"
     pagecolor="#ffffff"
     bordercolor="#666666"
     borderopacity="1.0"
     inkscape:pageopacity="0.0"
     inkscape:pageshadow="2"
     inkscape:zoom="1.4"
     inkscape:cx="303.08493"
     inkscape:cy="203.73018"
     inkscape:document-units="mm"
     inkscape:current-layer="layer1"
     showgrid="false"
     inkscape:window-width="3840"
     inkscape:window-height="2066"
     inkscape:window-x="3829"
     inkscape:window-y="-11"
     inkscape:window-maximized="1" />
  <metadata
     id="metadata5">
    <rdf:RDF>
      <cc:Work
         rdf:about="">
        <dc:format>image/svg+xml</dc:format>
        <dc:type
           rdf:resource="http://purl.org/dc/dcmitype/StillImage" />
        <dc:title></dc:title>
      </cc:Work>
    </rdf:RDF>
  </metadata>
  <g
     inkscape:label="Layer 1"
     inkscape:groupmode="layer"
     id="layer1">
    <g
       id="Page-1"
       transform="matrix(8.3283497,0,0,8.3283497,4.3333213,70.574497)"
       style="fill:none;fill-rule:evenodd;stroke:none;stroke-width:1">
      <g
         transform="translate(-505,-111)"
         id="currency-symbol-qtum"
         style="fill:#000000">
        <g
           transform="translate(505,111)"
           id="Group">
          <path
             id="Combined-Shape"
             d="M 11,0 C 17.075132,0 22,4.7010101 22,10.5 22,16.29899 17.075132,21 11,21 4.9248677,21 0,16.29899 0,10.5 0,4.7010101 4.9248677,0 11,0 Z m 0,3 C 6.581722,3 3,6.3578644 3,10.5 3,14.642136 6.581722,18 11,18 15.418278,18 19,14.642136 19,10.5 19,6.3578644 15.418278,3 11,3 Z"
             inkscape:connector-curvature="0" />
          <path
             id="path491"
             d="m 10.057511,13 c 3.145868,0 5.962397,1.276219 7.852039,3.287828 0.508676,0.541508 -1.187434,0.812425 -3.599426,0.869929 -1.257406,-0.679438 -2.706652,-1.072996 -4.252613,-1.072996 -1.2502713,0 -2.4431206,0.242186 -3.5258148,0.676755 C 4.103523,16.449083 2.4554785,15.972366 3.1666509,15.392814 4.9919728,13.905313 7.4079307,13 10.057511,13 Z"
             inkscape:connector-curvature="0" />
          <polygon
             points="22.84552,14.699296 22.810001,20.988776 20.335633,20.967872 20.267384,15.307188 "
             transform="rotate(-35,21.556452,17.844036)"
             id="Rectangle" />
          <polygon
             points="20.449223,17.904893 20.523285,22.686856 17.983093,22.713869 17.926904,18.0824 "
             transform="rotate(-35,19.225095,20.309381)"
             id="polygon494" />
          <polygon
             points="22.402073,15.321593 22.457002,20.982277 20.902274,20.967296 20.847345,15.306612 "
             transform="rotate(-35,21.652174,18.144444)"
             id="polygon496" />
        </g>
      </g>
    </g>
  </g>
</svg>
