<?xml version="1.0" encoding="UTF-8" standalone="no"?>
<!-- Created with Inkscape (http://www.inkscape.org/) -->

<svg
   xmlns:dc="http://purl.org/dc/elements/1.1/"
   xmlns:cc="http://creativecommons.org/ns#"
   xmlns:rdf="http://www.w3.org/1999/02/22-rdf-syntax-ns#"
   xmlns:svg="http://www.w3.org/2000/svg"
   xmlns="http://www.w3.org/2000/svg"
   xmlns:sodipodi="http://sodipodi.sourceforge.net/DTD/sodipodi-0.dtd"
   xmlns:inkscape="http://www.inkscape.org/namespaces/inkscape"
   width="210mm"
   height="297mm"
   viewBox="0 0 210 297"
   version="1.1"
   id="svg8"
   inkscape:version="0.92.4 (5da689c313, 2019-01-14)"
   sodipodi:docname="q-thin.svg">
  <defs
     id="defs2" />
  <sodipodi:namedview
     id="base"
     pagecolor="#ffffff"
     bordercolor="#666666"
     borderopacity="1.0"
     inkscape:pageopacity="0.0"
     inkscape:pageshadow="2"
     inkscape:zoom="1.4"
     inkscape:cx="303.08493"
     inkscape:cy="203.73018"
     inkscape:document-units="mm"
     inkscape:current-layer="layer1"
     showgrid="false"
     inkscape:window-width="3840"
     inkscape:window-height="2066"
     inkscape:window-x="3829"
     inkscape:window-y="-11"
     inkscape:window-maximized="1" />
  <metadata
     id="metadata5">
    <rdf:RDF>
      <cc:Work
         rdf:about="">
        <dc:format>image/svg+xml</dc:format>
        <dc:type
           rdf:resource="http://purl.org/dc/dcmitype/StillImage" />
        <dc:title></dc:title>
      </cc:Work>
    </rdf:RDF>
  </metadata>
  <g
     inkscape:label="Layer 1"
     inkscape:groupmode="layer"
     id="layer1">
    <g
       id="Page-1"
       transform="matrix(8.4135945,0,0,8.4135945,9.0338147,88.959644)"
       style="fill:none;fill-rule:evenodd;stroke:none;stroke-width:1">
      <g
         transform="translate(-333,-111)"
         id="currency-symbol-qtum"
         style="fill:#000000">
        <g
           transform="translate(333,111)"
           id="Group">
          <path
             id="Combined-Shape"
             d="M 11,0 C 17.075132,0 22,4.7010101 22,10.5 22,16.29899 17.075132,21 11,21 4.9248677,21 0,16.29899 0,10.5 0,4.7010101 4.9248677,0 11,0 Z m 0,1 C 5.4771525,1 1,5.2532949 1,10.5 1,15.746705 5.4771525,20 11,20 16.522847,20 21,15.746705 21,10.5 21,5.2532949 16.522847,1 11,1 Z"
             inkscape:connector-curvature="0" />
          <path
             id="path590"
             d="m 10.057511,14.4 c 3.145868,0 5.962397,1.276219 7.852039,3.287828 0.275361,0.293134 -0.09536,0.506975 -0.875983,0.650592 -1.705687,-1.807319 -4.245051,-2.980222 -6.976056,-2.980222 -2.4324858,0 -4.6917951,0.841604 -6.3455079,2.232981 C 3.0556062,17.357978 2.8034344,17.088808 3.1666509,16.792814 4.9919728,15.305313 7.4079307,14.4 10.057511,14.4 Z"
             inkscape:connector-curvature="0" />
          <polygon
             points="19.753328,18.013339 19.857391,22.794171 18.748991,22.735354 18.599027,18.069113 "
             transform="rotate(-35,19.228209,20.403755)"
             id="Rectangle" />
          <polygon
             points="21.554301,15.9 21.656568,21.473885 20.548169,21.415068 20.4,15.955774 "
             transform="rotate(-35,21.028284,18.686943)"
             id="polygon593" />
        </g>
      </g>
    </g>
  </g>
</svg>
